<?xml version="1.0" encoding="utf-8"?>
<!-- Generator: Adobe Illustrator 25.0.1, SVG Export Plug-In . SVG Version: 6.00 Build 0)  -->
<svg version="1.1" id="Layer_1" xmlns="http://www.w3.org/2000/svg" xmlns:xlink="http://www.w3.org/1999/xlink" x="0px" y="0px"
	 viewBox="0 0 384 384" style="enable-background:new 0 0 384 384;" xml:space="preserve">
<style type="text/css">
	.st0{fill:#515151;}
	.st1{fill:#FECB66;}
	.st2{fill:#EC7161;}
	.st3{fill:#666666;}
	.st4{fill:#E3E3E3;}
	.st5{fill:#333333;}
	.st6{fill:#FEFDFC;}
	.st7{fill:#3AB6FB;}
	.st8{fill:#E5E5E5;}
	.st9{fill:#54BAFE;}
	.st10{fill:#87BF57;}
	.st11{fill:#575757;}
	.st12{fill:#489FDB;}
	.st13{fill:#638B3F;}
	.st14{fill:#FEFEFE;}
</style>
<path class="st0" d="M299.4,291.1c0,19.1,0,38.1,0,57.2c0,17.5-11.4,29-29,29c-52.5,0-105,0-157.4,0c-17.6,0-29-11.5-29-29.1
	c0-74.7,0-149.3,0-224c0-1,0.1-2,0.1-3c2.2-2,10-2.7,12.2-1.1c1,0.7,1.3,1.8,1.4,2.9c0.1,1.7,0.1,3.5,0.1,5.2
	c0,63.5,0,127.1,0,190.6c0,6.1,0.2,6.3,6.3,6.3c58.4,0,116.9,0,175.3,0c0.5,0,1,0,1.5,0c4.2-0.1,4.8-0.6,4.8-4.7
	c0-8.2,0-16.4,0-24.7c0-1.6-0.2-3.3,0.8-4.7C290.7,289.3,295,289.3,299.4,291.1z"/>
<path class="st0" d="M83.7,74.1c0.1-13,0.1-25.9,0.1-38.9c0-17.8,11.3-29.3,29.2-29.3c52.4,0,104.8,0,157.1,0
	c17.9,0,29.2,11.4,29.2,29.3c0,69.6,0,139.2,0,208.7c-4.5,2-9.1,1.7-13.6,0.2c-0.7-0.8-0.9-1.8-0.9-2.8c0-10.3-0.5-20.7,0.2-31
	c0.6-1.8,0.6-3.7,0.6-5.6c0-51.6,0-103.3,0-154.9c0-5.2-0.2-5.4-5.6-5.4c-58.9,0-117.7,0-176.6,0c-5.7,0-5.8,0.1-5.8,5.9
	c0,6.6,0.1,13.2,0,19.8c-0.1,4-0.9,4.9-4.8,5C89.7,75.3,86.5,76.2,83.7,74.1z"/>
<path class="st1" d="M286.1,244c4.4,0,8.8,0,13.2,0c10.5,0.1,21,0.1,31.5,0.2c1.5,1.7,1.2,3.7,1.2,5.7c0,11.5,0,22.9,0,34.4
	c0,4.6,0.3,4.9,4.8,4.9c10.1,0,20.2,0,30.3,0c1.9,0,4-0.4,5.6,1.3c-1.3,1-2.9,0.5-4.3,0.5c-23,0-46,0-69,0
	c-4.2-0.3-8.4-0.4-12.7,0.1c-0.4,0.3-0.8,0.6-1.3,0.8c-1.7,0.6-3.5,0.4-5.2,0.4c-50.5,0-101.1,0-151.6,0c-2.3,0-5.1,1-6.7-1.8
	c1.6-1.7,3.7-1.3,5.6-1.3c10.1-0.1,20.2,0,30.3,0c4.6,0,4.9-0.3,4.9-4.9c0-11.6,0-23.2,0-34.8c0-2-0.3-4,1.1-5.8
	c1.6-1.2,3.6-1,5.4-1c37.1,0,74.1,0,111.2,0C282.4,242.8,284.4,242.6,286.1,244z"/>
<path class="st2" d="M372.8,290.5c-12.7,0-25.3-0.1-38,0c-3,0-4.1-0.6-4.1-3.9c0.2-14.2,0.1-28.3,0.1-42.5c13.5,0,26.9-0.1,40.4-0.1
	c3.8,0,6.1,2.3,6.1,6.1c0.1,11.5,0.1,22.9,0,34.4C377.3,287.7,375.9,289.9,372.8,290.5z"/>
<path class="st3" d="M286,291.1c0.2,0,0.4,0,0.7,0.1c0,10.5-0.1,20.9,0.1,31.4c0,2.9-0.8,3.8-3.8,3.8c-60.8-0.1-121.7-0.1-182.5,0
	c-3.6,0-4-1.4-4-4.4c0.1-65.4,0.1-130.9,0-196.3c0-5.8,0.6-5.2-5.2-5.1c-2.4,0-5-0.6-7.3,0.7c-1.1-1.3-2.6-0.7-3.8-0.7
	c-21.9,0-43.9,0-65.8,0c-6.6,0-8.3-1.7-8.4-8.4c0-10.3,0-20.7,0-31c0-4.9,2.1-7,7.1-7c23.6,0,47.1,0,70.7,0c3.2,0,6.5-0.1,9.7,0.1
	c2.5,0.1,3.2-0.9,3.1-3.3C96.5,63,96.7,55,96.5,47c-0.1-2.8,0.8-3.6,3.6-3.6c61.1,0.1,122.1,0.1,183.2,0c2.9,0,3.5,1,3.5,3.7
	c-0.1,53.4,0,106.9-0.1,160.3c0,1,0.2,2-0.4,2.9c-1.9-1.3-1.5-3.3-1.5-5.1c-0.1-7.8,0-15.7,0-23.6c0-43.1,0-86.2,0-129.3
	c0-6.9,0-6.9-7.1-6.9c-57.3,0-114.7,0-172,0c-7.1,0-7.1,0-7.1,6.9c0,5.2,0,10.5,0,15.7c0,4.5,0.4,4.8,5,4.8c22.7,0,45.4,0,68,0
	c2.2,0,4.5-0.3,6.6,0.9c1.1,1.4,1.1,2.8,0.1,4.2c-2,1.4-4.3,1-6.5,1c-50.6,0-101.3,0-151.9,0c-8.8,0-8.8,0-8.8,8.8
	c0,7.2,0,14.5,0,21.7c0,5.4,0.5,6,6,6c23.9,0,47.9,0,71.8,0c27.6,0,55.1,0,82.7,0c2.2,0,4.5-0.4,6.6,0.9c1.1,1.4,1.1,2.8,0.1,4.2
	c-2,1.4-4.3,1-6.5,1c-21.9,0-43.9,0-65.8,0c-1.2,0-2.5,0.1-3.7,0c-2.5-0.1-3.7,1.1-3.6,3.6c0,1.1,0,2.2,0,3.4c0,63,0,125.9,0,188.9
	c0,6.7,0,6.7,6.8,6.7c57.5,0,114.9,0,172.4,0c6.9,0,6.9,0,6.9-7c0-7,0-14,0-20.9C284.7,294.5,284.5,292.6,286,291.1z"/>
<path class="st4" d="M189.3,340.5c4.8,0,9.7,0,14.5,0c4.6,0,6.7,2,6.9,6.5c0.2,3.8,0.2,7.7,0,11.6c-0.2,4.2-2.2,6.1-6.4,6.1
	c-9.9,0.1-19.9,0.1-29.8,0c-4.2,0-6.2-1.9-6.4-6.1c-0.2-4-0.2-8,0-11.9c0.2-4.3,2.4-6.1,6.8-6.2
	C179.6,340.4,184.5,340.5,189.3,340.5z"/>
<path class="st5" d="M192,20.3c8.9,0,17.7,0,26.6,0c1,0,2-0.1,3,0.2c1.8,0.4,3.6,1.6,3.3,3.4c-0.2,1.7-2.3,0.9-3.5,0.9
	c-17.2,0.1-34.4,0.1-51.6,0c-3,0-5.7,0-7.2,3.4c-0.8,1.8-2,1.1-2.9,0.1c-1.2-1.3-2.1-2.8-1.4-4.7c0.9-2.3,2.6-3.2,5-3.2
	c6.7,0,13.5,0,20.2,0C186.3,20.3,189.1,20.3,192,20.3z"/>
<path class="st2" d="M122,290.6c-3.6-0.7-4.8-3.4-4.9-6.6c-0.1-10.9-0.2-21.9,0-32.9c0.1-5.1,2.5-7.1,7.6-7.1
	c13.1,0,26.1,0.1,39.2,0.1c0,14.3,0,28.6,0.1,42.9c0,2.9-1,3.5-3.7,3.5C147.5,290.4,134.8,290.5,122,290.6z"/>
<path class="st6" d="M239.8,263.6c25.3,0,50.6,0,75.9-0.1c3.2,0,3.3,1.5,3.2,3.9c-0.1,2.3,0.4,4.3-3.3,4.3
	c-25.3-0.2-50.6-0.1-75.9-0.1C239.1,268.8,238.9,266.2,239.8,263.6z"/>
<path class="st0" d="M221.4,271.1c-14,0-28.1-0.1-42.1,0.1c-3.2,0-3.5-1.3-3.6-3.9c-0.1-2.8,0.6-3.9,3.7-3.8
	c14,0.2,28.1,0.1,42.1,0.1C222.2,266.1,222.5,268.6,221.4,271.1z"/>
<path class="st7" d="M221.4,271.1c-0.5-2.5-0.7-5,0.1-7.5c5.9-8,13.2-8,18.3,0c0.8,2.6,0.8,5.3,0,7.9
	C234.3,279.4,227.2,279.3,221.4,271.1z"/>
<path class="st8" d="M178.1,116.7c-54.5,0-109,0-163.4,0c-4.5,0-4.8-0.3-4.8-5c0-9.6,0-19.2,0-28.8c0-4.7,0.3-4.9,4.8-4.9
	c54.5,0,109,0,163.4,0c1.3,1.3,1.2,3,1.2,4.6c0,9.8,0,19.7,0,29.5C179.3,113.7,179.5,115.4,178.1,116.7z"/>
<path class="st2" d="M178.1,116.7c0-12.9,0-25.8,0-38.6c0-1.3,0.1-2.6,0.1-3.9c13.7,0,27.4-0.2,41.1-0.1c3.7,0,5.9,2.5,5.9,6.3
	c0.1,11.3,0.1,22.6,0,34c0,3.9-2.3,6.3-6.3,6.3c-13.6,0-27.1-0.1-40.7-0.1C178.2,119.2,178.2,117.9,178.1,116.7z"/>
<path class="st5" d="M189.4,362.9c-4.7,0-9.5,0-14.2,0c-3.9,0-5.2-1.3-5.3-5.1c-0.1-3.6,0-7.2,0-10.8c0-3.1,1.5-4.7,4.5-4.7
	c9.9-0.1,19.9-0.1,29.8,0c3,0,4.6,1.6,4.5,4.7c0,3.7,0,7.5,0,11.2c0,3.3-1.7,4.7-4.9,4.7C199.1,362.9,194.2,362.9,189.4,362.9z"/>
<path class="st9" d="M243.9,205c-1.6,0.8-3.1,1.7-4.7,2.4c-1.4,0.6-2.7,1.2-4.2,1.5c-2.5,0.5-4,1.7-3.8,4.5c0.2,3-1.4,4.3-4.4,3.8
	c-1-0.1-2,0-3,0c-5.6,0-5.6,0-7.1-5.4c-0.5-1.8-11.9-7-13.6-6.1c-1.8,0.9-3.2,3.5-5,2.9c-2-0.8-3.4-3.2-5.3-4.6
	c-3.5-2.6-4.3-5.2-0.7-8.3c0.3-0.2,0.6-0.6,0.6-0.9c-0.3-4.4-3.4-7.8-4.3-12.1c-0.3-1.6-2.5-1.5-3.9-1.5c-2.8,0-3.9-1.2-3.5-3.9
	c0.1-1,0-2,0-3c0-6,0-6,5.7-7.5c1.7-0.4,6.6-12.3,5.7-13.8c-3-5.2-3-5.2,1.4-9.6c0.5-0.5,1.2-1,1.6-1.6c1.9-2.8,3.9-2.6,6-0.4
	c1.9,2,3.8,2,5.9,0.4c1-0.7,2.2-1.3,3.4-1.6c4-0.9,7-2.4,6.5-7.3c-0.1-1.2,0.8-2,2.2-2c1.5,0,3,0,4.5,0c5.9,0,5.9,0,7.5,5.7
	c0.5,1.8,12.2,6.7,13.9,5.8c1.8-0.9,3-3.7,5.3-2.7c1.7,0.7,2.9,2.6,4.3,4c0.7,0.7,1.3,1.5,2.1,2.1c2.1,1.6,2,3.2,0.3,4.9
	c-2.2,2.1-2.7,4.3-0.7,6.9c0.7,1,1.3,2.2,1.5,3.4c0.8,3.7,2.5,5.4,6.7,6.4c5.5,1.4,1.3,7,2.4,10.6c0.7,2.3-1,3-3.1,3
	c-3.2,0-5,1.4-5.5,4.7c-0.2,1.3-0.8,2.7-1.5,3.8c-2.3,3.1-2.1,5.9,0.7,8.5c1.4,1.3,1.2,2.5-0.2,3.7c-1,0.8-1.8,1.8-2.7,2.6
	c-1.5,1.4-2.9,3.5-4.7,4.1c-2,0.7-3.2-2-5-2.8C244.8,205.6,244.4,205.3,243.9,205z"/>
<path class="st10" d="M125.6,176.2c-0.3-0.5-0.6-1.3-1.1-1.8c-2.6-2.4-1.7-4.4,0.8-6c1.9-1.2,2.6-5.6,6-3c2.3,1.7,3.9,1.9,6.2,0.4
	c1.3-0.9,2.9-1.4,4.5-1.8c1.5-0.4,2.3-1.2,2.2-2.5c-0.2-3.5,1.7-4.2,4.6-3.8c1.1,0.1,2.3,0.1,3.4,0c2.3-0.3,3.3,0.8,3.3,2.9
	c0,2.3,1,3.3,3.2,3.7c1.3,0.3,2.7,0.8,3.8,1.5c2.1,1.5,3.9,1.6,5.8-0.4c1.2-1.3,2.6-1.2,3.8,0.2c0.9,1,1.8,2.1,2.9,2.9
	c2.2,1.7,2.7,3.4,0.5,5.4c-1.4,1.4-1.2,2.7-0.3,4.3c0.7,1.1,1.3,2.4,1.6,3.8c0.5,2.7,1.9,4.2,4.8,4.1c1.7,0,2.4,0.9,2.4,2.6
	c-0.1,1.5-0.2,3,0,4.5c0.4,2.7-0.8,4-3.4,4c-2.2,0-3,1.1-3.4,3.1c-0.3,1.4-0.9,2.9-1.7,4.1c-1.3,2-1.3,3.6,0.4,5.3
	c1.6,1.6,1.4,2.9-0.3,4.3c-1,0.8-1.9,1.7-2.6,2.6c-1.7,2.1-3.4,2.7-5.4,0.5c-1.2-1.3-2.5-1.3-4-0.3c-1.4,0.8-2.9,1.6-4.4,1.9
	c-2.5,0.5-3.6,1.7-3.6,4.2c0,2.2-1.3,3-3.5,2.7c-1.1-0.1-2.2-0.1-3.4,0c-2.6,0.2-4.4-0.2-4.3-3.4c0-1.8-0.9-2.9-2.9-3.3
	c-1.6-0.3-3.2-0.9-4.5-1.8c-2-1.4-3.7-1.1-5.3,0.5c-1.6,1.7-2.9,1.3-4.3-0.4c-0.9-1.1-1.8-2.1-2.9-2.9c-2-1.6-2.2-3.2-0.4-4.9
	c1.5-1.5,1.5-2.8,0.4-4.6c-0.9-1.3-1.5-2.9-1.8-4.5c-0.5-2.1-1.5-3.2-3.8-3.2c-2.3,0-3.3-1.3-2.9-3.6c0.1-1.1,0.1-2.2,0-3.4
	c-0.2-2.6,0.2-4.4,3.4-4.2c1.7,0.1,2.5-0.9,3.1-2.6c0.8-2.4,1.9-4.6,2.9-6.8C125.4,176.6,125.5,176.5,125.6,176.2z"/>
<path class="st0" d="M72.1,98.5c0.9-3,1.7-5.1,2-7.2c0.6-4,2.6-5.3,6.6-4c-1.9,6-4,12-5.8,18.1c-0.6,1.8-1.7,1.7-3.1,1.8
	c-1.5,0.1-2.3-0.5-2.7-1.9c-0.9-2.8-1.8-5.6-3-9.2c-1.2,3.4-2.3,6-3.1,8.7c-0.5,1.7-1.1,2.5-3,2.5c-1.9,0-2.6-0.7-3.1-2.4
	c-1.7-5.8-3.5-11.7-5.2-17.5c3.8-1.2,6.1-0.4,6.6,3.8c0.3,2.2,1.1,4.3,1.7,6.9c1.8-2.9,2.3-5.9,3.2-8.7c0.6-1.6,1.2-2.5,3.1-2.5
	c1.8,0,2.3,0.9,2.7,2.4C69.9,92.1,70.9,94.9,72.1,98.5z"/>
<path class="st0" d="M27.5,97.6c0.9-2.8,1.8-5.7,2.6-8.5c0.4-1.5,1.2-2.2,2.9-2.2c1.7,0,2.4,0.8,2.8,2.2c0.8,2.9,1.7,5.7,2.7,8.9
	c1.7-2.9,2.2-5.8,2.8-8.7c0.7-3.2,2.9-2.4,4.9-2.3c1.4,0.1,0.9,1.2,0.7,2c-1.7,5.4-3.5,10.9-5.2,16.3c-0.4,1.4-1.2,2-2.7,1.9
	c-1.4-0.1-2.6-0.1-3.1-1.9c-0.8-2.8-1.8-5.6-3-9.4c-1.2,3.6-2.2,6.2-3,8.8c-0.5,1.6-1.2,2.5-3.1,2.4c-1.8-0.1-2.6-0.7-3-2.5
	c-1.3-4.9-3-9.7-4.3-14.6c-0.3-1-1.9-2.7,0.5-3.1c1.8-0.3,4.1-0.9,4.7,2.1c0.6,2.9,1.4,5.7,2.2,8.5C27.1,97.6,27.3,97.6,27.5,97.6z"
	/>
<path class="st0" d="M93.9,97.5c0.9-2.8,1.9-5.6,2.7-8.5c0.4-1.5,1.2-2.1,2.9-2.2c1.8,0,2.4,0.8,2.8,2.3c0.8,2.9,1.8,5.7,2.9,9.4
	c0.9-3,1.9-5.2,2.2-7.6c0.6-4.1,2.8-4.8,6.5-3.6c-2,6.1-4,12.2-5.9,18.4c-0.5,1.7-1.8,1.3-3,1.4c-1.4,0.1-2.2-0.4-2.7-1.9
	c-0.8-2.9-1.8-5.6-3-9.4c-1.2,3.5-2.1,6.1-2.9,8.7c-0.5,1.7-1.2,2.6-3.3,2.7c-2.3,0-2.6-1.4-3.1-2.9c-1.4-4.8-2.9-9.5-4.2-14.3
	c-0.3-1-1.6-2.6,0.4-2.9c1.5-0.2,3.8-1.4,4.6,1.5c0.7,3,1.6,5.9,2.4,8.9C93.5,97.5,93.7,97.5,93.9,97.5z"/>
<path class="st11" d="M121.4,101c1.8,0.2,2.9,1.4,2.8,3.4c0,2.1-1.3,3.3-3.3,3.2c-2,0-3.2-1.5-3.1-3.5
	C117.9,102.2,119,100.9,121.4,101z"/>
<path class="st12" d="M247,174.8c0.6,11.3-9.6,22.8-22.8,22.6c-13.7-0.2-23.4-10.2-23.3-23.5c0.2-13.7,11.3-22.9,23.6-22.8
	C236.1,151.2,247.9,161.6,247,174.8z"/>
<path class="st13" d="M150.3,173.7c9.7,0.2,17.8,7.1,17.9,18.2c0.1,9.7-7.1,17.9-18.1,18.1c-11,0.2-18.4-8.3-18.4-18.4
	C131.8,181.6,140.1,173.6,150.3,173.7z"/>
<path class="st14" d="M224.2,161.6c7.3,0,12.6,5.4,12.5,12.8c-0.1,6.9-5.8,12.6-12.6,12.5c-6.9-0.1-12.6-5.8-12.6-12.6
	C211.4,167.2,217,161.6,224.2,161.6z"/>
<path class="st14" d="M149.9,201.7c-5.5,0-9.9-4.4-9.9-9.9c0-5.5,4.4-9.9,9.9-9.9c5.4,0,10,4.5,10,9.9
	C159.9,197.3,155.4,201.7,149.9,201.7z"/>
</svg>
