<?xml version="1.0" encoding="utf-8"?>
<!-- Generator: Adobe Illustrator 25.0.1, SVG Export Plug-In . SVG Version: 6.00 Build 0)  -->
<svg version="1.1" id="Layer_1" xmlns="http://www.w3.org/2000/svg" xmlns:xlink="http://www.w3.org/1999/xlink" x="0px" y="0px"
	 viewBox="0 0 384 384" style="enable-background:new 0 0 384 384;" xml:space="preserve">
<style type="text/css">
	.st0{fill:#FEFEFE;}
	.st1{fill:#33226E;}
	.st2{fill:#FECC7D;}
	.st3{fill:#FE777D;}
	.st4{fill:#43C2FE;}
	.st5{fill:#4DE1C8;}
</style>
<g>
	<path class="st0" d="M300.9,0.1c26.8,0,53.6,0,80.4-0.1c2.2,0,2.7,0.5,2.7,2.7c-0.1,126.2-0.1,252.4,0,378.6c0,2.2-0.4,2.7-2.7,2.7
		c-126.2-0.1-252.4-0.1-378.6,0c-2.2,0-2.7-0.4-2.7-2.7C0.1,255.1,0.1,128.9,0,2.7C0,0.5,0.4,0,2.7,0C29,0.1,55.3,0.1,81.6,0.1
		c0,1.9-1.8,1.9-2.9,2.4C71,5.9,67.1,11.9,66.9,20.3c-0.1,4.1-0.5,8.2,1,12.2c3,8.4,11.2,13.9,19.4,12.7c9.6-1.4,16.2-8.5,16.6-17.9
		c0.1-2.7,0.1-5.5,0-8.2c-0.2-7.9-5-14.3-12.4-17c-1.1-0.4-2.9-0.2-3-2.1c68.8,0,137.7,0,206.5,0c0.1,1.7-1.4,1.5-2.3,1.8
		c-8.4,3-13.1,9.5-13.1,18.4c0,2.4-0.1,4.7,0,7.1c0.4,9.8,8.2,17.7,18,18c9.1,0.3,17.7-7,18.7-16.5c0.5-4.5,0.8-9.2-0.5-13.7
		c-1.8-6.4-5.8-10.9-12.2-13.1C302.5,1.7,300.9,1.9,300.9,0.1z"/>
	<path class="st1" d="M88.4,0.1c8.1,2.2,14.2,6.7,15.9,15.3c1.1,5.5,1.2,11.2-0.2,16.6c-2.3,9-11.1,15.2-20.2,14.3
		c-9.6-0.9-17.3-8.5-17.9-18c-0.2-3.5-0.3-7,0-10.4c0.8-7.8,5-13.3,12.2-16.5c1.1-0.5,2.5-0.3,3.3-1.4C83.9,0.1,86.1,0.1,88.4,0.1z"
		/>
	<path class="st1" d="M300.9,0.1c8.2,2.3,14.3,6.9,15.9,15.7c1,5.3,1.1,10.7-0.2,15.9c-2.2,9.3-11.5,15.7-20.7,14.6
		c-9.8-1.2-17.3-9-17.5-18.7c-0.1-3.8-0.3-7.8,0.3-11.5c1.6-8.9,7.7-13.7,16.1-16C296.9,0.1,298.9,0.1,300.9,0.1z"/>
	<path class="st1" d="M329.4,199.5c0,16.6,0.7,33.2-0.1,49.8c-2.7,54.4-28.3,95.2-76.9,119.4c-78.2,39-165.3-3.7-191.7-82.7
		c-4.9-14.8-7.1-30-7-45.6c0.1-31.2,0-62.4,0-93.5c0-13.3,7.5-20.8,20.9-20.8c9.7,0,19.5,0,29.2,0c14.3,0,21.7,7.4,21.7,21.6
		c0,31.6-0.2,63.1,0.1,94.7c0.2,27,11.8,48,35.4,61.2c38.8,21.7,89-3.4,95.8-47.3c0.7-4.5,0.9-8.9,0.9-13.4c0-31.7,0-63.4,0-95
		c0-14.2,7.4-21.7,21.7-21.7c9.5,0,19,0.3,28.4-0.1c12.9-0.6,22.3,8,21.9,22c-0.6,17.2-0.1,34.4-0.1,51.6
		C329.5,199.5,329.4,199.5,329.4,199.5z"/>
	<path class="st1" d="M165.9,169.1c-3.2,0-6.5,0.1-9.7,0c-5.8-0.3-8.4-5.2-5-10c15.8-22.5,31.7-45,47.5-67.5c1.7-2.4,3.9-3.8,7-2.8
		c3.2,1.1,4.3,3.5,4.1,6.7c-0.8,15.2-1.6,30.4-2.6,45.5c-0.2,2.9,0.6,3.6,3.4,3.5c5.3-0.2,10.7,0,16.1-0.1c2.7,0,4.9,0.8,6.2,3.3
		c1.3,2.5,0.7,4.8-0.9,7c-15.6,21.4-31.2,42.9-46.8,64.3c-2,2.7-4.3,4.1-7.7,2.8c-3.3-1.4-4-4.1-3.7-7.4c1.5-13.7,2.8-27.5,4.4-41.2
		c0.3-3,0-4.6-3.7-4.2C171.7,169.4,168.7,169.1,165.9,169.1z"/>
	<path class="st1" d="M297.8,98c-12-0.1-23.5-2.6-34.6-6.9c-3-1.2-4.5-3.3-4.3-6.6c0.9-14.8,9.1-24.4,22.1-30.1
		c17.9-7.9,39.7-2,50.1,13.1c3.4,4.9,5.2,10.4,5.6,16.4c0.2,3.8-1.3,6.1-4.8,7.5C321,95.6,309.6,97.9,297.8,98z"/>
	<path class="st1" d="M85.4,98c-12-0.1-23.5-2.6-34.6-6.9c-3.2-1.2-4.5-3.5-4.4-7c0.3-12.9,9.5-25,23.4-30.4c17.8-7,38.9-1,49,13.9
		c3.4,4.9,5.2,10.4,5.5,16.4c0.2,3.6-1.4,5.9-4.7,7.2C108.7,95.6,97.3,97.9,85.4,98z"/>
	<path class="st0" d="M92.9,23.5c0,1.2,0.1,2.5,0,3.7c-0.3,4-3.4,7.1-7.2,7.2c-3.9,0.1-7.4-3-7.7-7.1c-0.2-2.7-0.2-5.5,0-8.2
		c0.3-4,3.6-7,7.4-7c4,0,7.2,3.1,7.5,7.3C92.9,20.7,92.9,22.1,92.9,23.5z"/>
	<path class="st0" d="M290.4,23.1c0-1.4-0.1-2.7,0-4.1c0.3-3.8,3.3-6.7,7-6.9c3.6-0.2,7.3,2.5,7.7,6.2c0.4,3.2,0.3,6.5,0,9.7
		c-0.4,3.7-3.9,6.5-7.5,6.4c-3.8-0.1-6.9-3.2-7.2-7.2C290.3,25.9,290.4,24.5,290.4,23.1z"/>
	<path class="st0" d="M317.5,220.3c-0.4,11.5,1,25.5-0.9,39.4c-6.5,47.3-31.4,81.8-75.1,100.9c-74,32.4-150.8-12-171.1-83.7
		c-3.3-11.7-4.8-23.6-4.8-35.8c0.1-20.1,0.1-40.1,0-60.2c0-2.7,0.6-3.6,3.5-3.5c13.7,0.2,27.4,0.2,41.1,0c3,0,3.4,1,3.4,3.6
		c-0.1,20.6-0.2,41.1,0,61.7c0.2,35.1,21.3,65.4,53.1,76.5c45.4,15.9,95.5-14.8,102.1-62.3c0.7-4.8,0.8-9.7,0.8-14.5
		c0-20.3,0.1-40.6-0.1-61c0-3,0.5-4.1,3.8-4c13.7,0.2,27.4,0.1,41.1,0c2.5,0,3.1,0.7,3.1,3.1C317.5,192.9,317.5,205.4,317.5,220.3z"
		/>
	<path class="st2" d="M89.9,165.4c-7.1,0-14.2-0.1-21.3,0.1c-2.3,0-3-0.7-2.9-3c0.1-5.7,0-11.5,0.1-17.2c0.1-4.5,2.4-7.2,6.8-7.2
		c11.3-0.2,22.7-0.2,34,0c4.3,0.1,6.9,2.8,7,7.2c0.2,6,0,11.9,0.1,17.9c0,2.3-1.2,2.3-2.9,2.2C103.8,165.4,96.8,165.4,89.9,165.4z"
		/>
	<path class="st2" d="M293.8,165.4c-7,0-13.9-0.1-20.9,0c-2.3,0-3.4-0.4-3.3-3c0.2-5.5,0-11,0.1-16.4c0.1-5.4,2.7-8,8.1-8
		c10.6-0.1,21.2-0.1,31.7,0c5.6,0,7.9,2.5,8,8c0.1,5.4-0.1,10.7,0.1,16.1c0.1,2.6-0.6,3.4-3.3,3.4
		C307.5,165.3,300.6,165.4,293.8,165.4z"/>
	<path class="st3" d="M167.1,157.1c10.1-14.2,19.6-27.7,29.7-42.1c-0.6,11.2-1,21.4-1.8,31.5c-0.6,7.5,1.3,9.9,8.7,9.9
		c3.8,0,7.6,0,12.2,0c-9.4,12.9-18.4,25.2-28,38.5c1-9.4,1.8-17.6,2.6-25.8c0.1-1.1,0.3-2.2,0.4-3.3c0.4-6.9-1.3-8.6-8.3-8.6
		C177.7,157.1,172.9,157.1,167.1,157.1z"/>
	<path class="st4" d="M296.7,86.1c-7-0.1-14.7-1.5-22.3-3.7c-3.1-0.9-3.3-2.3-2-4.8c4.1-8.5,11.2-12.9,20.1-14.3
		c10.6-1.7,20,0.9,27.4,9.1c1.6,1.8,2.7,3.9,3.7,6c1,2.2,0.3,3.1-1.8,3.8C313.9,84.6,305.9,86.1,296.7,86.1z"/>
	<path class="st5" d="M85.2,86.1c-8-0.1-15.8-1.5-23.5-3.8c-2.6-0.8-3-2-1.9-4.3c4.1-8.8,11.4-13.1,20.6-14.8
		c11.8-2.2,24.8,3.6,29.8,13.2c2.3,4.5,2.2,4.9-2.6,6.3C100.3,84.9,92.8,86.1,85.2,86.1z"/>
</g>
</svg>
