<?xml version="1.0" encoding="utf-8"?>
<!-- Generator: Adobe Illustrator 25.0.1, SVG Export Plug-In . SVG Version: 6.00 Build 0)  -->
<svg version="1.1" id="Layer_1" xmlns="http://www.w3.org/2000/svg" xmlns:xlink="http://www.w3.org/1999/xlink" x="0px" y="0px"
	 viewBox="0 0 468.9 468.9" style="enable-background:new 0 0 468.9 468.9;" xml:space="preserve">
<style type="text/css">
	.st0{fill:#FEFEFE;}
	.st1{fill:#083863;}
	.st2{fill:#214C73;}
	.st3{fill:#6C89A2;}
	.st4{fill:#093863;}
	.st5{fill:#00ABE9;}
	.st6{fill:#00EED0;}
</style>
<g>
	<path class="st0" d="M0.1,358.3c0-25.6,0-51.2,0-76.8c2.6,0.4,2.1,2.7,2.4,4.2c2.4,10.5,4.5,21.1,6.8,31.7c1.7,7.7,4.5,9.6,12.3,8
		c9.7-1.9,19.3-4.2,29-6.1c3-0.6,4.2-1.8,3.3-5c-2.8-10.1,0.3-9.7-11.2-7.3c-3.3,0.7-6.5,1.6-9.8,2c-4.2,0.6-5-0.4-3.6-4.5
		c3.4-10.1,7.7-19.9,12.5-29.4c17.9-36.1,40.3-69.1,66.5-99.6c8.4-9.8,17.3-19.2,26.2-28.6c2.4-2.5,2.7-4.3,0.1-6.8
		c-6.3-5.9-5.5-7.5-12.6,0.2C108.3,155,95,169.8,82.6,185.5c-21.7,27.3-40,56.7-55.3,88c-2.1,4.2-3.6,8.7-5.6,13
		c-0.6,1.3-1.1,3.3-2.9,3.2c-1.8-0.1-2-2.1-2.3-3.5c-1.5-8.9-1.1-8.4-10.8-6.3c-1.9,0.4-3.8,1.5-5.7,0c0-91.9,0-183.9-0.1-275.8
		C0,0.9,0.3,0,3.6,0c153.9,0.1,307.8,0.1,461.8,0c2.8,0,3.5,0.6,3.5,3.5c-0.1,153.9-0.1,307.8,0,461.7c0,3.2-0.8,3.7-3.8,3.7
		c-56.9-0.1-113.9-0.1-170.8-0.1c0.1-2.4,2.3-2.1,3.7-2.6c10.2-3.1,20.5-5.9,30.7-8.8c6.8-1.9,8.6-5,6.7-11.9
		c-2.7-9.5-5.7-18.9-8.2-28.5c-0.9-3.5-2.4-4.7-6.1-3.6c-10.1,3.1-8.3,2.2-6.1,10.6c1,3.7,2.1,7.3,3.2,11c1.1,3.8,0,4.9-3.8,3.7
		c-10.1-3-19.8-7-29.4-11.3c-40-18-76-42.2-109.3-70.5c-8.5-7.2-16.4-14.9-24.8-22.3c-2.5-2.2-4-2.4-6.4,0
		c-6.2,6.2-6.4,6.2-0.2,12.1c26.4,25.1,54.8,47.7,85.9,66.8c20.8,12.8,42.5,23.8,65.1,32.8c0.8,0.3,1.7,0.6,2.5,1.1
		c1.2,0.6,2.8,1.1,2.7,2.7c-0.1,1.4-1.8,1.4-2.8,1.9c-2.9,1.3-7,0.8-8.5,3.7c-1.5,2.9,1.2,6.1,1.7,9.2c0.2,1.3,0.9,2.7-0.2,3.9
		c-95.5,0-191,0-286.6,0.1c-3.6,0-4.1-1.1-4.1-4.3c0.1-25.4,0.1-50.8,0.1-76.2c3.3,1,2.6,4.1,3,6.4c2.3,13.2,6.8,25.5,14.7,36.5
		c8.8,12.4,20.5,21.1,34.5,26.7c15.1,6.1,30.8,7.8,46.9,7c3.5-0.2,4.7-1.5,4.1-5.2c-1.2-8-1-8.2-9.1-8c-14.5,0.2-28.5-2-41.7-8.3
		c-18-8.7-28.9-23.3-34.3-42.2c-4.1-14.3-3.5-28.9-2.4-43.5c0.7-9.9,2.2-8.5-8.4-10.5c-2.6-0.5-3.8,0.5-4.4,3.1
		C2.3,353.1,3.7,356.6,0.1,358.3z"/>
	<path class="st1" d="M290.7,468.8c-1-3.8-1.8-7.7-3.1-11.4c-1-2.8-0.2-3.7,2.5-4.3c3.4-0.7,6.7-1.9,10-2.9
		c-0.5-1.2-1.6-1.4-2.6-1.7c-49.5-19.1-93.3-47.6-133.3-82c-8.8-7.5-17.1-15.6-25.8-23.2c-1.6-1.5-1.8-2.4-0.1-3.9
		c3.1-2.9,5.8-7.9,9.2-8.4c3.4-0.5,6.4,4.8,9.4,7.6c35.1,32.8,73.5,60.9,116.6,82.3c14.1,7,28.8,12.8,44.5,17.8
		c-2-7-3.6-13.6-5.7-20c-1.1-3.1,0-4.1,2.7-4.6c3.9-0.7,8.2-4.1,11.2-2.4c3,1.7,2.7,7,3.8,10.8c2.4,7.9,4.6,15.8,6.8,23.7
		c1.8,6.7,0,10.1-6.6,12.1c-11.9,3.6-23.8,7.1-35.7,10.6C293.1,468.8,291.9,468.8,290.7,468.8z"/>
	<path class="st1" d="M0.1,279.7c3.9-0.8,7.8-1.5,11.6-2.5c2.9-0.8,4.5-0.4,4.9,3c0.3,3,1.2,5.9,2,9.3c2-2.3,2.6-4.9,3.6-7.2
		c17-38.5,39.8-73.4,66.3-106c11.6-14.3,24.1-27.8,36.8-41.2c2.2-2.3,3.5-2.6,5.6,0c2.5,3.1,7.6,5.3,7.5,8.6
		c-0.1,2.8-4.6,5.6-7.2,8.3c-32.2,33.7-60.3,70.5-82.3,111.7c-7.4,13.8-13.7,28.1-19.2,42.8c-0.2,0.5-0.2,1.1-0.4,2.2
		c6.7-1.4,13.1-2.7,19.4-4.2c2.9-0.7,4.5-0.5,5.2,3.1c2.4,11.8,2.6,11.7-9.3,14.2c-7.9,1.6-15.7,3.4-23.6,5.1
		c-7.3,1.6-10.9-0.7-12.5-8.1c-2.8-12.4-4.8-25-8.3-37.3C0.1,280.9,0.1,280.3,0.1,279.7z"/>
	<path class="st1" d="M0.1,358.3c1.8-2.8,1.5-6,1.8-9.1c0.3-3.1,1.3-4.4,4.6-3.4c3.8,1.1,9.4-0.1,11.1,2.7c1.6,2.7-0.5,7.5-0.7,11.5
		c-1.6,22.4-0.5,44.3,13.3,63.3c11.8,16.3,28.7,23.7,48.1,26.5c7.4,1,14.9,1.1,22.3,0.8c2.5-0.1,3.6,0.6,3.6,3.2
		c0.1,3.2,0.4,6.4,0.8,9.5c0.3,2,0,3-2.4,3.1c-23.3,1.2-45.5-1.7-65.5-14.8c-20.3-13.4-31-32.8-35.1-56.3c-0.4-2.3-0.1-4.8-1.8-6.7
		c0-3.4,0-6.7,0-10.1c0.7-3.4,0.7-6.7,0-10.1c0-1.2,0-2.4,0-3.7c0.7-0.9,0.7-1.8,0-2.7C0.1,360.7,0.1,359.5,0.1,358.3z"/>
	<path class="st2" d="M0.1,368.3c1.5,3.4,1.5,6.7,0,10.1C0.1,375,0.1,371.7,0.1,368.3z"/>
	<path class="st3" d="M0.1,361.9c1.3,0.9,1.1,1.8,0,2.7C0.1,363.8,0.1,362.8,0.1,361.9z"/>
	<path class="st1" d="M165.3,235.5c0-19.8,0.4-39.6-0.1-59.4c-0.3-10.5,4.5-17.3,13-22.2c9.9-5.7,20.9-8.4,32-9.9
		c22.7-3,45.2-2.5,67.3,4.4c7.4,2.3,14.5,5.4,20.2,11c3.9,3.8,6,8.3,6,13.8c0,41.4-0.1,82.8,0,124.2c0,8.8-4.7,14.5-11.6,18.9
		c-9.5,6.1-20.2,8.9-31.3,10.5c-23.8,3.6-47.3,3.1-70.4-4.1c-4.7-1.4-9.1-3.4-13.3-5.9c-7.8-4.8-12.1-11.3-11.9-21
		C165.6,275.7,165.3,255.6,165.3,235.5z"/>
	<path class="st1" d="M243.4,53.8c0.2-0.4,0.4-0.6,0.3-0.6c-0.9-2.6-4.1-4.9-3.2-7.1c1.1-2.6,4.9-3.2,7.5-4.7
		c3.6-2,7.3-3.8,10.8-5.8c1.9-1.1,2.7-0.8,3.8,1.2c6.5,11.4,6.5,11.4-5.1,17.6c-2.3,1.2-4.5,2.5-7.1,3.9c6.9,4.9,13.6,9.5,20.2,14.3
		c22.6,16.4,43.5,34.8,63.6,54.1c2.7,2.6,2.4,4-0.1,6.2c-2.8,2.5-5.4,5.4-8.1,8.2C277.9,93.7,224.9,54.2,160.8,30.3
		c1.5,7,2.8,13.5,4.3,19.9c0.8,3.2,0.3,4.7-3.3,5.1c-3.7,0.4-8.3,3-10.9,1.6c-2.7-1.4-2.1-6.8-2.9-10.5c-1.7-7.7-3.3-15.4-5-23.2
		c-1.8-8.4,0.1-11.5,8.4-13.4c11.7-2.6,23.5-5,35.2-7.7c2.4-0.5,3.6-0.3,4,2.4c0.6,3.9,3.1,8.3,1.9,11.4c-1.3,3.5-6.9,2.2-10.5,3.5
		c-0.6,0.2-1.1,0.5-2.1,1C202.5,29.7,223.2,41.2,243.4,53.8z"/>
	<path class="st1" d="M436.7,151.8c-7,2-13.6,3.7-20.1,5.8c-2.3,0.7-3.2,0.5-3.8-2c-0.9-4.1-3.9-8.9-2.6-12c1-2.4,7.2-2.7,11.1-3.9
		c7.7-2.3,15.4-4.5,23.2-6.7c6.6-1.8,10.3,0.2,12.2,6.6c3.5,12,6.7,24,10.3,35.9c0.9,2.9,0,3.7-2.6,4.2c-3,0.6-6,1.3-8.8,2.5
		c-3,1.3-3.6-0.2-4.2-2.5c-0.9-3.4-1.9-6.7-3.1-11c-1.2,2.8-2,4.8-2.8,6.8c-17.9,45.8-44.2,86.4-75.6,124
		c-8.9,10.7-18.4,20.7-27.6,31c-2.2,2.5-3.6,2.4-5.6,0c-2.5-3-7.6-5.1-7.5-8.5c0.1-2.9,4.5-5.8,7-8.5
		c29.7-31.6,55.5-66.1,76.3-104.3C421.8,192.5,434.3,163.4,436.7,151.8z"/>
	<path class="st1" d="M369.4,4.6c19.4,0.2,38.7,3.7,56,15.2c15.5,10.2,25.6,24.4,31.4,41.8c6.5,19.5,6.5,39.4,3.8,59.6
		c-0.3,2.1-0.8,3-3.1,2.5c-3.4-0.7-6.9-1.3-10.4-1.6c-2.5-0.3-2.6-1.3-2.3-3.6c2.1-16.4,2.5-32.7-2.2-48.8
		c-8.1-27.6-27.1-42.8-54.9-47.5c-26.8-4.5-52.6,1-78,9.3c-7.8,2.5-15.4,5.7-23,8.8c-2.3,0.9-3.4,0.7-4.3-1.8
		c-1.4-3.8-5-8.1-4.1-11.2c1-3.2,6.8-3.7,10.6-5.2C314.5,11.9,340.8,5,369.4,4.6z"/>
	<path class="st1" d="M368.1,463.6c-4.3-0.1-11.9-0.3-19.4-1.5c-2-0.3-3.3-0.7-2.6-3.4c0.8-2.9,1.1-6,1.4-9c0.2-3.2,1.5-3.8,4.7-3.4
		c15.8,2.3,31.5,2.4,47.1-2c28.5-8,44-27.4,48.5-55.9c4.2-26.4-1.1-51.8-9.3-76.7c-2.6-7.9-5.8-15.7-8.9-23.4
		c-0.9-2.3-0.8-3.4,1.7-4.3c3.9-1.4,8.1-5.1,11.2-4.2c3.2,0.9,3.6,6.8,5.1,10.5c10.3,25.9,17.5,52.5,17.5,80.6
		c0,19.9-3.8,38.9-15,56c-9.8,14.9-23.4,25-40.1,30.9C397.5,462.2,384.5,463.8,368.1,463.6z"/>
	<path class="st1" d="M19.1,93.7c0,2.1-0.4,4.3,0.1,6.4c0.9,4.5-1.1,5.9-5.2,5.8c-1.5-0.1-3,0.2-4.6,0.3c-6,0.4-6.2,0.4-6.4-5.5
		C2.5,79.1,5.6,58.5,17.3,39.9C28.5,22.1,44.6,11.1,64.6,5.7c18.8-5.1,37.9-4.8,57.1-2c2.6,0.4,3,1.4,2.4,3.6
		c-0.4,1.8-0.6,3.6-1,5.4c-1.4,7.5-1.4,7.4-9.1,6.3c-15.8-2.1-31.6-2.1-47,2.7c-27.7,8.5-42.1,28.3-46.7,56.2
		C19.3,83.1,19,88.4,19.1,93.7z"/>
	<path class="st1" d="M161.1,101.8c0.3,0.1,0.6,0.1,0.8,0.3c3.1,3.6,6.2,7.1,9.2,10.7c1,1.3-0.5,1.8-1.2,2.5
		c-5.8,5.3-11.7,10.6-17.5,15.9c-1.7,1.6-2.8,1.8-4.4-0.1c-2.7-3.2-7.7-6.1-7.9-9.4c-0.2-3.1,5.3-5.6,8.3-8.4
		c3.6-3.3,7.2-6.5,10.8-9.8C159.8,103,160.4,102.4,161.1,101.8z"/>
	<path class="st1" d="M404.6,210.7c-0.2,0.3-0.3,0.8-0.5,1.1c-0.4,0.4-0.9,0.8-1.5,1.1c-3.6,2.1-6.9,6.9-10.6,6.3
		c-3.4-0.5-5.1-6-7.5-9.2c-2.8-3.8-5.4-7.7-8.3-11.4c-1.3-1.7-1.3-2.6,0.6-3.9c3.5-2.4,6.9-7.2,10.2-7c3.4,0.1,5.2,6.1,7.7,9.4
		c2.9,3.7,5.5,7.6,8.3,11.4C403.5,209.1,404.1,209.8,404.6,210.7z"/>
	<path class="st1" d="M303.4,367.4c-0.5-0.7-0.9-1.4-1.3-2c-2.7-3.3-7.3-6.3-7.7-9.8c-0.4-3.6,5.3-5.7,8.2-8.7
		c3.4-3.5,7.2-6.5,10.6-9.9c1.4-1.4,2.3-1.4,3.6,0.1c2.9,3.3,8,6.2,8.3,9.7c0.3,3.1-5.4,5.9-8.4,8.8c-3.5,3.3-7.2,6.5-10.8,9.8
		C305.3,366,304.6,366.5,303.4,367.4z"/>
	<path class="st1" d="M194.6,95.1c-0.5-0.7-1-1.5-1.5-2.2c-2.5-3.4-6.9-6.8-6.9-10.2c0-3.2,5.8-5,9-7.5c3.7-2.9,7.7-5.4,11.4-8.3
		c2.2-1.7,3.6-2.2,5.1,0.7c1.5,2.8,3.4,5.4,5.3,7.9c1.2,1.6,1.4,2.6-0.5,4c-6.6,4.6-13.1,9.4-19.6,14.1
		C196.3,93.9,195.7,94.3,194.6,95.1z"/>
	<path class="st1" d="M122.8,327.4c-0.6-0.6-1.2-1.1-1.7-1.6c-5.7-6.2-11.3-12.3-17-18.4c-1.3-1.4-1.4-2.2,0.1-3.6
		c9.4-9.5,9.4-9.6,18.3,0.1c3.4,3.7,6.8,7.4,10.2,11c1,1.1,1.8,1.8,0.2,3.2c-3,2.6-5.7,5.4-8.6,8.1
		C123.9,326.6,123.4,326.9,122.8,327.4z"/>
	<path class="st1" d="M280.1,387.1c-0.4,0.2-1.1,0.5-1.7,0.9c-6.9,5-13.8,10-20.5,15c-1.7,1.3-2.5,0.8-3.6-0.8c-2-3.1-4-6.1-6.2-9
		c-1.3-1.7-0.7-2.5,0.7-3.5c6.6-4.8,13.2-9.6,19.8-14.5c0.9-0.6,1.8-1.4,2.7-0.2c2.7,3.4,5.4,6.9,8.1,10.4
		C279.7,385.7,279.7,386,280.1,387.1z"/>
	<path class="st1" d="M215.2,428.6c0,1.2-1,1.5-1.7,1.8c-7.6,3.8-15.2,7.6-22.8,11.4c-1.7,0.9-2.5,0.7-3.5-1.1
		c-6.5-11.8-6.6-11.7,5.4-17.5c4.2-2,8.4-4.1,12.5-6.5c2.3-1.3,3.3-0.9,4.4,1.4C211.2,421.8,213.3,425.2,215.2,428.6z"/>
	<path class="st1" d="M40.1,183.7c1.6-0.1,1.8,1.1,2.2,2.1c3.6,7.2,7.1,14.4,10.8,21.5c1,1.9,0.5,2.6-1.2,3.4
		c-3.2,1.6-6.4,3.4-9.6,5.2c-1.5,0.9-2.3,1-3.2-0.8c-3.8-7.7-7.7-15.4-11.6-23.1c-0.4-0.7-1.2-1.9-0.2-2.4
		C31.7,187.5,36,185.6,40.1,183.7z"/>
	<path class="st1" d="M368,163.1c-1,0.9-1.8,1.7-2.7,2.4c-3,2.5-6.3,7-9.1,6.8c-2.9-0.2-5.5-5.1-8.2-8c-3.3-3.6-6.5-7.3-9.8-10.8
		c-1.4-1.5-1.6-2.5,0.1-4c3.2-2.7,6.1-7.9,9.4-8.1c3.3-0.2,5.9,5.4,8.7,8.5c3.3,3.5,6.5,7.2,9.8,10.8
		C366.8,161.5,367.3,162.2,368,163.1z"/>
	<path class="st1" d="M83.1,281.5c-0.4-0.5-1-0.9-1.4-1.5c-5-6.9-10-13.8-15.1-20.6c-1.3-1.7-0.8-2.6,0.7-3.6c3-2,6.1-4,9-6.2
		c1.7-1.3,2.5-0.7,3.5,0.8c4.8,6.7,9.6,13.3,14.5,19.9c0.6,0.9,1.5,1.7,0.2,2.7c-3.5,2.7-6.9,5.4-10.4,8.1
		C83.9,281.2,83.6,281.3,83.1,281.5z"/>
	<path class="st4" d="M16.8,160.9c-1.8,0.1-1.9-1-2.2-2.1c-2-6.8-3.9-13.7-6-20.5c-0.5-1.8,0-2.6,1.7-2.9c0.3-0.1,0.6-0.1,0.9-0.2
		c4-0.9,8.8-3.5,11.7-2.1c3.1,1.4,2.5,7.3,3.7,11.1c1,3.2,2,6.3,3,9.5c0.3,0.9,1.3,2.1-0.3,2.7C25.1,158.1,20.8,159.5,16.8,160.9z"
		/>
	<path class="st4" d="M135.9,461.3c-0.9,0.3-1.4-0.1-1.6-1c-0.2-0.7-0.5-1.4-0.6-2.2c-0.9-3.8-3.4-8.5-2-11.3c1.4-3,7-2.5,10.7-3.6
		c2.9-0.9,5.9-1.5,8.6-2.8c3.2-1.4,4.4-0.2,5,2.7c0.1,0.3,0.2,0.6,0.3,0.9c0.8,3.5,4.3,7.5,2.6,10c-1.6,2.4-6.4,2.8-9.8,3.8
		C144.7,459,140.3,460.1,135.9,461.3z"/>
	<path class="st4" d="M435,262.1c0.1,1.4-1.2,1.6-2,2c-11.4,6.5-11.5,6.5-17.6-5.1c-1.6-3-5.1-6.3-4.1-9.1c0.9-2.4,5.5-3.3,8.1-5.3
		c3.7-2.8,5.7-2.1,7.5,2.1c1.9,4.5,4.5,8.6,6.8,12.9C434.2,260.5,434.6,261.3,435,262.1z"/>
	<path class="st5" d="M234.9,312.8c-15.8,0-30.9-1.4-45.1-7.5c-7.7-3.3-8.7-4.7-8.7-12.9c0-4.1,0.1-8.2,0-12.3c0-2.2,0.2-3.6,3-2.3
		c15.9,7.1,32.9,8.7,49.9,8.8c17,0.1,34-1.7,49.9-8.4c2.9-1.2,4.3-1.3,4.1,2.6c-0.3,5-0.2,10,0,15c0.1,2.9-1,4.8-3.5,6.4
		c-9,5.9-19.3,7.8-29.7,9.4C248,312.7,241.1,312.6,234.9,312.8z"/>
	<path class="st5" d="M287.9,193c0,6.9,0,13.4,0,20c0,2.9-2.3,4.2-4.3,5.5c-8.6,5.4-18.3,7.5-28.1,8.8c-20.1,2.6-40,2.2-59.5-3.9
		c-1.7-0.5-3.4-1.2-5.1-1.8c-6.8-2.5-11.2-6.4-9.8-14.6c0.6-3.6,0.2-7.3,0.1-10.9c-0.1-2.6,0.7-3.2,3.1-2.1
		c15.9,7.1,32.9,8.7,49.9,8.7c17.7,0,35.2-1.9,51.7-9.1C286.2,193.2,286.7,193.2,287.9,193z"/>
	<path class="st6" d="M181.1,234.5c17,7.9,34.4,9.9,51.9,10c17.2,0.1,34.4-1.5,50.5-8.3c3.8-1.6,4.6-0.8,4.4,3
		c-0.3,4.4-0.3,8.8,0,13.2c0.3,4-1.5,6.3-4.6,8.1c-8.4,5-17.7,7.2-27.2,8.5c-20.4,2.7-40.6,2.4-60.5-3.9c-1.4-0.5-2.8-1.1-4.3-1.5
		c-7.6-2.5-11.6-7-10.4-15.6C181.6,243.9,181.1,239.6,181.1,234.5z"/>
	<path class="st6" d="M234.7,186.6c-15.8-0.1-30.7-1.6-44.8-7.6c-3.4-1.5-8.5-2.8-8.5-6.6c0-3.8,5-5.2,8.5-6.6
		c18-7.3,36.9-8.4,56-7.1c11.2,0.8,22.4,2.6,32.7,7.3c3.3,1.5,8.1,2.7,8.1,6.5c0,3.7-4.8,5-8.1,6.4
		C264.4,185,249.3,186.4,234.7,186.6z"/>
</g>
</svg>
