<?xml version="1.0" encoding="utf-8"?>
<!-- Generator: Adobe Illustrator 25.0.1, SVG Export Plug-In . SVG Version: 6.00 Build 0)  -->
<svg version="1.1" id="Layer_1" xmlns="http://www.w3.org/2000/svg" xmlns:xlink="http://www.w3.org/1999/xlink" x="0px" y="0px"
	 viewBox="0 0 384 384" style="enable-background:new 0 0 384 384;" xml:space="preserve">
<style type="text/css">
	.st0{fill:#FEFEFE;}
	.st1{fill:#A8B5BC;}
	.st2{fill:#93A3AC;}
	.st3{fill:#F4BF43;}
	.st4{fill:#6AAAEF;}
	.st5{fill:#4595EB;}
	.st6{fill:#BEC7CD;}
	.st7{fill:#F2F2F2;}
</style>
<g>
	<path class="st0" d="M0.1,192c0-63,0-126-0.1-188.9C0,0.5,0.5,0,3.1,0C129,0.1,255,0.1,380.9,0c2.6,0,3.1,0.5,3.1,3.1
		c-0.1,126-0.1,251.9,0,377.9c0,2.6-0.5,3.1-3.1,3.1c-126-0.1-251.9-0.1-377.9,0c-2.6,0-3.1-0.5-3.1-3.1C0.1,318,0.1,255,0.1,192z"
		/>
	<path d="M115.7,203.6c22.2,0,44.4-0.1,66.6,0.1c2.8,0,3.5-0.7,3.4-3.5c-0.2-8.6,0-8.6-8.7-8.6c-22.3,0-44.6,0-67,0
		c-6.4,0-8.2-1.9-8.2-8.2c0-29.9-0.1-59.9,0.1-89.8c0-3.1-0.7-3.9-3.8-3.8c-17.6,0.2-35.2,0.2-52.7,0c-2.8,0-3.9,0.6-3.4,3.4
		c0.1,0.6,0,1.2,0,1.9c-0.2,4.4-0.2,8,4.9,10.9c6.9,3.9,8.7,12.8,5.9,20.2c-2.8,7.5-10.2,12.1-18.3,11.5
		c-7.9-0.6-14.3-6.4-16.1-14.4c-1.6-7.3,2-15.4,8.8-19c2.3-1.2,3-2.4,2.9-4.8c-0.2-4.7-0.1-9.5,0-14.2c0-5.4,2.1-7.4,7.5-7.4
		c20.3,0,40.7-0.1,61,0.1c2.8,0,3.5-0.6,3.5-3.4c-0.2-8.6,0-8.6-8.7-8.6c-10.6,0-21.2,0-31.8,0c-5.4,0-7.4-2.1-7.5-7.5
		c0-5-0.1-10,0-15c0.1-1.9-0.5-2.8-2.2-3.7c-7.8-4.1-11.3-12.2-9.2-20.4C44.8,11.2,52,5.8,60.6,6c8.2,0.2,15,6,16.9,14.3
		c1.7,7.5-1.9,15.5-9,19.2c-2.1,1.1-2.8,2.3-2.6,4.5c0.2,2.2,0.2,4.5,0,6.7c-0.3,2.8,0.8,3.2,3.3,3.2c9.7-0.1,19.5-0.2,29.2,0
		c3.1,0.1,3.8-1,3.5-3.7c-0.2-2.4-0.1-4.7,0-7.1c0.1-5.1,2.2-7.1,7.4-7.2c0.5,0,1,0,1.5,0c54,0,108,0,162,0c7.1,0,8.7,1.7,8.8,8.8
		c0,3-1.3,7,0.6,8.6c1.8,1.5,5.7,0.6,8.6,0.6c8,0,16-0.1,23.9,0.1c2.4,0.1,3.1-0.7,2.8-2.9c-0.1-0.7-0.1-1.5,0-2.2
		c0.4-4.7-0.2-8.2-5.1-11.1c-6.8-4.1-8.5-13-5.6-20.3c2.9-7.5,10.2-11.9,18.4-11.3c7.7,0.6,14.3,6.5,16,14.5
		c1.5,7.3-2.1,15.4-9,18.9c-2.3,1.2-2.8,2.5-2.7,4.8c0.1,4.6,0.1,9.2,0,13.8c0,5.6-2,7.7-7.6,7.7c-12.3,0-24.7,0.1-37-0.1
		c-2.5,0-3.4,0.5-3.3,3.2c0.1,8.8,0,8.8,8.8,8.8c18.3,0,36.7,0,55,0c6.2,0,8.1,1.9,8.1,8c0,4.7,0.1,9.5,0,14.2c-0.1,1.9,0.4,3,2.3,4
		c7.6,4,11.2,12,9.1,20.1c-2.1,8.2-9.1,13.6-17.4,13.6c-8.3,0-15.3-5.5-17.3-13.8c-2-8,1.6-16,9.3-20.1c1.7-0.9,2.3-1.8,2.2-3.7
		c-0.2-3.3,1.1-7.7-0.6-9.8c-1.7-2.1-6.3-0.6-9.6-0.7c-15.5-0.1-30.9,0.1-46.4-0.1c-2.9,0-3.4,0.8-3.4,3.5
		c0.1,30.1,0.1,60.1,0.1,90.2c0,6.3-1.9,8.2-8.2,8.2c-24.1,0-48.1,0.1-72.2-0.1c-2.8,0-3.5,0.7-3.4,3.5c0.2,8.6,0,8.6,8.7,8.6
		c42.1,0,84.3,0,126.4,0c6.9,0,8.6,1.7,8.6,8.6c0,6.2-0.1,12.5,0,18.7c0,2.1-0.5,2.7-2.7,2.7c-9.4,0.1-9.3,0.2-9.4-9
		c0-2.9,1-6.6-0.4-8.3c-1.7-2-5.6-0.6-8.5-0.6c-39.7,0-79.3,0-119-0.1c-3.1,0-4.1,0.7-3.8,3.8c0.3,4,0,8,0.1,12
		c0.1,1.8-0.5,2.2-2.3,2.3c-9.7,0.4-9.7,0.4-9.7-9.1c0-2.8,1-6.6-0.5-8.3c-1.7-2-5.6-0.6-8.5-0.6c-39.7,0-79.3,0-119-0.1
		c-3.2,0-4,0.8-3.8,3.9c0.3,4,0,8,0.1,12c0.1,1.9-0.6,2.2-2.3,2.3c-9.7,0.3-9.7,0.4-9.7-9.1c0-4.5,0-9,0-13.5c0-5.3,2.1-7.4,7.5-7.4
		C71.5,203.6,93.6,203.6,115.7,203.6z"/>
	<path d="M293.4,311.4c0-15.3,0-30.7,0-46c0-12.6,7.3-19.8,20-19.8c14.7,0,29.4,0,44.1,0c12.2,0,19.6,7.3,19.6,19.4
		c0,30.9,0,61.9,0,92.8c0,12-7.4,19.4-19.3,19.5c-15.1,0-30.2,0-45.3,0c-11.9,0-19.3-7.5-19.3-19.4
		C293.4,342.3,293.4,326.8,293.4,311.4z"/>
	<path d="M233.5,311.3c0,15.3,0,30.7,0,46c0,12.5-7.3,19.8-19.6,19.8c-15,0-29.9,0-44.9,0c-11.7,0-19.2-7.5-19.3-19.1
		c0-31.2,0-62.4,0-93.5c0-11.6,7.6-19.1,19.3-19.1c15.1,0,30.2,0,45.3,0c11.9,0,19.2,7.5,19.3,19.5
		C233.5,280.4,233.5,295.9,233.5,311.3z"/>
	<path d="M89.9,311.3c0,15.3,0,30.7,0,46c0,12.5-7.3,19.8-19.6,19.8c-15,0-29.9,0-44.9,0c-11.7,0-19.2-7.5-19.3-19.1
		c0-31.2,0-62.4,0-93.5c0-11.6,7.6-19.1,19.3-19.1c15.1,0,30.2,0,45.3,0c11.9,0,19.2,7.5,19.3,19.5
		C89.9,280.4,89.9,295.9,89.9,311.3z"/>
	<path class="st1" d="M245.5,107.7c-15.6,0-31.2,0.1-46.7,0.1c-27.2,0-54.3,0-81.5,0.1c-2.8,0-3.5-0.6-3.5-3.4
		c0.1-17.8,0.1-35.6,0-53.5c0-2,0.1-3.1,2.7-3.1C159.2,48,202,48,244.7,48c0.2,0,0.5,0.1,0.7,0.1c1.1,1,1.2,2.4,1.2,3.8
		c0.1,9.4,0.1,18.9,0,28.3c0,1.2-0.1,2.5-0.8,3.6c-1.4,1.4-3.2,1.2-4.9,1.3c-4.8,0.1-9.7-0.1-14.5,0.1c-3.4,0.1-3.8,0.6-3.8,4.8
		c0,4.2,0.3,4.7,3.8,4.8c4.7,0.1,9.4,0,14.2,0c1.7,0,3.5-0.1,5,1C247,99.7,247.5,103.7,245.5,107.7z"/>
	<path class="st2" d="M245.5,119.9c7.2,0,14.4,0,21.7-0.2c1.8,0,2.3,0.5,2.3,2.3c-0.1,18.4-0.1,36.9,0,55.3c0,1.8-0.6,2.5-2.4,2.3
		c-0.5-0.1-1,0-1.5,0c-49.3,0-98.7,0-148,0.1c-3.1,0-4-0.7-3.9-3.9c0.3-8.7,0.2-17.4,0.2-26.2c3.6-2,7.4-1.1,11.1-0.7
		c1.7,0.7,1.6,2.4,2,3.8c2.3,8.5,8.9,13.9,16.8,13.9c7.8,0,14.3-5.5,16.7-14c0.4-1.3,0.3-2.8,1.7-3.6c3.6-0.8,7.2-0.7,10.8-0.1
		c1.6,0.8,1.5,2.4,1.9,3.8c2.3,8.4,9,13.9,16.9,13.8c7.7-0.1,14.2-5.6,16.5-13.8c0.4-1.3,0.3-2.8,1.6-3.7c4.1-1.2,8.4-0.7,12.6-0.5
		c6.7,0.3,12.8-0.8,17.9-5.6c3.8-1,7.7-0.4,11.5-0.5c4.3-0.1,4.5-0.3,4.5-4.8c0-4.6-0.2-4.8-4.4-5c-2.3-0.1-4.8,0.5-6.8-1.1
		C244,127.8,243.6,123.8,245.5,119.9z"/>
	<path class="st1" d="M125.7,149.7c-3.9,0-7.8,0-11.7,0c0-9,0-17.9-0.2-26.9c-0.1-2.5,0.7-3.1,3.1-3.1c14.1,0.1,28.2,0,42.3,0.1
		c28.8,0,57.6,0.1,86.4,0.1c0,3.9,0,7.8,0,11.7c-1.3,1.5-3.2,1.2-4.9,1.2c-4.7,0.1-9.4-0.1-14.1,0.1c-3.5,0.1-3.8,0.6-3.8,4.8
		c0,4.3,0.3,4.7,3.8,4.8c3.1,0.1,6.2,0,9.3,0.1c1.6,0,3.3-0.2,4.5,1.2c-3,4.3-7.4,5.7-12.3,5.8c-6.1,0.2-12.2,0-18.3,0
		c-1.3-1-1.2-2.7-1.6-4.1c-2.4-7.8-8.8-12.9-16.4-12.9c-7.5,0-14.1,5.2-16.5,12.9c-0.4,1.4-0.3,3-1.6,4.1c-3.9,0-7.8,0-11.7,0
		c-1.3-1-1.2-2.7-1.6-4.1c-2.4-7.8-8.8-12.9-16.4-12.9c-7.5,0-14.1,5.2-16.5,12.9C126.9,147,127,148.7,125.7,149.7z"/>
	<path class="st2" d="M245.5,107.7c0-3.9,0-7.8,0-11.7c2.1-1.9,4.7-1.1,7.1-1.2c3.6-0.2,3.8-0.5,3.8-5.1c0-4.2-0.3-4.5-3.8-4.7
		c-2.4-0.2-5,0.7-7.1-1.2c0-11.9,0-23.8,0-35.7c7.2,0,14.4,0,21.7-0.2c1.8,0,2.3,0.5,2.3,2.3c-0.1,18.4-0.1,36.9,0,55.3
		c0,1.8-0.6,2.3-2.3,2.3C259.9,107.7,252.7,107.7,245.5,107.7z"/>
	<path class="st3" d="M347.4,125.8c-3.2,0.1-6-2.5-6.1-5.7c-0.1-3.2,2.4-6,5.6-6.2c3.4-0.2,6.3,2.5,6.3,5.9
		C353.3,123,350.6,125.7,347.4,125.8z"/>
	<path class="st3" d="M42,119.8c0,3.2-2.6,5.9-5.8,6c-3.2,0.1-6-2.5-6.1-5.7c-0.1-3.4,2.6-6.2,6-6.2C39.3,113.8,41.9,116.5,42,119.8
		z"/>
	<path class="st3" d="M323.3,18c3.2,0,5.9,2.6,6,5.9c0.1,3.2-2.5,6-5.8,6.1c-3.4,0.1-6.2-2.7-6.2-6C317.4,20.7,320.1,18.1,323.3,18z
		"/>
	<path class="st3" d="M60,30c-3.2,0-5.9-2.6-6-5.8c-0.1-3.4,2.7-6.2,6.1-6.1c3.2,0.1,5.9,2.8,5.8,6C65.9,27.3,63.2,30,60,30z"/>
	<path class="st4" d="M305.5,329.3c0-15.2-0.1-30.4-0.2-45.6c0-1.8,0.5-2.3,2.3-2.3c15.2,0.1,30.4,0.1,45.6,0.2
		c1.3,1.3,1.1,3,1.1,4.6c0,8.3,0.1,16.7,0,25c-0.2,10.9-8.4,19.1-19.3,19.3c-8.3,0.1-16.7,0.1-25,0
		C308.5,330.4,306.8,330.6,305.5,329.3z"/>
	<path class="st5" d="M305.5,329.3c9.6,0,19.2,0,28.8,0c11.2,0,19-7.8,19-19c0-9.6,0-19.2,0-28.8c3.8,0,8.7-1.4,11.2,0.5
		c2.4,1.8,0.7,7,0.7,10.6c0.1,15.1,0,30.1,0.1,45.2c0,2.8-0.7,3.5-3.5,3.5c-17.7-0.1-35.4-0.1-53,0c-2.8,0-3.8-0.6-3.5-3.5
		C305.6,335,305.4,332.2,305.5,329.3z"/>
	<path class="st2" d="M335.3,353.3c9,0,17.9,0.1,26.9-0.1c2.4,0,3.1,0.6,3.1,3.1c-0.1,7.1-1.7,8.9-8.7,8.9c-14.3,0-28.6,0-43,0
		c-6.7,0-10-4.4-8.3-10.8c0.5-2,2-1.1,3-1.1C317.3,353.2,326.3,353.3,335.3,353.3z"/>
	<path class="st6" d="M353.2,269.3c-15.2,0-30.4,0.1-45.6,0.2c-1.8,0-2.2-0.6-2.3-2.3c-0.3-7.8,1.5-9.7,9.4-9.7
		c12.8,0,25.7,0.1,38.5,0.1C355.1,261.5,355.1,265.4,353.2,269.3z"/>
	<path class="st2" d="M353.2,269.3c0-3.9,0-7.8,0-11.7c1.1,0,2.2-0.1,3.4-0.1c7.2,0,9.8,3.3,8.7,10.4c-0.3,1.7-1.2,1.5-2.3,1.5
		C359.7,269.4,356.5,269.4,353.2,269.3z"/>
	<path class="st4" d="M161.8,329.3c0-15.2-0.1-30.4-0.2-45.6c0-1.8,0.5-2.3,2.3-2.3c15.2,0.1,30.4,0.1,45.6,0.2
		c1.3,1.3,1.1,3,1.1,4.6c0,8.3,0.1,16.7,0,25c-0.2,10.9-8.4,19.1-19.3,19.3c-8.3,0.1-16.7,0.1-25,0
		C164.8,330.4,163.1,330.6,161.8,329.3z"/>
	<path class="st5" d="M161.8,329.3c9.6,0,19.2,0,28.8,0c11.2,0,19-7.8,19-19c0-9.6,0-19.2,0-28.8c3.8,0,8.7-1.4,11.2,0.5
		c2.4,1.8,0.7,7,0.7,10.6c0.1,15.1,0,30.1,0.1,45.2c0,2.8-0.7,3.5-3.5,3.5c-17.7-0.1-35.4-0.1-53,0c-2.8,0-3.8-0.6-3.5-3.5
		C161.9,335,161.8,332.2,161.8,329.3z"/>
	<path class="st2" d="M191.6,353.3c9,0,17.9,0.1,26.9-0.1c2.4,0,3.1,0.6,3.1,3.1c-0.1,7.1-1.7,8.9-8.7,8.9c-14.3,0-28.6,0-43,0
		c-6.7,0-10-4.4-8.3-10.8c0.5-1.9,2-1.1,3-1.1C173.7,353.2,182.6,353.3,191.6,353.3z"/>
	<path class="st6" d="M209.6,269.3c-15.2,0-30.4,0.1-45.6,0.2c-1.8,0-2.2-0.6-2.3-2.3c-0.3-7.8,1.5-9.7,9.4-9.7
		c12.8,0,25.7,0.1,38.5,0.1C211.4,261.5,211.4,265.4,209.6,269.3z"/>
	<path class="st2" d="M209.6,269.3c0-3.9,0-7.8,0-11.7c1.1,0,2.2-0.1,3.4-0.1c7.2,0,9.8,3.3,8.7,10.4c-0.3,1.7-1.2,1.5-2.3,1.5
		C216,269.4,212.8,269.4,209.6,269.3z"/>
	<path class="st4" d="M18.2,329.3c0-15.2-0.1-30.4-0.2-45.6c0-1.8,0.5-2.3,2.3-2.3c15.2,0.1,30.4,0.1,45.6,0.2
		c1.3,1.3,1.1,3,1.1,4.6c0,8.3,0.1,16.7,0,25c-0.2,10.9-8.4,19.1-19.3,19.3c-8.3,0.1-16.7,0.1-25,0
		C21.1,330.4,19.5,330.6,18.2,329.3z"/>
	<path class="st5" d="M18.2,329.3c9.6,0,19.2,0,28.8,0c11.2,0,19-7.8,19-19c0-9.6,0-19.2,0-28.8c3.8,0,8.7-1.4,11.2,0.5
		c2.4,1.8,0.7,7,0.7,10.6c0.1,15.1,0,30.1,0.1,45.2c0,2.8-0.7,3.5-3.5,3.5c-17.7-0.1-35.4-0.1-53,0c-2.8,0-3.8-0.6-3.5-3.5
		C18.3,335,18.1,332.2,18.2,329.3z"/>
	<path class="st2" d="M47.9,365.2c-7.7,0-15.4,0.1-23.2,0c-5.4-0.1-9.1-6.5-6.6-11.2c0.5-1.1,1.5-0.7,2.3-0.7
		c18.4,0,36.9,0,55.3-0.1c1.9,0,2.2,0.7,2.3,2.4c0.3,7.6-1.5,9.6-9.1,9.6C61.9,365.2,54.9,365.2,47.9,365.2z"/>
	<path class="st6" d="M65.9,269.3c-15.2,0-30.4,0.1-45.6,0.2c-1.8,0-2.2-0.6-2.3-2.3c-0.3-7.8,1.5-9.7,9.4-9.7
		c12.8,0,25.7,0.1,38.5,0.1C67.7,261.5,67.7,265.4,65.9,269.3z"/>
	<path class="st2" d="M65.9,269.3c0-3.9,0-7.8,0-11.7c1.1,0,2.2-0.1,3.4-0.1c7.2,0,9.8,3.3,8.7,10.4c-0.3,1.7-1.2,1.5-2.3,1.5
		C72.4,269.4,69.1,269.4,65.9,269.3z"/>
	<path d="M161.7,77.7c0.1,9.9-8,18.1-17.9,18.1c-9.7,0-17.9-8-17.9-17.7c0-10,8-18.1,17.9-18.1C153.5,60,161.6,67.9,161.7,77.7z"/>
	<path d="M209.6,77.7c0.1,9.9-8,18.1-18,18.1c-9.7,0-17.9-8.1-17.9-17.8c0-10,8-18.1,18-18.1C201.4,60,209.5,68,209.6,77.7z"/>
	<path d="M245.5,83.8c3.2,0,6.5,0.2,9.7,0.1c1.8,0,2.3,0.5,2.4,2.3c0.5,9.7,0.5,9.7-9.1,9.7c-1,0-2,0.1-3,0.1
		c-7.1,0-14.2-0.2-21.3-0.1c-2.1,0-2.7-0.5-2.7-2.7c-0.2-9.3-0.2-9.3,9.1-9.4C235.5,83.9,240.5,83.8,245.5,83.8z"/>
	<path d="M125.7,149.7c0.7-8.4,4.7-14.4,12.8-17.1c7-2.4,14.5,0,19.2,5.7c2.7,3.3,3.9,7.2,4.2,11.3c-1.5,13-12,20.8-23.4,17.1
		C130.3,164.2,126.3,158.1,125.7,149.7z"/>
	<path d="M173.6,149.7c0.7-8.4,4.7-14.4,12.8-17.1c7-2.4,14.5,0,19.2,5.7c2.7,3.3,3.9,7.2,4.2,11.3c-1.5,13-12,20.8-23.4,17.1
		C178.2,164.2,174.2,158.1,173.6,149.7z"/>
	<path d="M240.2,143.9c-5.3,0-10.7-0.2-16-0.1c-2.1,0-2.7-0.6-2.7-2.7c-0.2-9.3-0.2-9.3,9.1-9.3c5,0,9.9-0.1,14.9-0.1
		c3.2,0,6.5,0.2,9.7,0.1c1.8,0,2.3,0.5,2.4,2.3c0.5,9.7,0.5,9.7-9.1,9.7C245.7,143.7,243,143.8,240.2,143.9z"/>
	<path d="M239.7,155.7c5,0,10,0.1,15-0.1c2.4-0.1,2.9,0.7,2.9,3c0.1,9.1,0.1,9.1-9,9.1c-8,0-16-0.1-23.9,0.1
		c-2.5,0.1-3.1-0.8-3.1-3.1c0-8.9-0.1-8.9,8.9-8.9C233.5,155.7,236.6,155.7,239.7,155.7z"/>
	<path class="st7" d="M149.7,78.2c-0.2,3.2-2.9,5.8-6.2,5.7c-3.2-0.1-5.8-2.8-5.8-6.1c0.1-3.4,3-6.1,6.4-5.9
		C147.3,72.1,149.9,75,149.7,78.2z"/>
	<path class="st7" d="M191.5,83.9c-3.2-0.1-5.9-2.8-5.8-6c0-3.4,2.9-6.1,6.3-5.9c3.2,0.2,5.8,3,5.7,6.2
		C197.5,81.3,194.7,83.9,191.5,83.9z"/>
	<path class="st7" d="M143.7,155.7c-3.2,0-5.9-2.7-5.9-5.9c0-3.2,2.6-6,5.8-6c3.4-0.1,6.2,2.7,6.1,6.1
		C149.6,153.1,146.9,155.7,143.7,155.7z"/>
	<path class="st7" d="M191.5,143.7c3.2,0,6,2.6,6,5.8c0.1,3.4-2.7,6.2-6.1,6.1c-3.2-0.1-5.9-2.8-5.9-6
		C185.7,146.5,188.3,143.8,191.5,143.7z"/>
</g>
</svg>
