<?xml version="1.0" encoding="utf-8"?>
<!-- Generator: Adobe Illustrator 25.0.1, SVG Export Plug-In . SVG Version: 6.00 Build 0)  -->
<svg version="1.1" id="Layer_1" xmlns="http://www.w3.org/2000/svg" xmlns:xlink="http://www.w3.org/1999/xlink" x="0px" y="0px"
	 viewBox="0 0 384 384" style="enable-background:new 0 0 384 384;" xml:space="preserve">
<style type="text/css">
	.st0{fill:#FEFEFE;}
	.st1{fill:#D4CDC1;}
	.st2{fill:#966947;}
	.st3{fill:#F9DEB1;}
	.st4{fill:#2D4D82;}
	.st5{fill:#F1EFEA;}
	.st6{fill:#F3CE87;}
	.st7{fill:#E6E3DC;}
</style>
<g>
	<path class="st0" d="M383.9,192.4c0,62.8,0,125.7,0.1,188.5c0,2.5-0.4,3.1-3,3.1c-125.9-0.1-251.9-0.1-377.8,0
		c-2.9,0-3.2-0.8-3.2-3.3C0.1,254.9,0.1,129.1,0,3.3C0,0.6,0.5,0,3.2,0C129,0.1,254.8,0.1,380.6,0c3,0,3.4,0.8,3.4,3.5
		C383.9,66.5,383.9,129.4,383.9,192.4z"/>
	<path d="M134.3,215.6c-5.5-10.3-9.8-20.5-13-31.2c-0.4-1.3-1.6-1.9-2.5-2.7c-6.3-5.1-12.6-10.2-19-15.2c-7.6-6-11.4-13.5-9.2-23.2
		c2.2-9.8,8.7-15.3,18.4-17.2c0.2,0,0.5-0.2,0.8-0.3c0.2-1.3-0.7-2.2-1.2-3.2c-4.4-8.8-8.8-17.6-13.2-26.3
		C91.5,88.7,91,81,93.7,73.1c3.3-9.7-0.6-17.6-10.3-21c-4.1-1.4-8.2-2.8-12.4-4.1c-2.7-0.9-4.7-2.4-5-5.4c-0.3-3,1.3-4.8,3.7-6.3
		c31.4-19.2,65.5-29.4,102.2-30.1c18.4-0.4,36.9-0.2,55.4-0.1c42.6,0.3,72,41.8,58.3,82.1c-4.2,12.5-9,24.8-13.5,37.3
		c2.1,0.5,4,0.8,5.9,1.4c8.1,2.8,13.2,8.3,14.9,16.7c1.7,8.3-0.8,15.4-7.1,20.9c-7,6-14.3,11.6-21.5,17.4c-0.9,0.7-1.9,1.2-2.3,2.4
		c-3.2,10.7-7.6,21-13,31.3c16,0,31.6,0,47.1,0c3,0,6,0,8.9,0.6c13.7,2.7,23.9,14.4,24.2,28.4c0.2,7.4,0.1,14.7,0,22.1
		c0,2,0.4,3,2.4,4c24.8,11.9,39.6,31.5,44.6,58.4c0.7,3.7,0.9,7.4,1,11.2c0.1,10,0.1,20,0.1,29.9c0,4.9-2.2,7-7.1,7.1
		c-0.6,0-1.2,0-1.9,0c-117.7,0-235.5,0-353.2,0c-7.4,0-9.1-1.6-9-9C6.3,356.1,5.1,344,6.8,332c3.8-27.7,18.3-47.9,43.2-60.5
		c2.9-1.5,4.1-2.9,4.1-6.3c-0.1-8.2-1-16.5,0.4-24.6c2.5-14.8,14.6-24.8,29.6-24.9c15.3-0.1,30.7,0,46,0
		C131.4,215.6,132.6,215.6,134.3,215.6z"/>
	<path class="st1" d="M191.2,365.2c-40.5,0-81,0-121.6,0.1c-3.1,0-3.8-0.8-3.8-3.9c0.1-38,0.1-76.1,0.1-114.1
		c0-12.5,7.3-19.8,19.7-19.8c70.7,0,141.4,0,212.1,0c12.4,0,19.6,7.3,19.7,19.8c0,38,0,76.1,0.1,114.1c0,3.1-0.7,3.8-3.8,3.8
		C272.8,365.2,232,365.2,191.2,365.2z"/>
	<path class="st2" d="M269.3,98.2c-2.4-14.8-10.4-26.5-18.5-38.2c-2-2.9-3.8-5.8-5.8-8.7c-2.7-3.9-6.1-4.4-9.9-1.4
		c-5.1,4-10.1,8.2-15.2,12.1c-8.5,6.4-18.2,9.8-28.8,9.9c-13.2,0.1-25.2,3.9-36.1,11.3c-12.2,8.2-24.5,16.3-36.7,24.5
		c-2.2,1.5-3.1,1.5-4.3-1c-2.5-5.5-5.4-10.9-8.1-16.4c-2.1-4.2-2.6-8.7-0.8-13c6.2-15.6-3.1-31.9-16.6-36.1
		c-0.3-0.1-0.6-0.4-1.3-0.8c4.6-3,9.5-5,14.3-7c23.3-9.9,47.6-15.1,73-15.3c17.6-0.1,35.2-0.1,52.7,0c34.5,0.2,58.3,33.9,47.1,66.5
		C272.7,89.1,270.9,93.6,269.3,98.2z"/>
	<path class="st3" d="M191.2,215.6c-13.3,0-26.7-0.1-40,0.1c-2.2,0-3.5-0.6-4.7-2.6c-12.7-22.3-19.4-46.2-20.7-71.7
		c-0.1-2.6,0.2-3.7,3.3-3.6c8.6,0.2,8.6,0,8.6,8.7c0,3,0,6,0,9c0.1,10.5,7.7,18.2,18.1,18.3c3.9,0.1,7.7,0.1,11.6,0
		c10.4-0.2,18-7.8,18.2-18.3c0.1-5.6,0.1-5.6,5.6-5.6c6.2,0,6.2,0,6.4,6c0.2,10,7.8,17.7,17.8,17.9c4.1,0.1,8.2,0.1,12.3,0
		c10-0.2,17.6-7.9,17.7-18c0.1-5.1,0.1-10.2,0-15.3c-0.1-2.2,0.6-2.6,2.7-2.7c9.4-0.1,9.4-0.2,8.7,9.2c-1.7,23.3-8.5,45.1-19.8,65.5
		c-1.3,2.4-2.7,3.3-5.5,3.3C218.2,215.5,204.7,215.6,191.2,215.6z"/>
	<path class="st3" d="M229.5,125.8c-8.1,0-16.2,0-24.3,0c-5.6,0-7.9,2-7.5,7.7c0.2,3.7-0.9,5-4.4,4.3c-0.2,0-0.5,0-0.7,0
		c-2.1,0-4.7,0.7-6.2-0.3c-1.7-1.1-0.4-3.9-0.7-5.9c-0.4-3.8-2.8-5.7-7.3-5.7c-15.5,0-30.9,0-46.4,0c-6.4,0-6.3,0-6.2-6.6
		c0-1.5,0.4-2.4,1.7-3.3c12.5-8.2,24.9-16.6,37.4-24.7c6.9-4.5,14.7-7.1,22.9-7.1c17.3,0,32.1-5.7,45.1-17c5.2-4.5,5.3-4.4,9.2,1.4
		c5.9,8.8,12.1,17.4,14.2,28.1c1.9,9.2,0.9,18.4,1.3,27.6c0.1,2.1-1.4,1.6-2.5,1.6C246.5,125.8,238,125.8,229.5,125.8z"/>
	<path class="st4" d="M329.3,282.6c18.1,10,29.3,24.3,34.1,43.6c3,12.3,1.4,24.8,1.8,37.2c0.1,1.9-1.2,1.8-2.5,1.8
		c-10.2,0-20.4-0.1-30.6,0.1c-2.5,0-2.8-1-2.8-3.1c0.1-12.6,0-25.2,0-37.7C329.3,310.7,329.3,297.1,329.3,282.6z"/>
	<path class="st4" d="M53.8,283.4c0,1,0.1,1.9,0.1,2.9c0,25.1,0,50.1,0.1,75.2c0,2.8-0.5,3.9-3.7,3.8c-9.7-0.2-19.4-0.1-29.2-0.1
		c-1.6,0-3.3,0.3-3.2-2.3c0.4-11.8-1.1-23.7,1.5-35.4c4.2-18.6,14.5-32.8,30.7-42.7C51.3,284.1,52.3,283.3,53.8,283.4z"/>
	<path class="st5" d="M161.9,137.8c3,0,6,0.2,9-0.1c2.5-0.2,2.9,0.8,2.8,2.9c-0.2,4.6,0,9.2-0.1,13.8c0,5.1-2.2,7.2-7.4,7.2
		c-3.4,0-6.7,0.1-10.1,0c-4.2-0.1-6.4-2.4-6.5-6.6c-0.1-5,0.1-10-0.1-15c-0.1-2.1,0.7-2.5,2.5-2.4
		C155.5,137.8,158.7,137.8,161.9,137.8z"/>
	<path class="st5" d="M221.7,137.8c3.1,0,6.2,0.1,9.4,0c1.9-0.1,2.6,0.4,2.5,2.4c-0.2,5,0,10-0.1,15c-0.1,4.2-2.3,6.5-6.5,6.6
		c-3.6,0.1-7.2,0.1-10.8,0c-4.2-0.1-6.5-2.3-6.6-6.5c-0.1-5,0.1-10-0.1-15c-0.1-2.3,0.9-2.6,2.8-2.5
		C215.4,137.9,218.6,137.8,221.7,137.8z"/>
	<path class="st6" d="M116.4,164.5c-4.3-3.5-8-6.2-11.4-9.3c-3.2-3-4.1-6.8-2.4-10.9c1.6-3.9,4.6-6.1,8.8-6.5
		c1.1-0.1,2.5-0.5,2.6,1.6C114.1,147.4,115.1,155.5,116.4,164.5z"/>
	<path class="st6" d="M266.8,164.5c1.4-9.1,2.3-17.1,2.5-25.2c0-1.7,1.1-1.6,2.2-1.6c4.2,0.3,7.3,2.3,9,6.2c1.8,4,1.1,8-2.1,11
		C275.1,158.2,271.3,160.9,266.8,164.5z"/>
	<path d="M191.8,299.4c13.2,0,23.9,10.9,23.8,24.2c-0.1,13-10.8,23.7-23.9,23.7c-13.3,0-24-10.7-24-24
		C167.7,310,178.5,299.3,191.8,299.4z"/>
	<path d="M125.8,263.5c0-2.1,0.9-3.5,2.2-4.8c7.2-7.2,14.5-14.4,21.6-21.7c1.5-1.5,2.3-1.4,3.8,0c6.7,6.5,6.8,6.5,0.2,13
		c-3.8,3.8-7.5,7.7-11.4,11.3c-1.7,1.6-1.7,2.5,0,4.1c5.4,5.2,10.6,10.6,15.9,15.8c1.5,1.5,1.5,2.3,0,3.8c-6.6,6.8-6.5,6.8-13,0.3
		c-5.6-5.6-11.3-11.3-16.9-16.9C126.8,267,125.6,265.5,125.8,263.5z"/>
	<path d="M257.5,263.5c0.1,1.9-0.8,3.3-2.1,4.6c-7.3,7.3-14.6,14.6-21.9,22c-1.4,1.5-2.2,1.2-3.5-0.1c-6.9-6.6-6.9-6.6-0.2-13.3
		c3.8-3.8,7.5-7.7,11.4-11.3c1.6-1.5,1.5-2.4,0-3.8c-5.4-5.2-10.5-10.6-15.9-15.8c-1.7-1.6-1.7-2.6,0-4.1c2.3-1.9,4.2-5.5,6.5-5.7
		c2.4-0.2,4.3,3.6,6.5,5.7c5.6,5.5,11.1,11.1,16.7,16.6C256.3,259.7,257.5,261.3,257.5,263.5z"/>
	<path d="M178.3,291c-3.2-2.4-6.2-4.4-8.8-6.9c-1.1-1,0.7-2.1,1.4-3c9.8-13.2,19.7-26.3,29.6-39.5c4.3-5.8,4.3-5.8,10-1.5
		c4,3,4,3,0.9,7.1c-10.3,13.8-20.6,27.5-30.9,41.3C179.8,289.3,179.1,290.1,178.3,291z"/>
	<path class="st7" d="M203.6,323.3c0,6.5-5.3,11.9-11.8,11.9c-6.7,0.1-12.1-5.3-12.1-12c0-6.5,5.3-11.9,11.8-11.9
		C198.1,311.3,203.6,316.7,203.6,323.3z"/>
</g>
</svg>
