<?xml version="1.0" encoding="utf-8"?>
<!-- Generator: Adobe Illustrator 25.0.1, SVG Export Plug-In . SVG Version: 6.00 Build 0)  -->
<svg version="1.1" id="Layer_1" xmlns="http://www.w3.org/2000/svg" xmlns:xlink="http://www.w3.org/1999/xlink" x="0px" y="0px"
	 viewBox="0 0 496 496" style="enable-background:new 0 0 496 496;" xml:space="preserve">
<style type="text/css">
	.st0{fill:#FEFEFE;}
	.st1{fill:#EFBB5E;}
	.st2{fill:#020202;}
	.st3{fill:#EEBA5D;}
</style>
<g>
	<path class="st0" d="M0.1,431.2C0.1,289,0.1,146.8,0,4.6C0,1.2,0.4,0,4.3,0c162.5,0.1,325,0.1,487.5,0c3.5,0,4.2,0.7,4.2,4.2
		c-0.1,162.5-0.1,325,0,487.5c0,3.9-1.2,4.3-4.6,4.3c-142.5-0.1-285.1-0.1-427.6-0.1c0.5-2.9,3.1-2.2,4.9-2.7
		c19.6-5.7,33.3-17.8,39.3-37.5c8.9-29.1-7.9-60.2-38-68.3c-2.5-0.7-5.6-0.6-7.1-3.5c-1.2-7.5-0.4-15.1-0.6-22.6
		c-0.1-4.8-0.1-9.7,0-14.5c0.1-15.7,8.9-25.7,24.4-27.9c2.7-0.4,5.5-0.3,8.2-0.3c31.9,0,63.8,0,95.6,0c6.4,0,9.2-4.4,6.7-10.4
		c-0.6-1.5-1.7-1.8-3-2c-1.6-0.2-3.2-0.1-4.8-0.1c-33,0-66,0-99,0c-22.8,0-37.6,12.8-41,35.4c-0.8,2.3-0.8,4.7-0.8,7.1
		c0,10.5-0.1,20.9,0,31.4c0,4-1.6,6.2-5.5,7.3c-21.5,5.5-34.4,19.6-40.6,40.5C2.3,429.1,2.4,431.1,0.1,431.2z"/>
	<path class="st1" d="M0.1,431.2c1.5-4.3,2.7-8.8,4.6-13c7.5-17,20.3-27.9,38.3-32.3c3.5-0.9,4.6-2.1,4.6-5.7
		c-0.2-10.9-0.1-21.9-0.1-32.8c0-1.6-0.5-3.2,0.6-4.7c2.1,1.6,1.7,4,1.7,6.2c0.1,9.5,0,18.9,0.1,28.4c0,5.5,0.2,5.5,5.7,5.5
		c2.9,0,5.8,0.1,8.3,1.9c24,4.7,40.1,18.4,46.2,42.2c8,30.7-12.5,62.1-43.7,68c-0.9,0.2-2-0.1-2.5,1c-5.8,0-11.6,0-17.4,0
		c-17.5-2.5-30.1-12.2-39.5-26.7c-3.9-6-5.7-12.7-6.8-19.7C0.1,443.4,0.1,437.3,0.1,431.2z"/>
	<path class="st0" d="M0.1,449.5c1.4,0.7,1.2,2.2,1.5,3.3c5.9,21.8,19.7,35.6,41.5,41.5c1.1,0.3,2.7,0.1,3.3,1.5
		c-14.5,0-29-0.1-43.5,0.1c-2.4,0-3-0.5-3-3C0.1,478.5,0.1,464,0.1,449.5z"/>
	<path d="M346.5,320.2c-10.5,0-20.9-0.1-31.4,0.1c-2.8,0-3.8-0.5-3.8-3.6c0-12.2-0.2-12.2,12.1-12.2c16.3,0,32.5,0,48.8,0
		c17.2,0,27-9.8,27.1-26.8c0-8.2-0.2-16.4,0.1-24.6c0.1-3.4-0.6-4.7-4.4-4.6c-10.6,0.3-21.3,0-31.9,0.2c-2.9,0-3.9-0.5-3.8-3.6
		c0.2-8.2-0.1-16.4,0.2-24.6c0.1-3-0.8-4.2-3.8-3.7c-0.2,0-0.3,0-0.5,0c-12.4-0.1-12.4-0.1-12-12.8c0.1-2.5,0.6-3.5,3.2-3.3
		c3.4,0.2,6.8,0,10.1,0.1c2.1,0.1,3-0.7,2.8-2.8c0-0.2,0-0.3,0-0.5c-0.1-4,1.3-9.1-0.7-11.7c-2.1-2.7-7.5-1-11.5-0.8
		c-3.8,0.2-4-1.4-4-4.5c0.1-11.7,0-11.6,11.2-11.8c1.6,0,4.2,1.3,4.8-1.5c0.6-2.5,0.2-4.8-2.5-6.7c-10.1-6.9-18.1-15.8-24.6-26.2
		C309,96.9,318.4,46.1,353.5,19.5c28.6-21.7,67-24.8,96.6-7c33.1,19.9,48.3,49.6,43.8,88.1c-2.7,23.9-14.7,43.2-33.8,58
		c-2.4,1.9-5.7,3.1-5.1,7.3c0.3,2,0.6,3,2.8,2.7c0.5-0.1,1,0,1.4,0c3.8,0.4,9.5-1.8,10.9,0.9c1.9,3.5,0.6,8.7,0.7,13.2
		c0.1,1.9-1,2-2.5,2c-3.5,0-7.1,0.1-10.6-0.1c-2.1-0.1-3.1,0.5-2.7,2.7c0,0.2,0,0.3,0,0.5c0.1,4-1.3,9.1,0.6,11.7
		c2.1,2.8,7.5,0.9,11.4,0.9c2.8,0,4.1,0.6,3.9,3.7c-0.3,4,1.2,9.1-0.8,11.7c-1.9,2.5-7.2,0.9-11,0.7c-3.5-0.2-4.2,1.1-4.1,4.3
		c0.2,7.6-0.2,15.1,0.2,22.7c0.2,3.9-0.7,5.2-4.9,5.1c-10.5-0.3-20.9,0-31.4-0.2c-3.3-0.1-4,1-4,4.1c0.1,10.1,0.3,20.3-0.3,30.4
		c-1.1,20.5-16.9,36.1-37.4,37.1c-10.3,0.5-20.6,0.1-30.9,0.1C346.5,320.1,346.5,320.2,346.5,320.2z"/>
	<path d="M63.9,384.7c-4,0-8-1-11.9-0.2c-3,0.6-3.8-0.5-3.7-3.4c0.1-12.8,0-25.6,0-38.4c1-22.3,19.5-38.6,41.9-38.4
		c35.1,0.4,70.2,0.1,105.2,0c3.2,0,4.4,0.6,4.3,4.1c-0.1,11.8,0,11.8-11.6,11.8c-32,0-64,0-96.1,0c-18.7,0-28.1,9.4-28.1,28.2
		C63.9,360.5,63.9,372.6,63.9,384.7z"/>
	<path d="M295.5,432c0-17.6,14.4-31.9,31.9-31.8c17.3,0.1,31.5,14.2,31.8,31.6c0.3,17.2-14.4,32.1-31.8,32.1
		C310,464.1,295.5,449.6,295.5,432z"/>
	<path d="M119.6,168.5c-17.7-0.2-31.8-14.5-31.6-32.1c0.2-17.3,14.5-31.6,31.8-31.6c17.3,0,32.1,14.8,32,32
		C151.6,154.4,137.1,168.7,119.6,168.5z"/>
	<path d="M451.5,352.3c-0.8-0.9-1.5-1.7-2.3-2.5c-4.5-4.6-9-9.2-13.7-13.6c-1.9-1.8-1.8-2.9,0-4.5c3.1-2.7,5.8-7.5,9.2-8
		c3.1-0.4,5.7,5,8.6,7.6c3.3,3,6,8.6,9.8,8.5c3.3-0.2,6.3-5.4,9.4-8.4c2.9-2.8,5.7-7.7,8.7-7.7c3.5-0.1,5.9,5.3,9.1,7.9
		c2.3,1.9,1.7,3.1-0.1,4.9c-4.7,4.4-9.1,9.1-13.7,13.6c-1.8,1.7-1.8,2.8,0,4.5c4.8,4.5,9.3,9.3,14.1,13.9c1.6,1.6,1.9,2.6,0,4.2
		c-2.5,2.2-5,4.6-7.2,7.2c-1.8,2.1-3,1.4-4.5-0.2c-4.2-4.4-8.7-8.6-12.9-13c-2.2-2.4-3.6-2.7-6-0.1c-4.2,4.6-8.9,8.9-13.2,13.4
		c-1.6,1.7-2.5,1.7-4.2,0.1c-9.7-8.9-9.7-8.8-0.4-18.2c2.5-2.5,5-5,7.5-7.5C450.3,353.6,450.9,353,451.5,352.3z"/>
	<path d="M188.8,389.5c0,1.5-1.2,2-1.9,2.7c-4.5,4.6-9,9.2-13.7,13.6c-1.8,1.7-1.9,2.7,0,4.5c4.8,4.5,9.3,9.3,14.1,13.9
		c1.6,1.6,1.7,2.5,0.1,4.2c-8.8,9.6-8.8,9.7-17.9,0.6c-2.5-2.5-5.1-4.9-7.5-7.6c-1.7-2-2.8-1.7-4.5,0.1c-4.6,4.8-9.4,9.3-13.9,14.1
		c-1.7,1.8-2.6,1.5-4.2,0c-9.6-8.8-9.7-8.8-0.6-17.8c2.5-2.5,4.9-5.2,7.5-7.5c2-1.7,1.8-2.8,0-4.5c-4.8-4.6-9.3-9.4-14.1-13.9
		c-1.7-1.6-1.8-2.6,0-4.2c3.1-2.8,5.8-7.6,9.1-8.1c3.2-0.5,5.7,4.9,8.6,7.5c2.6,2.4,5.2,4.9,7.5,7.5c1.7,1.9,2.8,1.8,4.5,0
		c4.5-4.8,9.4-9.3,13.9-14.1c1.6-1.7,2.6-1.7,4.2,0c2.4,2.6,5,5,7.5,7.6C188,388.6,188.4,389.1,188.8,389.5z"/>
	<path d="M50.3,62.4c-1-0.9-1.8-1.6-2.5-2.4c-4.6-4.5-9.2-9-13.6-13.7c-1.6-1.7-2.6-1.7-4.2,0C25.4,51,20.5,55.6,16,60.4
		c-1.7,1.8-2.7,1.8-4.6,0.1c-9.3-8.8-9.3-8.7-0.3-17.9c3.1-3.2,8.7-6,8.5-9.7c-0.2-3.3-5.5-6.2-8.4-9.4c-2.8-2.9-7.6-5.7-7.7-8.7
		c-0.1-3.5,5.3-5.9,7.9-9.1c1.6-2,2.8-1.9,4.5,0c4.4,4.7,9.2,9.1,13.6,13.7c1.9,2,3,2.1,4.9,0c4.4-4.7,9.1-9.1,13.6-13.7
		c1.7-1.8,2.7-1.9,4.6-0.1c9.3,8.8,9.3,8.7,0.3,17.9c-3.1,3.2-8.7,6-8.5,9.7c0.2,3.3,5.4,6.3,8.5,9.4c9.4,9.4,9.4,9.4-0.6,18.2
		C51.6,61.2,51.1,61.7,50.3,62.4z"/>
	<path d="M235.8,121.2c-0.1-1.5-1.3-2-2-2.8c-4.4-4.5-8.8-9-13.3-13.3c-1.8-1.7-2.7-2.9-0.2-4.9c3.2-2.6,5.6-8,9.1-7.9
		c3,0.1,5.8,5,8.7,7.7c3.1,3,6.2,8.3,9.4,8.4c3.7,0.1,6.6-5.4,9.7-8.6c9.1-9,9-9,17.9,0.4c1.9,2,1.5,2.9-0.2,4.6
		c-4.2,4-8,8.4-12.4,12.2c-3.6,3-2.9,4.9,0.2,7.7c4.2,3.7,7.9,8.1,12.1,11.8c2.3,2.1,2.1,3.4-0.1,5.2c-3.1,2.5-5.3,7.7-8.8,7.6
		c-2.9-0.1-5.5-4.9-8.4-7.4c-3.4-3.1-6.1-9.1-10.1-8.7c-3.5,0.3-6.4,5.8-9.7,8.8c-2.8,2.6-5.2,7.6-8.3,7.3c-3-0.3-5.5-4.9-8.5-7.3
		c-2.8-2.3-2.2-3.8,0.2-5.9c4.5-4.1,8.7-8.6,13-12.9C234.6,122.5,235.2,121.8,235.8,121.2z"/>
	<path d="M21.4,247.6c-1.2-0.6-2.4-1-3.2-1.7c-4.6-4.5-9.1-9.1-13.7-13.6c-1.7-1.6-1.7-2.5-0.1-4.2c8.8-9.6,8.8-9.7,17.9-0.6
		c2.5,2.5,5.1,4.9,7.5,7.5c1.7,1.9,2.8,1.9,4.5,0c4.5-4.8,9.4-9.3,13.9-14.1c1.6-1.6,2.5-1.7,4.2-0.1c9.6,8.8,9.7,8.8,0.6,17.9
		c-2.5,2.5-4.9,5.1-7.5,7.5c-1.9,1.7-1.9,2.8,0,4.5c4.8,4.5,9.3,9.4,14.1,13.9c1.7,1.6,1.6,2.5,0.1,4.2c-8.8,9.6-8.8,9.7-17.9,0.6
		c-2.5-2.5-5.1-4.9-7.5-7.5c-1.7-1.9-2.8-1.9-4.5,0c-4.5,4.8-9.4,9.3-13.9,14.1c-1.6,1.7-2.5,1.6-4.2,0.1c-9.6-8.8-9.7-8.8-0.6-17.8
		c2.6-2.6,5.2-5.2,7.9-7.9C19.4,249.8,19.9,249.2,21.4,247.6z"/>
	<path class="st2" d="M255.5,320.3c-8,0-8,0-8-8c0-7.8,0-7.8,7.7-7.8c8.4,0,8.4,0,8.4,8.2C263.5,320.3,263.5,320.3,255.5,320.3z"/>
	<path class="st2" d="M287.3,320.3c-7.9,0-7.9,0-7.9-8.1c0-7.7,0-7.7,7.7-7.7c8.3,0,8.3,0,8.3,8.3
		C295.5,320.3,295.5,320.3,287.3,320.3z"/>
	<path d="M215.6,311.8c0-7.4,0-7.4,7.6-7.4c8.3,0,8.3,0,8.3,8.1c0,7.7,0,7.7-7.9,7.7C215.6,320.2,215.6,320.2,215.6,311.8z"/>
	<path d="M56.1,464c-13,0.1-24.1-10.9-24.1-23.9c0-13,11-24,24-23.9c13,0.1,23.6,10.6,23.8,23.7C80.1,452.7,69.2,463.9,56.1,464z"/>
	<path class="st1" d="M415.3,168c-0.9-1.5-0.4-3.1-0.4-4.7c0-16.1,0.2-32.1,0.1-48.2c0-2.6,0.7-3.9,3.1-5.1
		c10.4-5.5,15-16.3,12.1-27.2c-2.8-10.4-12.5-17.8-23.1-17.8c-10.6,0-20.3,7.6-23,17.9c-2.8,10.8,2,21.7,12.3,27.2
		c1.9,1,3,1.8,3,4.2c-0.2,10-0.2,19.9-0.2,29.9c-1.4,1.3-3,0.7-4.6,0.4c-23.6-5.1-41.2-25.1-44-49.2c-4.3-36.9,26.4-65,58.4-63.5
		c23.8,1.1,41.3,12.9,50.7,34.9c9.7,22.7,5,43.5-11.3,61.7c-6.8,7.6-15.5,12.5-25.2,15.5c-6,1.9-6,1.9-6,8.4c0,3.7,0.1,7.4,0,11.1
		C416.9,165,417.3,167,415.3,168z"/>
	<path class="st0" d="M415.3,168c0.1-6.3,0.5-12.5,0.2-18.8c-0.1-3.7,0.9-5.2,4.7-6.1c26.3-6.4,43.7-29.7,42.8-56.9
		c-1-27.8-24.4-51.6-52.3-53.1c-28.5-1.6-54.4,18.9-58.6,46.2c-4.9,31.7,15,59.1,47,64.9c0.1,7.1,0,14.2,0.2,21.2
		c0.1,2.5-0.6,3.4-3.2,3.3c-6-0.2-11.9-0.2-17.9,0c-2.7,0.1-3.5-1.1-3-3.4c1.7-8.9-2.7-13.4-9.8-18.6
		c-24.1-17.6-34.1-42.2-28.5-71.4c5.5-28.6,23.4-47.8,51.6-55.5c49.5-13.5,96.4,27.4,89.9,78.2c-2.9,22.8-14.9,40.4-34.5,52.5
		c-3.6,2.2-5,4.4-4.9,8.7c0.4,9.5,0.1,9.6-9.2,9.5C424.9,168.5,420,169.3,415.3,168z"/>
	<path class="st0" d="M407,184.7c9.5,0,19,0.1,28.4-0.1c3.1-0.1,4,0.8,3.6,3.8c-0.5,3.9,1.7,9.2-0.9,11.5c-2.2,1.9-7.3,0.6-11.1,0.7
		c-15.9,0-31.8-0.1-47.7,0.1c-3.4,0-4.2-1-4.2-4.3c0.1-11.7,0-11.7,11.6-11.7C393.5,184.7,400.2,184.7,407,184.7z"/>
	<path class="st0" d="M407.5,232.5c-9.6,0-19.3-0.1-28.9,0.1c-2.8,0-3.4-0.8-3.5-3.5c-0.2-12.4-0.3-12.4,12.3-12.4
		c15.9,0,31.8,0.1,47.7-0.1c3.2,0,4.2,0.9,3.9,4c-0.3,3.8,1.1,8.8-0.8,11.2c-2,2.5-7.2,0.7-11,0.8
		C420.7,232.6,414.1,232.5,407.5,232.5z"/>
	<path class="st3" d="M414.9,88.7c0.1,4.5-3.3,8-7.7,8.1c-4.3,0-8-3.6-8-7.9c0-4.2,3.3-7.6,7.6-7.7
		C411.3,80.9,414.8,84.2,414.9,88.7z"/>
	<path class="st0" d="M327.4,447.9c-8.8,0.1-16-7-16.1-15.7c-0.1-8.6,7.2-16,15.8-16.1c8.6-0.1,15.9,7.2,16,15.9
		C343.3,440.8,336.3,447.9,327.4,447.9z"/>
	<path class="st0" d="M135.6,136.9c-0.1,8.8-7.3,15.9-16,15.8c-8.6-0.1-15.9-7.6-15.8-16.2c0.1-8.7,7.4-15.8,16.2-15.7
		C128.8,121,135.7,128.1,135.6,136.9z"/>
	<path class="st3" d="M55.8,447.8c-4.5-0.1-7.8-3.6-7.6-8.1c0.1-4.2,3.5-7.6,7.7-7.6c4.2,0,8,3.7,8,7.9
		C63.8,444.5,60.3,447.9,55.8,447.8z"/>
</g>
</svg>
