<?xml version="1.0" encoding="utf-8"?>
<!-- Generator: Adobe Illustrator 25.0.1, SVG Export Plug-In . SVG Version: 6.00 Build 0)  -->
<svg version="1.1" id="Layer_1" xmlns="http://www.w3.org/2000/svg" xmlns:xlink="http://www.w3.org/1999/xlink" x="0px" y="0px"
	 viewBox="0 0 384 384" style="enable-background:new 0 0 384 384;" xml:space="preserve">
<style type="text/css">
	.st0{fill:#FEFEFE;}
	.st1{fill:#2F5571;}
	.st2{fill:#658CAB;}
	.st3{fill:#C54635;}
	.st4{fill:#D06B5D;}
	.st5{fill:#F1F1F1;}
	.st6{fill:#E4E4E4;}
	.st7{fill:#1F394C;}
	.st8{fill:#9B9C9D;}
	.st9{fill:#FEF9E8;}
	.st10{fill:#3E7196;}
	.st11{fill:#BCBCBD;}
	.st12{fill:#3997D3;}
	.st13{fill:#3996D3;}
	.st14{fill:#FEF2C8;}
	.st15{fill:#FEC139;}
	.st16{fill:#A0E0FE;}
	.st17{fill:#89D8FE;}
	.st18{fill:#FEDF78;}
	.st19{fill:#D6D6D7;}
	.st20{fill:#CB9B2E;}
	.st21{fill:#CBB260;}
</style>
<g>
	<path class="st0" d="M0.1,192c0-63,0-126-0.1-188.9C0,0.5,0.5,0,3.1,0C129,0.1,255,0.1,380.9,0c2.6,0,3.1,0.5,3.1,3.1
		c-0.1,126-0.1,251.9,0,377.9c0,2.6-0.5,3.1-3.1,3.1c-126-0.1-251.9-0.1-377.9,0c-2.6,0-3.1-0.5-3.1-3.1C0.1,318,0.1,255,0.1,192z"
		/>
	<path class="st1" d="M275.4,197.6c0,37.4,0,74.8,0,112.2c0,8.9-4.7,13.5-13.7,13.5c-31.8,0-63.6,0-95.3,0c-1.4,0-3-0.8-4.1,0.7
		c-8.4,0.6-16.7,0.6-25.1,0c-1.2-1.5-2.8-0.7-4.1-0.7c-31.7-0.1-63.3,0-95,0c-9.4,0-14-4.6-14-14c0-42.6,0-85.3,0-127.9
		c0-9.2,4.6-13.7,13.8-13.8c7.4,0,14.7,0,22.1-0.1c1.6,1.8,1,3.9,1.1,5.9c-0.1,3.9,0.5,7.7-0.5,11.6c-0.2,0.4-0.5,0.8-0.9,1
		c-3,1.1-6,0.5-9,0.6c-7.4,0.3-7.4,0.3-7.4,7.8c0,34.1,0,68.3,0,102.4c0,0.6,0,1.2,0,1.9c0,5.1,0.2,5.3,5.2,5.3
		c13.8,0.1,27.7-0.1,41.5,0.1c16.2-0.1,32.4-0.1,48.6,0c15.7-0.1,31.4-0.1,47.1,0c22,0,44.1,0,66.1,0c4.2,0,4.5-0.4,4.6-4.4
		c0-1.1,0-2.2,0.1-3.4c-0.2-27.8-0.1-55.6-0.1-83.4c0-0.6,0.1-1.2,0.2-1.8c3.7-6.3,8.8-11.2,15.7-14.1
		C273.3,196.5,274.6,196.1,275.4,197.6z"/>
	<path class="st2" d="M83.8,12.2c7.2,0,14.4,0,21.7-0.1c1.8,0,2.5,0.6,2.3,2.4c-0.1,0.9,0,1.7,0,2.6c0,50.2,0,100.4,0,150.6
		c1.1,1.3,1.2,2.9,1.2,4.5c0,4.5,0.1,9.1-0.1,13.6c0.2,20.5,0.1,41,0.1,61.5c0,11.2,0,22.4,0,33.6c0,1.9,0,3.7-0.5,5.6
		c-0.3,0.7-0.8,1.3-1.5,1.6c-7.8,0.6-15.6,1.4-23.4-0.4c-0.8-0.9-1-2-1-3.2c-0.1-8.1-0.2-16.2,0-24.3c0-0.7,0.2-1.5,0.5-2.2
		c0.3-0.6,0.8-0.9,1.4-1.2c1.3-0.6,3.2,0,3.8-1.8c0.7-2.1,0.4-4.4,0.2-6.6c-0.1-1.2-1-1.6-2-1.8c-1.2-0.3-2.5-0.3-3.3-1.5
		c-0.5-1-0.6-2.1-0.6-3.3c-0.1-9.5-0.1-19,0-28.5c0-1.1,0.1-2.2,0.6-3.3c0.3-0.6,0.8-0.9,1.4-1.2c1.3-0.6,3.2,0,3.8-1.8
		c0.7-2.1,0.4-4.4,0.2-6.6c-0.1-1.2-1-1.6-2-1.8c-1.2-0.3-2.5-0.3-3.3-1.5c-0.5-1-0.6-2.1-0.6-3.3c-0.1-9.5-0.1-19,0-28.5
		c0-1.1,0.1-2.2,0.6-3.3c0.3-0.6,0.8-0.9,1.4-1.2c1.3-0.6,3.2,0,3.8-1.8c0.7-2.1,0.4-4.4,0.2-6.6c-0.1-1.2-1-1.6-2-1.8
		c-1.2-0.3-2.5-0.3-3.3-1.5c-0.5-1-0.6-2.1-0.6-3.3c-0.1-9.5-0.1-19,0-28.5c0-1.1,0.1-2.2,0.6-3.3c0.3-0.6,0.8-0.9,1.4-1.2
		c1.3-0.6,3.2,0,3.8-1.8c0.7-2.1,0.4-4.4,0.2-6.6c-0.1-1.2-1-1.6-2-1.8c-1.2-0.3-2.5-0.3-3.3-1.5c-0.5-1-0.6-2.1-0.6-3.3
		c-0.1-9.5-0.1-19,0-28.5c0-1.1,0.1-2.2,0.6-3.3c0.3-0.6,0.8-0.9,1.4-1.2c1.3-0.6,3.3,0,3.8-1.8c0.7-2.1,0.4-4.4,0.2-6.6
		c-0.1-1.2-1-1.6-2.1-1.8c-1.2-0.3-2.5-0.3-3.2-1.5c-0.7-1.5-0.6-3.2-0.6-4.8c0-10.4,0-20.9,0-31.3C82.7,15.6,82.4,13.7,83.8,12.2z"
		/>
	<path class="st3" d="M131.6,167.7c0-24.5,0.1-49,0.1-73.4c0-1.6,0.1-3.2,0.2-4.8c0.9-3.3,4-4.8,6-7.1c5.5-6.3,5.6-6.3,11.4-0.4
		c2.8,2.9,6.5,5.2,7.4,9.6c0.3,2,0.2,4,0.2,6c0,43.1,0,86.1,0,129.2c0,2.3,0.4,4.8-0.9,6.9c-1.3,1.2-2.9,1.2-4.5,1.2
		c-4.5,0-9.1,0.1-13.6-0.1c-2.2,0-4.5,0.5-6.4-1.1c-0.8-1.2-0.9-2.6-0.9-3.9c0-14.6-0.2-29.2,0.1-43.9c-0.2-4.6-0.1-9.2-0.1-13.8
		C130.6,170.4,130.6,168.9,131.6,167.7z"/>
	<path class="st4" d="M155.7,233.4c0-47.9,0-95.7,0.1-143.6c2.9-4.6,7.2-7.8,10.9-11.5c0.8-0.8,1.9-0.8,2.7,0
		c3.6,3.6,7.9,6.4,10.2,11.2c0,22.1,0.1,44.2,0.1,66.3c0,4,0.1,7.9,0.1,11.9c1.4,1.7,1.1,3.8,1.1,5.7c0,4.1,0.1,8.2-0.1,12.3
		c0.2,9.7,0.1,19.4,0,29.1c0.1,4.9,0,9.8,0,14.7c0,1.5,0,3-1,4.2c-1.3,1-2.8,1-4.2,1c-5.2,0.1-10.3,0.1-15.5,0
		C158.5,234.7,156.9,234.8,155.7,233.4z"/>
	<path class="st1" d="M184.8,346.6c1.2,0.9,2.6,0.6,4,0.6c6.7,0,13.5,0,20.2,0c7.4,0.1,12.5,5,12.5,12.4c0,3.7,1.2,8.6-0.6,10.8
		c-2,2.4-7,0.7-10.7,0.7c-42.8,0.1-85.7,0-128.5,0.1c-3,0-4.3-0.6-3.9-3.8c0.3-2,0-4,0-6c0-9.7,4.4-14.2,14.1-14.2
		c6.2,0,12.5,0,18.7,0c1.4,0,2.8,0.3,4-0.6c1.5-0.6,3.2-0.6,4.8-0.6c20.2,0,40.5,0,60.7,0C181.7,346.1,183.3,346.1,184.8,346.6z"/>
	<path class="st5" d="M245.5,167.7c3.3-8,0.4-15-4.1-21.5c-1.5-2.2-1.6-2.8,1.1-3.6c22.2-6.3,44.3-12.6,66.5-18.9
		c0.6-0.2,1.2-0.1,1.8-0.1c0.2,1.8-1.2,2.7-2.2,3.7c-8.8,8.8-17.6,17.6-26.4,26.5c-1.6,1.6-3.4,2.7-5.8,2.9
		c-10.3,0.8-14.5,8.4-9.8,17.6c0.2,0.4,0.4,0.9,0.6,1.4c0.3,1.5-0.6,2.6-1.6,3.6c-13.9,14-27.9,28-41.9,41.9
		c-0.4,0.4-0.8,0.6-1.3,0.8c-0.8,0.2-1.5,0.1-2.1-0.4c-3.8-3.4-7.4-6.9-10.7-10.8c-0.4-0.5-0.4-1.1-0.3-1.8c2-3.3,5.1-5.6,7.8-8.4
		c5.1-5.2,10.3-10.3,15.4-15.5C237.8,180.1,243.1,175,245.5,167.7z"/>
	<path class="st6" d="M222.2,221.6c2.1-3,4.9-5.3,7.5-7.8c11.4-11.5,22.9-22.9,34.3-34.4c1-1,2.4-1.9,2.5-3.6
		c1.4-0.3,2.3,0.8,3.3,1.4c7.4,3.9,15.9-0.4,16.5-8.8c0.2-3.6,1.7-6,4.1-8.4c8.4-8.2,16.6-16.6,24.9-24.8c1.2-1.2,2.1-2.9,4.2-2.7
		c-4.4,15.8-8.9,31.5-13.3,47.3c-1.8,6.5-3.6,12.9-5.5,19.4c-0.4,1.4-0.6,2.9-1.7,4.1c-7.1-5.4-14.5-9.4-23.6-5.5
		c-4.3-0.5-7.2,2.1-10.2,4.5c-2.8,2.3-5.2,5-7.8,7.5c-0.8,1.6-1.9,2.8-3.2,4c-5.9,5.8-11.7,11.7-17.6,17.5c-1,1-1.8,2.1-3.1,2.6
		c-5-2.5-8.4-6.8-11.7-11.2C221.9,222.3,222,221.9,222.2,221.6z"/>
	<path class="st7" d="M184.8,346.6c-0.9,0.9-2.1,0.6-3.2,0.6c-21.3,0-42.6,0-63.9,0c-1.1,0-2.3,0.3-3.2-0.6c7.5-7.5,15-15,22.6-22.6
		c1.4-1,3.1-0.8,4.6-0.8c5.5,0,11.1,0,16.6,0c1.4,0,2.7,0,3.9,0.8C169.8,331.6,177.3,339.1,184.8,346.6z"/>
	<path class="st1" d="M245.5,167.7c0.3,3.8-1.8,6.6-3.9,9.2c-2.5,3.3-5.5,6.2-8.8,8.8c-1.7,0.8-3.5,1.1-5.4,1.1
		c-14.2,0-28.5,0-42.7,0c-1.7,0-3.5,0.2-4.9-1.2c0-6,0-12,0-18C201.7,167.7,223.6,167.7,245.5,167.7z"/>
	<path class="st8" d="M319.5,132.4c-10.3,10.2-20.5,20.4-30.8,30.5c-0.9,0.9-1.5,1.9-1.4,3.3c0.4,5.5-1.8,9.8-6.8,12.2
		c-5.2,2.5-9.9,1.1-14.1-2.6c-3.2-4.2-4.2-8.7-1.7-13.6c2.5-4.8,6.6-6.9,12-6.5c1.3,0.1,2.4-0.3,3.3-1.2
		c10.2-10.3,20.4-20.6,30.6-30.9c4-1.2,8-2.5,12.4-3.8C322.1,124.4,321,128.4,319.5,132.4z"/>
	<path class="st9" d="M179.5,89.4c-3.3-3.2-6.6-6.3-9.7-9.6c-1.6-1.8-2.6-1.5-4.1,0.1c-3.2,3.4-6.6,6.6-10,9.9
		c-3.1-3.1-6.5-6.1-9.3-9.4c-2.1-2.5-3.6-2.2-5.4,0.2c-0.7,1-1.8,1.7-2.7,2.5c-1,0.1-1.3-0.7-1.4-1.4c-1.2-8.2,0.7-15.6,5.6-22.3
		c1.8-0.8,3.7-0.6,5.5-0.6c8.8-0.2,17.6,0.3,26.4-0.3C180.2,68.1,180.2,78.7,179.5,89.4z"/>
	<path class="st3" d="M174.5,58.4c0,2.4-1.9,1.4-3,1.5c-9.7,0.1-19.5,0.1-29.2,0.2c-2,1.1-4,1.7-5.5-0.8c6.2-15.4,12.4-30.8,18.9-47
		C162.1,28.1,168.3,43.3,174.5,58.4z"/>
	<path class="st10" d="M83.8,12.2c0,13.9,0,27.8,0,41.7c-3.4,1.8-20.3,1.8-23.8,0c0-4,0-7.9,0-11.9c2.3-1.9,5-1,7.6-1.2
		c1.5-0.1,3,0,4.5,0c4.4-0.1,4.7-0.3,4.7-4.7c0-4.8-0.2-4.8-5.1-5.1c-3.9-0.2-8,1.2-11.7-1.1c0-5.2,0-10.4-0.1-15.6
		c0-1.8,0.6-2.3,2.3-2.3C69.4,12.1,76.6,12.1,83.8,12.2z"/>
	<path class="st11" d="M339.8,196.1c10.7-10.4,16.5-23.2,18.7-37.9c1.9-12.7-0.3-24.7-5.5-36.2c-1.4-3-2.3-6.6-5.7-8.3
		c0.5-2.8,1.7-4.7,4.9-4.2c17.9,27.3,19.8,55.4,4.1,84.4c-1.3,2.4-3,4.6-4.7,6.7c-1.3,1.3-2.5,2.7-3,4.5
		C344.4,203.3,341.5,200.4,339.8,196.1z"/>
	<path class="st11" d="M329.4,95.7c0-1.4-1.1-1.8-2.1-2.4c-23.7-14.6-54.7-12.1-76,5.9c-1.5,1.3-3.3,2.2-4.4,4
		c-4.3-1.6-7.2-4.6-8.9-8.8c1.9-0.4,3-1.9,4.4-3.1c27-20,63.6-20.2,91.1-0.5C333.8,93.8,331.6,94.8,329.4,95.7z"/>
	<path class="st12" d="M238.1,94.4c2.7,3.2,5.6,6.2,8.9,8.8c4.3,4.7,4.3,4.7-0.2,9.2c-3.8,3.8-7.7,7.5-11.3,11.4
		c-1.6,1.8-2.6,1.5-4.1-0.1c-4.6-4.8-9.2-9.4-14-14c-1.5-1.5-1.6-2.4,0-3.8c4.6-4.4,9.1-8.9,13.5-13.5c1.9-2.1,3.4-2.6,5.2-0.1
		C236.6,93.1,237.4,93.7,238.1,94.4z"/>
	<path class="st10" d="M83.8,113.9c0,11.9,0,23.9,0,35.8c-3.4,1.8-20.3,1.8-23.8,0c0-4,0-7.9,0-11.9c2.3-1.9,5-1,7.6-1.2
		c1.5-0.1,3,0,4.5,0c4.4-0.1,4.7-0.3,4.7-4.7c0-4.8-0.2-4.8-5.1-5.1c-3.9-0.2-8,1.2-11.7-1.1c0-4,0-7.9,0-11.9
		C63.6,112.1,80.4,112.1,83.8,113.9z"/>
	<path class="st10" d="M83.8,66c0,11.9,0,23.9,0,35.8c-3.4,1.8-20.3,1.8-23.8,0c0-4,0-7.9,0-11.9c2.3-1.9,5-1,7.6-1.2
		c1.5-0.1,3,0,4.5,0c4.4-0.1,4.7-0.3,4.7-4.7c0-4.8-0.2-4.8-5.1-5.1c-3.9-0.2-8,1.2-11.7-1.1c0-4,0-7.9,0-11.9
		C63.6,64.2,80.4,64.2,83.8,66z"/>
	<path class="st13" d="M339.8,196.1c2.6,3.2,5.6,6.2,8.8,8.9c4.4,4.7,4.4,4.7-0.1,9.2c-3.9,3.9-7.8,7.7-11.6,11.7
		c-1.4,1.4-2.2,1.4-3.6,0c-4.8-4.9-9.6-9.8-14.5-14.5c-1.2-1.2-1.4-2-0.1-3.3c5-4.9,9.9-9.8,14.8-14.8c1.3-1.4,2.2-1.2,3.3,0.1
		C337.8,194.3,338.8,195.2,339.8,196.1z"/>
	<path class="st10" d="M83.8,161.8c0,11.9,0,23.9,0,35.8c-0.3,0.2-0.5,0.6-0.9,0.7c-7.7,0.8-15.4,1.4-23.1-0.4
		c-1.6-4.1-1.8-8.2,0.1-12.2l0,0c1.8-1.5,4-1,6.1-1.1c1.6-0.1,3.2,0,4.9,0c5.7,0,7.1-2,5.8-7.6c-0.4-1.8-1.6-2-3.1-2
		c-3-0.1-6,0-9-0.1c-1.6,0-3.3,0.1-4.6-1.1c0-2-0.1-4.1-0.1-6.1c0-2,0.1-3.9,0.1-5.9C63.6,159.9,80.4,159.9,83.8,161.8z"/>
	<path class="st13" d="M329.4,95.7c1.4-1.4,2.9-2.9,4.3-4.3c0.3-3.2,2.8-4.2,5.2-5.3c1.6-2,2.8-1.9,4.6,0c4.3,4.6,8.7,9,13.3,13.3
		c1.9,1.8,2,3.1,0.2,4.7c-1.5,2-2.8,4.2-5.3,5.2c-1.7,1.2-3.1,2.7-4.4,4.3c-2.2,1.7-3.9,5.6-6.3,5.3c-2.3-0.3-4.2-3.5-6.2-5.5
		c-3.3-3.2-6.4-6.6-9.8-9.7c-1.6-1.5-1.5-2.5,0.1-3.8C326.6,98.6,328,97.1,329.4,95.7z"/>
	<path class="st6" d="M338.9,86.1c-1.7,1.8-3.5,3.5-5.2,5.3c-2.4-0.3-4-2-5.9-3.1c-13.2-7.9-27.5-11.5-42.7-11
		c-14.7,0.5-28.2,5.2-40.6,13.3c-0.6,0.4-1.2,0.9-2,0.8c4.3-5,10-8.1,15.8-11c12.7-6.4,26.2-9.3,40.4-8.3c13.1,0.9,25.2,5.1,36.4,12
		C336.3,84.7,337.3,85.9,338.9,86.1z"/>
	<path class="st6" d="M351.8,109.4c1.8-1.7,3.5-3.5,5.3-5.2c4,7.4,8.3,14.7,10.7,22.8c5.7,19,4.4,37.5-4,55.4
		c-2.5,5.4-5.4,10.6-9.2,15.3c-0.8,1.1-1.6,2.2-3,2.7c3.6-6.6,7.6-13.1,10-20.4c7.7-23.8,4.8-46.2-8.4-67.4
		C352.6,111.7,351.9,110.7,351.8,109.4z"/>
	<path class="st1" d="M131.6,167.7c0,6,0,12,0,18c-7.9,2-15.9,1.9-23.8,0c0-6,0-12,0-18C115.8,167.7,123.7,167.7,131.6,167.7z"/>
	<path class="st8" d="M60,101.8c7.9,0,15.9,0,23.8,0c6,0.2,6,0.2,6,6.2c0,0.5-0.1,1,0,1.5c0.5,3.3-0.6,4.9-4.2,4.3
		c-0.6-0.1-1.2,0-1.9,0c-7.9,0-15.9,0-23.8,0C60,109.8,60,105.8,60,101.8z"/>
	<path class="st8" d="M83.8,161.8c-7.9,0-15.9,0-23.8,0c0-4,0-8,0-12.1c7.9,0,15.9,0,23.8,0c6,0.2,6,0.2,6,6.2c0,0.5-0.1,1,0,1.5
		c0.5,3.3-0.6,4.9-4.2,4.3C85.1,161.6,84.5,161.7,83.8,161.8z"/>
	<path class="st8" d="M83.8,66C75.9,66,68,66,60,66c0-4,0-8,0-12.1c7.9,0,15.9,0,23.8,0c6,0.2,6,0.2,6,6.2c0,0.5-0.1,1,0,1.5
		c0.5,3.3-0.6,4.9-4.2,4.3C85.1,65.8,84.5,66,83.8,66z"/>
	<path class="st8" d="M60,30c4.9,0,9.7,0.2,14.6,0c2.7-0.1,3.3,0.9,3.3,3.4C78,42,78,42,69.4,42c-3.1,0-6.2,0-9.3,0
		C60,38,60,34,60,30z"/>
	<path class="st8" d="M60,125.7c4.9,0,9.7,0.2,14.6,0c2.7-0.1,3.3,0.9,3.3,3.4c0,8.6,0.1,8.6-8.6,8.6c-3.1,0-6.2,0-9.3,0
		C60,133.8,60,129.8,60,125.7z"/>
	<path class="st8" d="M60,77.8c4.9,0,9.7,0.2,14.6,0c2.7-0.1,3.3,0.9,3.3,3.4c0,8.6,0.1,8.6-8.6,8.6c-3.1,0-6.2,0-9.3,0
		C60,85.9,60,81.9,60,77.8z"/>
	<path class="st14" d="M136.8,59.2c1.7,1.4,3.7,0.3,5.5,0.8c-1.1,2.9-2.1,5.8-3.3,8.6c-1.9,4.7-1.6,9.6-0.6,14.4
		c-2.1,2.1-4.3,4.2-6.4,6.3C131,78.9,131.6,68.7,136.8,59.2z"/>
	<path class="st15" d="M222.2,222.3c3.8,3.7,7.6,7.4,11.4,11c2.1,0,3,1.6,4.2,2.8c2.7,2.9,7.4,5,7.5,8.8c0.1,3.9-4.6,6.1-7.4,8.9
		c-14.2,14.4-28.5,28.6-42.8,42.9c-3.1,2.7-5.6,6.2-9.2,8.5c-15.8,0-31.7,0-47.5,0c-0.2-1,0.3-1.7,0.9-2.3c3.6-3.4,6.6-7.6,11-10.2
		c3-0.7,6.1-0.4,9.2-0.3c5.3,0.2,9.3-1.7,12.2-6.1c5.7-3.7,7.8-8.9,7-15.6c-0.3-2.2-0.2-4.4,0.3-6.6c0.4-1.4,1.5-2.3,2.4-3.2
		c12.2-12.2,24.4-24.4,36.6-36.6C219.1,223.2,220,221.3,222.2,222.3z"/>
	<path class="st16" d="M194.8,296.4c8.8-8.9,17.6-17.9,26.5-26.8c7.3-7.3,14.5-14.7,21.9-21.9c1.8-1.8,2.1-2.8,0.1-4.7
		c-3.4-3.1-6.5-6.5-9.7-9.8c7.8-8,15.6-16.1,23.8-23.7c0,28.9-0.1,57.8-0.1,86.7c-1.4,1.4-3.2,1.2-4.9,1.2c-17.5,0-35.1,0-52.6,0
		C198.1,297.6,196.2,297.8,194.8,296.4z"/>
	<path class="st17" d="M89.9,305.2c-15.2,0-30.4,0-45.6,0.2c-3.3,0-2.4-2.2-2.4-3.8c0-34.7,0-69.5,0-104.2c0-3,0.1-6,0-9
		c-0.1-2.1,0.5-3,2.7-2.8c2.1,0.2,4.2,0.1,6.3,0.2c1.7,1.9,1.1,4.3,1.1,6.4c0,28.9,0,57.8,0,86.7c0,1.6,0,3.2,0,4.9
		c0.4,7,4.6,11.3,11.7,11.4c9.1,0.2,18.2,0,27.3,0.1c1.9,0,3.7-0.1,5.6,0.3c1.9,0.5,1.9,1.7,0.8,3C95.2,300.9,93.1,303.7,89.9,305.2
		z"/>
	<path class="st16" d="M98.2,296.4c-11.5,0-22.9,0-34.4,0c-7.9,0-12.9-4.9-12.9-12.7c0-32.6,0-65.3,0-97.9c3,0,6-0.1,9-0.1
		c0,4,0.1,8,0.1,12c2,3.8,0.7,8,1,11.9c0.1,4,0.1,8,0,12c0.1,4,0.1,8,0,12c0.1,4,0.1,8,0,12c0.1,4,0.1,8,0,12
		c0.2,7.6,0,15.1,0.1,22.7c0,6.1,0,6.1,6.2,6.1c4,0,7.9,0,11.9,0c1.6,0,3.2-0.1,4.6,1.1c7.8,0.1,15.5,0.2,23.3,0.2
		C105.3,291.6,102.3,294.6,98.2,296.4z"/>
	<path class="st18" d="M98.2,296.4c3-3,5.9-5.9,8.9-8.9c0.3-0.3,0.5-0.5,0.8-0.8c0.8-2.5,2.9-4,4.6-5.7c3.4-3.4,6.8-6.9,10.3-10.2
		c0.9-0.8,2-2.7,3.5-0.7c0.8,3.4,0.3,6.9,0.4,10.4c0.3,7.3,4.4,11.5,11.7,11.8c3.6,0.2,7.2-0.6,10.7,0.6c0.1,0.2,0.3,0.3,0.4,0.5
		c-3.8,3.9-7.5,7.9-11.3,11.8c-16.2,0-32.3,0-48.5,0C92.7,302.3,95.5,299.3,98.2,296.4z"/>
	<path class="st17" d="M194.8,296.4c20.8,0,41.7,0,62.5,0c0.5,9,0.5,9-8.2,9c-21,0-42.1-0.1-63.1-0.1
		C188.7,302.1,191.6,299.1,194.8,296.4z"/>
	<path class="st8" d="M60,173.7c5,0,9.9,0,14.9-0.1c2.2-0.1,3,0.5,3.1,2.9c0.2,9.1,0.3,9.1-8.7,9.1c-3.1,0-6.2,0-9.3,0
		C59.9,181.7,60,177.7,60,173.7z"/>
	<path class="st16" d="M125.7,269.5c-5.9,5.7-11.9,11.5-17.8,17.2c0-17.5-0.1-35.1-0.1-52.6c0-16.2,0-32.3,0-48.5
		c7.9,0,15.9,0,23.8,0c0.1,16,0.1,31.9,0.2,47.9c1.4,1.8,1.1,4,1.1,6.1c0,3.8,0.1,7.7-0.1,11.5c0,3.8,0.3,7.5-0.2,11.3
		C131.1,265.5,128.8,267.9,125.7,269.5z"/>
	<path class="st10" d="M83.8,287.3c-7.1,0-14.1,0-21.2,0.2c-2.1,0-2.8-0.7-2.7-2.8c0.1-9.1,0.1-18.1,0.1-27.2
		c3.5-1.8,20.4-1.8,23.8,0C83.8,267.5,83.8,277.4,83.8,287.3z"/>
	<path class="st10" d="M60,221.5c0-4,0-7.9,0-11.9c3.5-1.8,20.4-1.8,23.8,0c0,11.9,0,23.9,0,35.8c-3.4,1.8-20.3,1.8-23.8,0
		c0-4,0-7.9,0-11.9c2.3-1.9,5-1,7.6-1.2c1.5-0.1,3,0,4.5,0c4.4-0.1,4.7-0.3,4.7-4.7c0-4.8-0.2-4.8-5.1-5.1
		C67.8,222.4,63.7,223.8,60,221.5z"/>
	<path class="st8" d="M60,245.5c7.9,0,15.9,0,23.8,0c6,0.2,6,0.2,6,6.2c0,0.5-0.1,1,0,1.5c0.5,3.3-0.6,4.9-4.2,4.3
		c-0.6-0.1-1.2,0-1.9,0c-7.9,0-15.9,0-23.8,0C60,253.5,60,249.5,60,245.5z"/>
	<path class="st8" d="M83.8,209.6c-7.9,0-15.9,0-23.8,0c0-4,0-8,0-12.1c7.9,0,15.9,0,23.8,0c6,0.2,6,0.2,6,6.2c0,0.5-0.1,1,0,1.5
		c0.5,3.3-0.6,4.9-4.2,4.3C85.1,209.5,84.5,209.6,83.8,209.6z"/>
	<path class="st9" d="M155.7,233.4c8,0,16,0.1,23.9,0.1c0.7,0.6,1.1,1.4,1.1,2.3c-0.1,5.3,1.2,10.7-0.8,15.8c-1.5,1.1-3.3,1-5,1
		c-10.7,0-21.3,0-32,0c-1.7,0-3.5,0.1-5-1c-2.3-3.9-0.9-8.3-1.2-12.4c-0.1-1.9-0.4-4,1.2-5.7C143.7,233.6,149.7,233.5,155.7,233.4z"
		/>
	<path class="st14" d="M137.8,233.7c0,5.9,0,11.8,0,17.7c-0.1,0.2-0.3,0.3-0.4,0.5c-1.9,0.8-3.8,1-5.5-0.4c0-6,0-12,0-18
		C133.8,233.6,135.8,233.6,137.8,233.7z"/>
	<path class="st18" d="M179.6,251.5c0-6,0-12,0-18c0.1-6.2,0.1-12.4,0.2-18.7c1.5-3.4,4.6-5.5,7.1-8.1c2.6-2.8,5.4-5.5,8.2-8.2
		c1.1-1.1,2.5-2.2,3.9-0.9c3.8,3.5,8.1,6.6,10.6,11.3c3.6,4.8,7.8,9.1,12.7,12.6c0,0.2,0,0.4,0,0.7c-1.8,0-2.5,1.4-3.6,2.5
		c-13,12.9-26,25.8-39,38.7C177.7,259.5,178,255.5,179.6,251.5z"/>
	<path class="st16" d="M209.6,209c-3.2-3.1-6.5-6.1-9.5-9.4c-2-2.2-3.1-1.8-4.9,0.1c-5,5.2-10.2,10.1-15.3,15.1c0-9.7,0-19.5,0-29.2
		c17.7,0,35.4,0.1,53.1,0.1C225.3,193.7,217.5,201.5,209.6,209z"/>
	<path class="st19" d="M179.6,251.5c0.1,4,0.1,8,0.2,12c0,3.5-0.3,7,0,10.4c0.4,6.1-2.3,10.2-7.5,12.9c-1.2,1.6-2.9,1.7-4.7,1.7
		c-4.1,0-8.2,0-12.3,0c-2.8-0.2-5.5,0.3-8.3-0.4c-7.5-2.9-10.2-6.7-10.2-14.6c0-5.8,0-11.7,0-17.5c0-1.6-0.1-3.3,1.1-4.6
		c0,0,0-0.2,0-0.2C151.7,251.4,165.6,251.5,179.6,251.5z"/>
	<path class="st20" d="M155,287.6c5.7-0.7,11.5,0.6,17.2-0.8c-2,4.4-5.6,6.4-10.2,6.6c-4.1,0.1-8.1,0.1-12.2,0.1c0,0,0,0,0,0
		C150.1,290.2,152.6,288.9,155,287.6z"/>
	<path class="st8" d="M60,221.5c4.9,0,9.7,0.2,14.6,0c2.7-0.1,3.3,0.9,3.3,3.4c0,8.6,0.1,8.6-8.6,8.6c-3.1,0-6.2,0-9.3,0
		C60,229.6,60,225.5,60,221.5z"/>
	<path class="st21" d="M155,287.6c-1.8,1.9-3.5,3.9-5.3,5.8c-3.8,0-7.7,0-11.5,0c-7.4-0.1-12.3-5-12.4-12.4c0-3.8,0-7.7,0-11.5
		c1.8-2.2,3.7-4.3,6-5.9c2,3.5,0.9,7.3,1,10.9c0.1,3.4,0.9,6.3,3.4,8.7c1.9,1.8,4,2.8,6.6,3.2c1.3,0.2,2.7,0.5,4,0.9
		C149.5,287.4,152.2,287.5,155,287.6z"/>
	<path class="st11" d="M146.7,287.3c-4.4,0.5-8.4,0-11.6-3.5c-2.2-2.4-3.5-5-3.4-8.3c0.1-4,0-7.9,0-11.9c0-4,0.1-8,0.1-12.1
		c2,0,3.9,0.1,5.9,0.1c0,7.1,0.3,14.2-0.1,21.2C137.3,280,140.3,284.6,146.7,287.3z"/>
</g>
</svg>
