<?xml version="1.0" encoding="utf-8"?>
<!-- Generator: Adobe Illustrator 26.0.1, SVG Export Plug-In . SVG Version: 6.00 Build 0)  -->
<svg version="1.1" id="Layer_1" xmlns="http://www.w3.org/2000/svg" xmlns:xlink="http://www.w3.org/1999/xlink" x="0px" y="0px"
	 viewBox="0 0 45 45" style="enable-background:new 0 0 45 45;" xml:space="preserve">
<style type="text/css">
	.st0{fill-rule:evenodd;clip-rule:evenodd;fill:url(#SVGID_1_);}
	.st1{fill-rule:evenodd;clip-rule:evenodd;fill:url(#SVGID_00000052086289654712130340000009618443013793357463_);}
	.st2{fill-rule:evenodd;clip-rule:evenodd;fill:url(#SVGID_00000060029644898954672800000018163705385510649736_);}
	.st3{fill-rule:evenodd;clip-rule:evenodd;fill:url(#SVGID_00000137843131983202358050000004710804290551424898_);}
	.st4{fill-rule:evenodd;clip-rule:evenodd;fill:url(#SVGID_00000109019292715391454490000003523494761191136175_);}
	.st5{fill-rule:evenodd;clip-rule:evenodd;fill:url(#SVGID_00000176023510584525861610000014536129564187505796_);}
	.st6{fill-rule:evenodd;clip-rule:evenodd;fill:#E00000;}
	.st7{fill-rule:evenodd;clip-rule:evenodd;fill:url(#SVGID_00000162347231691618726580000002837397237864760975_);}
	.st8{fill-rule:evenodd;clip-rule:evenodd;fill:url(#SVGID_00000093144368185447753050000009301189972846621602_);}
	.st9{fill-rule:evenodd;clip-rule:evenodd;fill:url(#SVGID_00000170251974275655155270000007936560638974295183_);}
</style>
<linearGradient id="SVGID_1_" gradientUnits="userSpaceOnUse" x1="12.3939" y1="29.4105" x2="17.9537" y2="19.7808">
	<stop  offset="0" style="stop-color:#624AED"/>
	<stop  offset="1" style="stop-color:#2F0088"/>
</linearGradient>
<path class="st0" d="M24.8,23.8H5.6c-0.4,0-0.8,0.3-0.8,0.8c0,0.4,0.3,0.8,0.8,0.8h19.2c0.4,0,0.8-0.3,0.8-0.8
	C25.5,24.2,25.2,23.8,24.8,23.8z"/>
<linearGradient id="SVGID_00000119100793386565939600000001305866963769098926_" gradientUnits="userSpaceOnUse" x1="11.9441" y1="25.3946" x2="17.2039" y2="16.2843">
	<stop  offset="0" style="stop-color:#624AED"/>
	<stop  offset="1" style="stop-color:#2F0088"/>
</linearGradient>
<path style="fill-rule:evenodd;clip-rule:evenodd;fill:url(#SVGID_00000119100793386565939600000001305866963769098926_);" d="
	M23.6,20.1h-18c-0.4,0-0.8,0.3-0.8,0.8c0,0.4,0.3,0.8,0.8,0.8h18c0.4,0,0.8-0.3,0.8-0.8C24.3,20.4,24,20.1,23.6,20.1z"/>
<linearGradient id="SVGID_00000170974601356522630280000006693453066820122754_" gradientUnits="userSpaceOnUse" x1="27.5358" y1="21.2115" x2="33.1713" y2="11.4505">
	<stop  offset="0" style="stop-color:#624AED"/>
	<stop  offset="1" style="stop-color:#2F0088"/>
</linearGradient>
<path style="fill-rule:evenodd;clip-rule:evenodd;fill:url(#SVGID_00000170974601356522630280000006693453066820122754_);" d="
	M40.1,15.6H20.6c-0.4,0-0.8,0.3-0.8,0.8c0,0.4,0.3,0.8,0.8,0.8h19.5c0.4,0,0.8-0.3,0.8-0.8C40.9,15.9,40.5,15.6,40.1,15.6z"/>
<linearGradient id="SVGID_00000058580061265671532610000001969198501315271072_" gradientUnits="userSpaceOnUse" x1="28.9447" y1="17.3417" x2="34.0167" y2="8.5568">
	<stop  offset="0" style="stop-color:#624AED"/>
	<stop  offset="1" style="stop-color:#2F0088"/>
</linearGradient>
<path style="fill-rule:evenodd;clip-rule:evenodd;fill:url(#SVGID_00000058580061265671532610000001969198501315271072_);" d="
	M40.1,12.2H22.8c-0.4,0-0.8,0.3-0.8,0.8c0,0.4,0.3,0.8,0.8,0.8h17.3c0.4,0,0.8-0.3,0.8-0.8C40.9,12.5,40.5,12.2,40.1,12.2z"/>
<linearGradient id="SVGID_00000137103272166677793370000009294806654206650536_" gradientUnits="userSpaceOnUse" x1="27.5358" y1="14.448" x2="33.1713" y2="4.6869">
	<stop  offset="0" style="stop-color:#624AED"/>
	<stop  offset="1" style="stop-color:#2F0088"/>
</linearGradient>
<path style="fill-rule:evenodd;clip-rule:evenodd;fill:url(#SVGID_00000137103272166677793370000009294806654206650536_);" d="
	M40.1,8.8H20.6c-0.4,0-0.8,0.3-0.8,0.8s0.3,0.8,0.8,0.8h19.5c0.4,0,0.8-0.3,0.8-0.8C40.9,9.2,40.5,8.8,40.1,8.8z"/>
<linearGradient id="SVGID_00000182491702155014220070000004702843617196808576_" gradientUnits="userSpaceOnUse" x1="13.4052" y1="16.3487" x2="17.085" y2="9.9751">
	<stop  offset="0" style="stop-color:#624AED"/>
	<stop  offset="1" style="stop-color:#2F0088"/>
</linearGradient>
<path style="fill-rule:evenodd;clip-rule:evenodd;fill:url(#SVGID_00000182491702155014220070000004702843617196808576_);" d="
	M14.3,10.1l2.3,2.3c0.3,0.3,0.3,0.8,0,1l-2.3,2.3c-0.3,0.3-0.3,0.8,0,1.1c0.3,0.3,0.8,0.3,1.1,0c0,0,1.3-1.3,2.3-2.3
	c0.9-0.9,0.9-2.3,0-3.1c-1-1-2.3-2.3-2.3-2.3c-0.3-0.3-0.8-0.3-1.1,0C14.1,9.3,14,9.8,14.3,10.1L14.3,10.1z"/>
<path class="st6" d="M36.9,19.9l2.3,2.3c0.3,0.3,0.3,0.8,0,1l-2.3,2.3c-0.3,0.3-0.3,0.8,0,1.1c0.3,0.3,0.8,0.3,1.1,0
	c0,0,1.3-1.3,2.3-2.3c0.9-0.9,0.9-2.3,0-3.1c-1-1-2.3-2.3-2.3-2.3c-0.3-0.3-0.8-0.3-1.1,0C36.6,19.1,36.6,19.6,36.9,19.9L36.9,19.9z
	"/>
<linearGradient id="SVGID_00000095339091217481915290000017391282142321717653_" gradientUnits="userSpaceOnUse" x1="6.0517" y1="15.9234" x2="9.7314" y2="9.5499">
	<stop  offset="0" style="stop-color:#624AED"/>
	<stop  offset="1" style="stop-color:#2F0088"/>
</linearGradient>
<path style="fill-rule:evenodd;clip-rule:evenodd;fill:url(#SVGID_00000095339091217481915290000017391282142321717653_);" d="
	M7.7,9c0,0-1.3,1.3-2.3,2.3c-0.9,0.9-0.9,2.3,0,3.1c1,1,2.3,2.3,2.3,2.3c0.3,0.3,0.8,0.3,1.1,0c0.3-0.3,0.3-0.8,0-1.1l-2.3-2.3
	c-0.3-0.3-0.3-0.8,0-1l2.3-2.3c0.3-0.3,0.3-0.8,0-1.1C8.5,8.7,8,8.7,7.7,9L7.7,9z"/>
<path class="st6" d="M30.3,18.8c0,0-1.3,1.3-2.3,2.3c-0.9,0.9-0.9,2.3,0,3.1c1,1,2.3,2.3,2.3,2.3c0.3,0.3,0.8,0.3,1.1,0
	c0.3-0.3,0.3-0.8,0-1.1l-2.3-2.3c-0.3-0.3-0.3-0.8,0-1l2.3-2.3c0.3-0.3,0.3-0.8,0-1.1C31,18.5,30.6,18.5,30.3,18.8L30.3,18.8z"/>
<linearGradient id="SVGID_00000121277033482271208300000015113742609921744012_" gradientUnits="userSpaceOnUse" x1="9.7809" y1="16.0367" x2="13.3456" y2="9.8623">
	<stop  offset="0" style="stop-color:#624AED"/>
	<stop  offset="1" style="stop-color:#2F0088"/>
</linearGradient>
<path style="fill-rule:evenodd;clip-rule:evenodd;fill:url(#SVGID_00000121277033482271208300000015113742609921744012_);" d="
	M11.6,9.9l-1.5,5.6c-0.1,0.4,0.1,0.8,0.5,0.9c0.4,0.1,0.8-0.1,0.9-0.5l1.5-5.6c0.1-0.4-0.1-0.8-0.5-0.9C12.1,9.3,11.7,9.5,11.6,9.9
	L11.6,9.9z"/>
<path class="st6" d="M33.7,21.2v-0.8h0.8V22l-0.9,0.9c-0.1,0.1-0.2,0.3-0.2,0.5v0.8c0,0.4,0.3,0.8,0.8,0.8s0.8-0.3,0.8-0.8v-0.4
	l0.9-0.9c0.1-0.1,0.2-0.3,0.2-0.5v-2.6c0-0.4-0.3-0.8-0.8-0.8H33c-0.4,0-0.8,0.3-0.8,0.8v1.5c0,0.4,0.3,0.8,0.8,0.8
	S33.7,21.6,33.7,21.2L33.7,21.2z"/>
<linearGradient id="SVGID_00000149344484650944621200000017766864526589104024_" gradientUnits="userSpaceOnUse" x1="11.6215" y1="39.1411" x2="34.0563" y2="0.2828">
	<stop  offset="0" style="stop-color:#624AED"/>
	<stop  offset="1" style="stop-color:#2F0088"/>
</linearGradient>
<path style="fill-rule:evenodd;clip-rule:evenodd;fill:url(#SVGID_00000149344484650944621200000017766864526589104024_);" d="
	M17.5,34c-0.1,1.2-0.6,3.4-2,4.7c-0.2,0.2-0.3,0.5-0.2,0.8s0.4,0.5,0.7,0.5h13.5c0.3,0,0.6-0.2,0.7-0.5c0.1-0.3,0-0.6-0.2-0.8
	c-1.4-1.3-1.8-3.5-2-4.7h14.2c1.2,0,2.3-1,2.3-2.3v-24c0-1.2-1-2.3-2.3-2.3H3.3C2.1,5.4,1,6.4,1,7.7v24C1,33,2.1,34,3.3,34H17.5z
	 M26.7,34H19c-0.1,1-0.5,2.9-1.4,4.5h10.5C27.1,36.9,26.8,35,26.7,34L26.7,34z M43.1,28.7H2.6v-21c0-0.4,0.3-0.8,0.8-0.8h39.1
	c0.4,0,0.8,0.3,0.8,0.8V28.7z"/>
<path class="st6" d="M34.9,26.1c0,0.4-0.3,0.8-0.8,0.8c-0.4,0-0.8-0.3-0.8-0.8s0.3-0.8,0.8-0.8C34.5,25.3,34.9,25.7,34.9,26.1"/>
</svg>
