<?xml version="1.0" encoding="utf-8"?>
<!-- Generator: Adobe Illustrator 26.0.1, SVG Export Plug-In . SVG Version: 6.00 Build 0)  -->
<svg version="1.1" id="Layer_1" xmlns="http://www.w3.org/2000/svg" xmlns:xlink="http://www.w3.org/1999/xlink" x="0px" y="0px"
	 viewBox="0 0 45 45" style="enable-background:new 0 0 45 45;" xml:space="preserve">
<style type="text/css">
	.st0{fill:url(#SVGID_1_);}
	.st1{fill:url(#SVGID_00000130636295656870723900000013002020095558522501_);}
	.st2{fill:url(#SVGID_00000170257376558694228040000011428008994978233731_);}
	.st3{fill:#E21A05;}
</style>
<path d="M10.3,4h0.9v5h-0.9V4z"/>
<path d="M34,4h0.9v5H34V4z"/>
<linearGradient id="SVGID_1_" gradientUnits="userSpaceOnUse" x1="10.9874" y1="-2.590303e-02" x2="34.2558" y2="40.2762">
	<stop  offset="0" style="stop-color:#3514C3"/>
	<stop  offset="1" style="stop-color:#250097"/>
</linearGradient>
<path class="st0" d="M22.6,34.2c-0.7,0-1.2-0.5-1.2-1.2c0-0.7,0.5-1.2,1.2-1.2c0.6,0,1.2,0.5,1.2,1.2C23.8,33.7,23.3,34.2,22.6,34.2
	z M42.3,4.9h-6.5v3.2h5.4v22.8L4,30.8V8.1h5.4V4.9l-6.5,0C2,4.9,1.3,5.6,1.3,6.6v27.1c0,0.9,0.8,1.7,1.7,1.7h39.4
	c0.9,0,1.7-0.7,1.7-1.7V6.6C44,5.6,43.2,4.9,42.3,4.9L42.3,4.9z"/>
<linearGradient id="SVGID_00000039827477418962211590000008568615845964651935_" gradientUnits="userSpaceOnUse" x1="18.6745" y1="36.1841" x2="25.1639" y2="47.424">
	<stop  offset="0" style="stop-color:#2424CE"/>
	<stop  offset="1" style="stop-color:#120093"/>
</linearGradient>
<path style="fill:url(#SVGID_00000039827477418962211590000008568615845964651935_);" d="M31.1,42.4V44H14.2v-1.6
	c0-0.8,0.6-1.4,1.4-1.4h3v-4.8h8.2V41h3C30.5,41,31.1,41.7,31.1,42.4L31.1,42.4z"/>
<linearGradient id="SVGID_00000132773041840675268940000006292096269860183472_" gradientUnits="userSpaceOnUse" x1="13.2908" y1="-0.4205" x2="31.8312" y2="31.6924">
	<stop  offset="0" style="stop-color:#3514C3"/>
	<stop  offset="1" style="stop-color:#250097"/>
</linearGradient>
<path style="fill:url(#SVGID_00000132773041840675268940000006292096269860183472_);" d="M29.3,17.7h2.4c0.1,0,0.2,0,0.3,0.1l3-3
	v-13c0-0.5-0.4-0.9-0.9-0.9H11.2c-0.5,0-0.9,0.4-0.9,0.9v28.1h24.6l0-7.8c-2.4,2.4-4.9,4.9-5.2,5.2l-4.6,1.3
	c-0.2,0.1-0.5-0.2-0.4-0.4l0.1-0.3h-4.2c-0.3,0-0.5-0.2-0.5-0.5c0-0.3,0.2-0.5,0.5-0.5h4.4l1-3.3l0.4-0.4l-12.9,0
	c-0.3,0-0.5-0.2-0.5-0.5c0-0.3,0.2-0.5,0.5-0.5h13.8l3.7-3.7h-1.8c-0.3,0-0.5-0.2-0.5-0.5C28.9,17.9,29.1,17.7,29.3,17.7L29.3,17.7z
	 M13.6,27h4.4c0.3,0,0.5,0.2,0.5,0.5c0,0.3-0.2,0.5-0.5,0.5l-4.4,0c-0.3,0-0.5-0.2-0.5-0.5C13.1,27.2,13.3,27,13.6,27z M13.6,3.8
	h18.1c0.3,0,0.5,0.2,0.5,0.5c0,0.3-0.2,0.5-0.5,0.5l-18.1,0c-0.3,0-0.5-0.2-0.5-0.5C13.1,4.1,13.3,3.8,13.6,3.8z M32.1,8.9
	c0,0.3-0.2,0.5-0.5,0.5H20.3c-0.3,0-0.5-0.2-0.5-0.5c0-0.3,0.2-0.5,0.5-0.5l11.4,0C31.9,8.5,32.1,8.7,32.1,8.9L32.1,8.9z M13.6,8.5
	h4c0.3,0,0.5,0.2,0.5,0.5c0,0.3-0.2,0.5-0.5,0.5l-4,0c-0.3,0-0.5-0.2-0.5-0.5C13.1,8.7,13.3,8.5,13.6,8.5L13.6,8.5z M26.4,18.6H13.6
	c-0.3,0-0.5-0.2-0.5-0.5c0-0.3,0.2-0.5,0.5-0.5h12.8c0.3,0,0.5,0.2,0.5,0.5C26.9,18.4,26.6,18.6,26.4,18.6z M13.6,14
	c-0.3,0-0.5-0.2-0.5-0.5s0.2-0.5,0.5-0.5l18.1,0c0.3,0,0.5,0.2,0.5,0.5c0,0.3-0.2,0.5-0.5,0.5L13.6,14z"/>
<path class="st3" d="M37.9,17.8l-8,8l-2.4-2.4l8-8L37.9,17.8z"/>
<path class="st3" d="M35.5,15.5l1.1-1.1c0.2-0.2,0.6-0.2,0.9,0.1l1.4,1.4c0.3,0.3,0.3,0.6,0.1,0.9l-1.1,1.1L35.5,15.5z"/>
<path class="st3" d="M26.9,24.1l2.4,2.4l-3.1,0.9c-0.1,0-0.2-0.1-0.2-0.2L26.9,24.1z"/>
</svg>
