<?xml version="1.0" encoding="utf-8"?>
<!-- Generator: Adobe Illustrator 26.0.1, SVG Export Plug-In . SVG Version: 6.00 Build 0)  -->
<svg version="1.1" id="Layer_1" xmlns="http://www.w3.org/2000/svg" xmlns:xlink="http://www.w3.org/1999/xlink" x="0px" y="0px"
	 viewBox="0 0 45 45" style="enable-background:new 0 0 45 45;" xml:space="preserve">
<style type="text/css">
	.st0{fill:#AA4900;}
	.st1{fill:#C45800;}
	.st2{fill:#E26D1E;}
</style>
<path class="st0" d="M12.6,4.6V2.2h21.6v9.6h1l0-10.1c0-0.3-0.2-0.5-0.5-0.5H12.2c-0.3,0-0.5,0.2-0.5,0.5v2.9
	C11.8,4.6,12.4,4.6,12.6,4.6L12.6,4.6z"/>
<path class="st0" d="M34.3,31.3v11.4l-21.6,0v-1.4h-1v1.8c0,0.3,0.2,0.5,0.5,0.5h22.7c0.3,0,0.5-0.2,0.5-0.5l0-11.9L34.3,31.3
	L34.3,31.3z"/>
<path class="st1" d="M37.9,21.5c-0.8-1.2-1.9-2.2-3.1-3.1c-1.2,0.9-2.2,2-3.1,3.1c0.8,1.2,1.9,2.2,3.1,3.1
	C36,23.8,37.1,22.7,37.9,21.5z M34.8,22.8c-0.7,0-1.2-0.5-1.2-1.2c0-0.7,0.5-1.2,1.2-1.2c0.7,0,1.2,0.5,1.2,1.2S35.5,22.8,34.8,22.8
	L34.8,22.8z"/>
<path class="st1" d="M35.7,25.2c0.9,0.5,2.6,1.3,3.3,0.5c0.5-0.5,0.3-1.8-0.5-3.3C37.7,23.5,36.7,24.5,35.7,25.2L35.7,25.2z"/>
<path class="st1" d="M33.9,17.9c-0.9-0.5-2.6-1.3-3.3-0.5c-0.5,0.5-0.3,1.8,0.5,3.3C31.9,19.6,32.8,18.7,33.9,17.9L33.9,17.9z"/>
<path class="st1" d="M31.1,22.5c-0.9,1.5-1.1,2.8-0.5,3.3c0.7,0.7,2.4-0.1,3.3-0.5C32.9,24.5,31.9,23.5,31.1,22.5L31.1,22.5z"/>
<path class="st1" d="M35.7,17.9c1,0.7,2,1.7,2.7,2.7c0.9-1.5,1.1-2.8,0.5-3.3C38.3,16.6,36.6,17.4,35.7,17.9L35.7,17.9z"/>
<path class="st1" d="M34.8,12.8c-4.8,0-8.8,3.9-8.8,8.8s3.9,8.8,8.8,8.8c4.8,0,8.8-3.9,8.8-8.8S39.6,12.8,34.8,12.8L34.8,12.8z
	 M39.7,26.5c-1.2,1.2-3.5,0.3-5-0.6c-1.4,0.9-3.7,1.8-5,0.6c-1-1-0.7-2.9,0.6-5c-1.3-2-1.6-3.9-0.6-5c1-1,2.9-0.7,5,0.6
	c2-1.3,3.9-1.6,5-0.6c1,1,0.7,2.9-0.6,5C40.4,23.6,40.7,25.6,39.7,26.5z"/>
<path class="st0" d="M12.1,33.6c6.5,0,11.1-2.1,11.1-3.9v-4.8c-1.8,1.8-6.1,2.9-11.1,2.9c-5,0-9.3-1.2-11.1-2.9v4.8
	C1,31.5,5.6,33.6,12.1,33.6z"/>
<path class="st2" d="M12.1,26.8c6.5,0,11.1-2.1,11.1-3.9v-4.8c-4.1,3.9-18,3.9-22.2,0v4.8C1,24.8,5.6,26.8,12.1,26.8L12.1,26.8z"/>
<path class="st0" d="M12.1,20.1c6.5,0,11.1-2.1,11.1-3.9v-4.6c-4.1,3.9-18,3.9-22.2,0v4.6C1,18,5.6,20.1,12.1,20.1L12.1,20.1z"/>
<path class="st2" d="M12.1,13.4c6.5,0,11.1-2,11.1-3.9s-4.6-3.9-11.1-3.9C5.6,5.6,1,7.7,1,9.5C1,11.3,5.6,13.4,12.1,13.4z"/>
<path class="st2" d="M23.2,36.4v-4.8c-1.8,1.8-6.1,2.9-11.1,2.9c-5,0-9.3-1.2-11.1-2.9v4.8c0,1.9,4.6,3.9,11.1,3.9
	C18.7,40.4,23.2,38.3,23.2,36.4z"/>
</svg>
