<?xml version="1.0" encoding="utf-8"?>
<!-- Generator: Adobe Illustrator 26.0.1, SVG Export Plug-In . SVG Version: 6.00 Build 0)  -->
<svg version="1.1" id="Layer_1" xmlns="http://www.w3.org/2000/svg" xmlns:xlink="http://www.w3.org/1999/xlink" x="0px" y="0px"
	 viewBox="0 0 45 45" style="enable-background:new 0 0 45 45;" xml:space="preserve">
<style type="text/css">
	.st0{fill:none;stroke:#3335A8;stroke-width:2;stroke-miterlimit:10;}
	.st1{fill:#3335A8;}
	.st2{opacity:0.2;}
	.st3{fill:url(#SVGID_1_);}
	.st4{fill:url(#SVGID_00000032630736563355906170000005664572581023561102_);}
	.st5{fill:url(#SVGID_00000055705822816680190190000016915116447794086277_);}
	.st6{fill:url(#SVGID_00000091719669897657499460000018116892159228914589_);}
	.st7{opacity:0.15;}
	.st8{fill:url(#SVGID_00000123425827026426288560000012949997413921752200_);}
	.st9{fill:url(#SVGID_00000144326485310657506510000000513387019015595679_);}
</style>
<path id="_x3C_Rectangle_x3E__00000139992963100842699270000010933521496640963004_" class="st0" d="M37.5,38H6.3
	c-2.6,0-4.7-2.1-4.7-4.7V12c0-2.6,2.1-4.7,4.7-4.7h31.2c2.6,0,4.7,2.1,4.7,4.7v21.3C42.2,35.9,40.1,38,37.5,38z"/>
<path id="_x3C_Rectangle_x3E__00000017511330452097402370000008952645455034994093_" class="st1" d="M0.8,11.8H43v-0.2
	c0-3-2.4-5.4-5.4-5.4H6.2c-3,0-5.4,2.4-5.4,5.4V11.8z"/>
<path class="st2" d="M36.2,20.1C36.1,20,36,20,35.9,19.9c0,0,0,0,0,0c0,0-0.1,0-0.1-0.1c0,0-0.1-0.1-0.1-0.1c0,0,0,0-0.1-0.1
	c0,0-0.1,0-0.1-0.1c0,0-0.1,0-0.1-0.1c0,0-0.1-0.1-0.1-0.1c0,0-0.1,0-0.1-0.1c0,0,0,0-0.1,0c0,0-0.1-0.1-0.1-0.1
	c-0.1,0-0.1-0.1-0.2-0.1c0,0-0.1-0.1-0.1-0.1c0,0,0,0,0,0c0,0-0.1-0.1-0.2-0.1c0,0-0.1,0-0.1-0.1c0,0,0,0,0,0c0,0,0,0,0,0
	c0,0,0,0,0,0c-0.1,0-0.1-0.1-0.2-0.1c0,0-0.1,0-0.1-0.1c-0.1,0-0.1-0.1-0.2-0.1c0,0,0,0,0,0h0c-0.1,0-0.1-0.1-0.2-0.1c0,0,0,0,0,0
	c-0.1,0-0.1-0.1-0.2-0.1c0,0-0.1,0-0.1,0c-0.1,0-0.1,0-0.2-0.1c0,0-0.1,0-0.1,0c-0.1,0-0.2-0.1-0.3-0.1c-0.1,0-0.1,0-0.2,0
	c-0.1,0-0.1,0-0.2,0c-0.1,0-0.1,0-0.2,0c0,0-0.1,0-0.1,0c-0.1,0-0.2,0-0.3-0.1c0,0-0.1,0-0.1,0c-0.1,0-0.1,0-0.2,0c0,0-0.1,0-0.1,0
	c-0.1,0-0.2,0-0.2,0c0,0,0,0,0,0c0,0-0.1,0-0.1,0c0,0,0,0,0,0c-0.1,0-0.2,0-0.3,0c-0.1,0-0.3,0-0.4,0c-0.1,0-0.1,0-0.2,0
	c-0.1,0-0.1,0-0.2,0c-0.1,0-0.1,0-0.2,0c-0.1,0-0.1,0-0.2,0c-0.1,0-0.2,0-0.2,0c0,0-0.1,0-0.1,0c-0.1,0-0.2,0-0.3,0.1
	c0,0-0.1,0-0.1,0c-0.1,0-0.2,0.1-0.3,0.1c0,0,0,0-0.1,0c-0.1,0-0.2,0.1-0.3,0.1c0,0,0,0,0,0c0,0,0,0,0,0c0,0,0,0,0,0c0,0,0,0,0,0
	c-0.1,0-0.2,0.1-0.3,0.1c0,0,0,0,0,0c-0.1,0-0.2,0.1-0.3,0.1c0,0,0,0,0,0c-0.1,0.1-0.2,0.1-0.4,0.2c0,0-0.1,0.1-0.1,0.1c0,0,0,0,0,0
	c0,0,0,0,0,0c-0.1,0.1-0.2,0.1-0.3,0.2c0,0,0,0,0,0c0,0,0,0,0,0c-0.1,0-0.1,0.1-0.2,0.1c0,0,0,0-0.1,0c0,0,0,0,0,0
	c-0.1,0.1-0.2,0.1-0.2,0.2c0,0,0,0,0,0l0,0c-0.1,0.1-0.2,0.2-0.3,0.3c0,0,0,0,0,0c-0.1,0-0.1,0.1-0.2,0.1c-0.1,0.1-0.1,0.1-0.2,0.2
	l0,0c0,0,0,0,0,0L22,23.4l-0.1,0.1l-3.4-3.4c-1.5-1.5-3.4-2.2-5.4-2.2s-4,0.8-5.4,2.2c0,0,0,0,0,0l0,0c0,0,0,0,0,0
	c-1.5,1.5-2.2,3.5-2.2,5.4c0,0,0,0,0,0c0,0.1,0,0.2,0,0.4c0,0,0,0,0,0c0,0.1,0,0.2,0,0.3c0,0,0,0,0,0c0,0.1,0,0.2,0,0.3c0,0,0,0,0,0
	c0,0.1,0,0.2,0.1,0.3c0,0,0,0,0,0.1c0,0.1,0,0.2,0.1,0.3c0,0,0,0.1,0,0.1c0,0.1,0,0.2,0.1,0.3c0,0,0,0.1,0,0.1
	c0,0.1,0.1,0.2,0.1,0.3c0,0,0,0.1,0,0.1c0,0.1,0.1,0.2,0.1,0.2c0,0,0,0.1,0.1,0.1c0,0.1,0.1,0.1,0.1,0.2c0,0,0,0.1,0.1,0.1
	c0,0.1,0.1,0.1,0.1,0.2c0,0,0.1,0.1,0.1,0.1c0,0.1,0.1,0.1,0.1,0.2c0,0.1,0.1,0.1,0.1,0.2c0,0.1,0.1,0.1,0.1,0.2
	c0,0.1,0.1,0.1,0.1,0.2c0,0.1,0.1,0.1,0.1,0.2C7,30.2,7,30.2,7,30.3c0,0,0.1,0.1,0.1,0.1c0,0.1,0.1,0.1,0.2,0.2c0,0,0.1,0.1,0.1,0.1
	c0.1,0.1,0.2,0.2,0.3,0.3c0.1,0.1,0.2,0.2,0.3,0.3c0,0,0.1,0.1,0.1,0.1c0.1,0,0.1,0.1,0.2,0.1c0,0,0,0,0,0c0,0,0,0,0,0
	c0.1,0,0.1,0.1,0.2,0.1c0,0,0.1,0.1,0.1,0.1c0,0,0,0,0,0l0,0c0,0,0.1,0.1,0.1,0.1l0,0c0,0,0,0,0,0c0,0,0.1,0,0.1,0.1
	c0,0,0.1,0,0.1,0.1C8.9,32,9,32,9.1,32.1c0,0,0,0,0.1,0c0,0,0,0,0,0c0,0,0,0,0,0c0.1,0.1,0.2,0.1,0.3,0.1c0,0,0.1,0,0.1,0
	c0.1,0,0.1,0.1,0.2,0.1c0,0,0,0,0,0c0,0,0,0,0,0c0,0,0,0,0,0c0.1,0,0.1,0.1,0.2,0.1c0,0,0,0,0,0c0.1,0.1,0.2,0.1,0.4,0.1
	c0,0,0.1,0,0.1,0c0,0,0,0,0,0c0,0,0.1,0,0.1,0c0,0,0.1,0,0.1,0c0,0,0.1,0,0.1,0c0,0,0.1,0,0.1,0c0,0,0,0,0.1,0c0,0,0.1,0,0.1,0
	c0,0,0.1,0,0.1,0c0,0,0.1,0,0.1,0c0,0,0.1,0,0.1,0c0.1,0,0.1,0,0.2,0c0,0,0.1,0,0.1,0c0.1,0,0.1,0,0.2,0c0,0,0.1,0,0.1,0
	c0,0,0,0,0,0c0,0,0.1,0,0.1,0c0,0,0.1,0,0.1,0c0,0,0.1,0,0.1,0c0,0,0.1,0,0.1,0c0,0,0.1,0,0.1,0c0,0,0.1,0,0.1,0c0,0,0.1,0,0.1,0
	c0,0,0,0,0.1,0c0.1,0,0.2,0,0.3,0c0.5,0,1,0,1.5-0.1c0.2,0,0.5-0.1,0.7-0.2c0.1,0,0.2-0.1,0.4-0.1c0.5-0.2,0.9-0.4,1.4-0.6
	c0.1-0.1,0.2-0.1,0.3-0.2c0.4-0.3,0.8-0.6,1.2-1l3.4-3.4l1.1,1.1l0,0l1,1l0,0l0,0l1.3,1.3c0.1,0.1,0.2,0.2,0.3,0.3
	c0.3,0.3,0.6,0.5,0.9,0.7c0.2,0.1,0.4,0.3,0.7,0.4s0.5,0.2,0.7,0.3c0.9,0.4,1.9,0.6,2.9,0.6c0.1,0,0.2,0,0.4,0c0.7,0,1.4-0.2,2-0.4
	l0,0c0,0,0,0,0,0c0,0,0.1,0,0.1,0c0.2-0.1,0.3-0.1,0.5-0.2c0,0,0,0,0,0c0,0,0,0,0.1,0c0.1,0,0.1,0,0.2-0.1c0,0,0.1,0,0.1-0.1
	c0,0,0,0,0,0c0,0,0,0,0,0c0.1,0,0.1-0.1,0.2-0.1c0,0,0.1,0,0.1-0.1c0,0,0,0,0.1,0c0,0,0,0,0,0c0,0,0,0,0.1,0c0,0,0,0,0.1,0
	c0,0,0,0,0,0c0,0,0.1-0.1,0.1-0.1c0,0,0,0,0.1,0c0,0,0,0,0,0c0,0,0.1,0,0.1-0.1c0,0,0,0,0,0c0,0,0,0,0.1,0c0,0,0.1-0.1,0.1-0.1
	c0,0,0,0,0.1,0c0,0,0,0,0,0c0,0,0.1-0.1,0.1-0.1c0,0,0,0,0.1,0c0,0,0,0,0.1-0.1c0,0,0,0,0.1-0.1c0,0,0,0,0,0c0,0,0.1-0.1,0.1-0.1
	c0,0,0,0,0.1-0.1c0,0,0,0,0,0c0,0,0,0,0,0c0,0,0,0,0,0c0,0,0,0,0.1,0c0.1-0.1,0.1-0.1,0.2-0.2c0.1-0.1,0.2-0.2,0.2-0.2
	c0.1-0.1,0.1-0.2,0.2-0.2c0,0,0,0,0,0l0,0c0.2-0.2,0.4-0.5,0.5-0.7c0.1-0.2,0.3-0.4,0.4-0.6c0.1-0.1,0.1-0.2,0.2-0.3
	c0.4-0.9,0.7-1.9,0.7-2.9c0-0.1,0-0.3,0-0.4C38.4,23.5,37.6,21.6,36.2,20.1z M15.2,29.9c-0.2,0.1-0.4,0.2-0.7,0.3
	c-0.4,0.1-0.9,0.2-1.4,0.2c-0.1,0-0.1,0-0.2,0c0,0,0,0,0,0c0,0,0,0,0,0c0,0-0.1,0-0.1,0c0,0,0,0,0,0c0,0,0,0-0.1,0c0,0-0.1,0-0.1,0
	c0,0,0,0-0.1,0c0,0,0,0,0,0c0,0-0.1,0-0.1,0c0,0-0.1,0-0.1,0c0,0-0.1,0-0.1,0c0,0-0.1,0-0.1,0c0,0,0,0,0,0c0,0,0,0-0.1,0
	c0,0,0,0,0,0v0c0,0-0.1,0-0.1,0c-0.1,0-0.1,0-0.2-0.1c0,0-0.1,0-0.1,0c-0.1,0-0.1,0-0.2-0.1c0,0-0.1,0-0.1,0c0,0,0,0,0,0
	c-0.1,0-0.1-0.1-0.2-0.1c0,0,0,0,0,0c0,0-0.1-0.1-0.1-0.1c0,0,0,0-0.1,0c0,0,0,0-0.1,0c0,0-0.1-0.1-0.1-0.1c0,0-0.1,0-0.1-0.1
	c0,0,0,0,0,0c-0.1,0-0.1-0.1-0.2-0.1c0,0,0,0-0.1,0c0,0,0,0-0.1,0c0,0-0.1-0.1-0.1-0.1c0,0,0,0,0,0c0,0,0,0-0.1-0.1
	c-0.1-0.1-0.1-0.1-0.2-0.2c-0.9-0.9-1.4-2.1-1.4-3.4c0-0.1,0-0.2,0-0.2c0,0,0-0.1,0-0.1c0-0.1,0-0.1,0-0.2c0,0,0-0.1,0-0.1
	c0,0,0-0.1,0-0.1c0,0,0-0.1,0-0.1c0,0,0-0.1,0-0.1c0,0,0-0.1,0-0.1c0,0,0-0.1,0-0.1c0,0,0-0.1,0-0.1c0,0,0-0.1,0-0.1
	c0,0,0-0.1,0-0.1c0,0,0-0.1,0-0.1c0,0,0-0.1,0-0.1c0,0,0-0.1,0-0.1c0,0,0-0.1,0-0.1c0,0,0-0.1,0-0.1c0,0,0-0.1,0-0.1
	c0,0,0-0.1,0-0.1c0,0,0-0.1,0.1-0.1c0,0,0-0.1,0.1-0.1c0,0,0-0.1,0.1-0.1c0,0,0-0.1,0.1-0.1c0,0,0-0.1,0.1-0.1c0,0,0-0.1,0.1-0.1
	c0,0,0-0.1,0.1-0.1c0,0,0-0.1,0.1-0.1c0,0,0.1-0.1,0.1-0.1c0,0,0,0,0.1-0.1c0,0,0.1-0.1,0.1-0.1c0.1-0.1,0.1-0.1,0.2-0.2
	c0.9-0.9,2.1-1.4,3.4-1.4c1.3,0,2.5,0.5,3.4,1.4l0.5,0.5l0,0l2.9,2.9l-2.3,2.3l0,0l-1.1,1.1c-0.1,0.1-0.2,0.2-0.4,0.3
	c-0.1,0-0.1,0.1-0.2,0.1C15.7,29.6,15.4,29.7,15.2,29.9z M30.5,30.3c-1.1-0.1-2.3-0.5-3.1-1.4l-1.5-1.5l-0.3-0.3l-0.3-0.3l-0.3-0.3
	L24,25.6l3.4-3.4c0.1-0.1,0.2-0.2,0.4-0.3c0.1,0,0.1-0.1,0.2-0.1c0.8-0.6,1.8-0.9,2.8-0.9c0,0,0,0,0,0c0.1,0,0.2,0,0.3,0
	c0,0,0,0,0,0c0.1,0,0.2,0,0.3,0c0,0,0.1,0,0.1,0c0,0,0.1,0,0.1,0c0,0,0.1,0,0.1,0c0,0,0.1,0,0.1,0c0,0,0.1,0,0.1,0c0,0,0.1,0,0.1,0
	c0,0,0.1,0,0.1,0c0,0,0.1,0,0.1,0c0,0,0,0,0.1,0c0,0,0.1,0,0.1,0c0,0,0,0,0,0c0,0,0.1,0,0.1,0c0.1,0,0.1,0.1,0.2,0.1c0,0,0,0,0,0
	c0.1,0,0.1,0.1,0.2,0.1c0,0,0,0,0,0c0.1,0,0.1,0.1,0.2,0.1c0,0,0,0,0,0c0,0,0,0,0.1,0c0,0,0.1,0,0.1,0.1c0,0,0.1,0,0.1,0.1
	c0,0,0,0,0.1,0c0,0,0.1,0.1,0.1,0.1c0,0,0,0,0,0c0,0,0.1,0.1,0.1,0.1c0,0,0.1,0,0.1,0.1c0,0,0,0,0.1,0c0.1,0.1,0.1,0.1,0.2,0.2
	c0,0,0,0,0,0c0.4,0.4,0.7,0.8,0.9,1.3c0,0.1,0.1,0.1,0.1,0.2c0.2,0.6,0.4,1.2,0.4,1.8c0,0.6-0.1,1.3-0.4,1.8c0,0.1-0.1,0.1-0.1,0.2
	c-0.1,0.3-0.3,0.5-0.4,0.7l0,0c0,0.1-0.1,0.1-0.1,0.2c0,0,0,0,0,0c0,0-0.1,0.1-0.1,0.1c0,0,0,0,0,0c0,0-0.1,0.1-0.1,0.1
	c0,0-0.1,0.1-0.1,0.1C34,29,34,29.1,33.9,29.1c0,0,0,0,0,0c0,0,0,0-0.1,0c-0.1,0-0.1,0.1-0.2,0.1c0,0,0,0-0.1,0
	c-0.1,0-0.1,0.1-0.2,0.1c0,0,0,0,0,0c-0.1,0.1-0.2,0.1-0.2,0.1c0,0,0,0,0,0c0,0-0.1,0-0.1,0c0,0,0,0,0,0c0,0-0.1,0-0.1,0.1
	c0,0,0,0,0,0c0,0,0,0,0,0c-0.1,0-0.1,0.1-0.2,0.1c0,0,0,0,0,0c0,0,0,0,0,0c0,0-0.1,0-0.1,0.1c0,0,0,0-0.1,0c0,0-0.1,0-0.1,0
	c0,0,0,0,0,0c-0.2,0.1-0.3,0.1-0.5,0.1c0,0,0,0,0,0c-0.1,0-0.1,0-0.2,0l0,0c-0.1,0-0.3,0-0.4,0.1c-0.2,0-0.3,0-0.5,0
	C30.7,30.3,30.6,30.3,30.5,30.3z"/>
<linearGradient id="SVGID_1_" gradientUnits="userSpaceOnUse" x1="29.5439" y1="24.2757" x2="64.3743" y2="24.2757" gradientTransform="matrix(1 0 0 1 -25.0444 0)">
	<stop  offset="0" style="stop-color:#2F47CB"/>
	<stop  offset="1" style="stop-color:#1E237E"/>
</linearGradient>
<path class="st3" d="M37,30c-1.5,1.5-3.6,2.4-5.7,2.4S27,31.5,25.5,30l-3.6-3.6L18.3,30c-1.5,1.5-3.6,2.4-5.7,2.4
	c-2.2,0-4.2-0.8-5.7-2.4c-3.2-3.2-3.2-8.3,0-11.5c1.6-1.6,3.7-2.4,5.7-2.4c2.1,0,4.2,0.8,5.7,2.4l3.6,3.6l3.6-3.6
	c1.6-1.6,3.7-2.4,5.7-2.4c2.1,0,4.2,0.8,5.7,2.4c1.5,1.5,2.4,3.6,2.4,5.7C39.3,26.4,38.5,28.5,37,30z M16.2,20.7
	c-1-1-2.2-1.5-3.6-1.5S10,19.8,9,20.7c-1,1-1.5,2.2-1.5,3.6c0,1.3,0.5,2.6,1.5,3.6c1,1,2.2,1.5,3.6,1.5c1.3,0,2.6-0.5,3.6-1.5
	l3.6-3.6L16.2,20.7z M19.7,24.3l-3.6-3.6 M34.8,20.7c-2-2-5.2-2-7.1,0l-3.6,3.6l3.6,3.6c1,1,2.2,1.5,3.6,1.5c1.3,0,2.6-0.5,3.6-1.5
	c1-1,1.5-2.2,1.5-3.6C36.3,22.9,35.7,21.7,34.8,20.7z"/>
<linearGradient id="SVGID_00000039821254535214172380000017065734509306252192_" gradientUnits="userSpaceOnUse" x1="4.5276" y1="20.6555" x2="19.208" y2="20.6555">
	<stop  offset="0" style="stop-color:#2F47CB"/>
	<stop  offset="1" style="stop-color:#1E237E"/>
</linearGradient>
<path style="fill:url(#SVGID_00000039821254535214172380000017065734509306252192_);" d="M12.6,16.2c-2.1,0-4.2,0.8-5.7,2.4
	c-1.4,1.4-2.2,3.2-2.3,5.1L6,25.1l1.6-1.4c0.1-1.2,0.6-2.2,1.5-3.1c1-1,2.2-1.5,3.6-1.5s2.6,0.5,3.6,1.5l1.2,1.2l1.8-2.5l-0.9-0.9
	C16.8,17,14.7,16.2,12.6,16.2z"/>
<linearGradient id="SVGID_00000072969491676761052490000005237977623337432452_" gradientUnits="userSpaceOnUse" x1="41.3092" y1="24.4203" x2="52.0795" y2="24.4203" gradientTransform="matrix(1 0 0 1 -25.0444 0)">
	<stop  offset="0" style="stop-color:#2F47CB"/>
	<stop  offset="1" style="stop-color:#1E237E"/>
</linearGradient>
<path style="fill:url(#SVGID_00000072969491676761052490000005237977623337432452_);" d="M24.1,24.3l0.9-0.9l-2.3-2l-0.7,0.7
	l-3.2-3.2l-2.4-0.1l0.1,2.2l3.4,3.4l-0.4,0.4l2.2,2.1l0.3-0.3l3.6,3.6c0,0,0.1,0.1,0.1,0.1l1.5-2.9L24.1,24.3z"/>
<linearGradient id="SVGID_00000085944070383064388440000016936563443386614175_" gradientUnits="userSpaceOnUse" x1="49.7236" y1="27.9704" x2="64.3744" y2="27.9704" gradientTransform="matrix(1 0 0 1 -25.0444 0)">
	<stop  offset="0" style="stop-color:#2F47CB"/>
	<stop  offset="1" style="stop-color:#1E237E"/>
</linearGradient>
<path style="fill:url(#SVGID_00000085944070383064388440000016936563443386614175_);" d="M39.3,23.6l-3,0.7c0,0,0,0,0,0
	c0,1.3-0.5,2.6-1.5,3.6c-1,1-2.2,1.5-3.6,1.5c-1.3,0-2.6-0.5-3.6-1.5l-1-1l-2,0.2l0.3,2.4l0.5,0.5c1.5,1.5,3.6,2.4,5.7,2.4
	s4.2-0.8,5.7-2.4c1.5-1.5,2.4-3.6,2.4-5.7C39.3,24,39.3,23.8,39.3,23.6z"/>
<polygon class="st7" points="24.4,24.6 22.2,26.8 19.3,23.8 21.5,21.7 "/>
<linearGradient id="SVGID_00000171714527181092142140000006962817856698741632_" gradientUnits="userSpaceOnUse" x1="48.2811" y1="20.8164" x2="64.359" y2="20.8164" gradientTransform="matrix(1 0 0 1 -25.0444 0)">
	<stop  offset="0" style="stop-color:#2F47CB"/>
	<stop  offset="1" style="stop-color:#1E237E"/>
</linearGradient>
<path style="fill:url(#SVGID_00000171714527181092142140000006962817856698741632_);" d="M38,25.5l1.3-1.7c-0.1-2-0.9-3.8-2.4-5.3
	c-1.6-1.6-3.7-2.4-5.7-2.4c-2.1,0-4.2,0.8-5.7,2.4l-2.2,2.2l2.7,1.6l1.7-1.7c2-2,5.2-2,7.1,0c1,1,1.5,2.2,1.5,3.6c0,0,0,0,0,0
	L38,25.5z"/>
<linearGradient id="SVGID_00000043454063001034449460000018002699121276164518_" gradientUnits="userSpaceOnUse" x1="42.2827" y1="24.1946" x2="52.0886" y2="24.1946" gradientTransform="matrix(1 0 0 1 -25.0444 0)">
	<stop  offset="0" style="stop-color:#2F47CB"/>
	<stop  offset="1" style="stop-color:#1E237E"/>
</linearGradient>
<polygon style="fill:url(#SVGID_00000043454063001034449460000018002699121276164518_);" points="26.9,21.5 27,19.2 24.6,19.5 
	17.2,26.8 19.3,27.1 19.1,29.2 "/>
</svg>
