<?xml version="1.0" encoding="utf-8"?>
<!-- Generator: Adobe Illustrator 26.0.1, SVG Export Plug-In . SVG Version: 6.00 Build 0)  -->
<svg version="1.1" id="Layer_1" xmlns="http://www.w3.org/2000/svg" xmlns:xlink="http://www.w3.org/1999/xlink" x="0px" y="0px"
	 viewBox="0 0 45 45" style="enable-background:new 0 0 45 45;" xml:space="preserve">
<style type="text/css">
	.st0{fill:#DD3900;}
	.st1{fill:#FFFFFF;}
	.st2{fill:#91B3FA;}
	.st3{opacity:0.46;fill:#FFFFFF;}
	.st4{opacity:0.69;fill:#FFFFFF;}
</style>
<polygon class="st0" points="19,30.6 18.1,39 28.9,39 27.5,30.6 "/>
<path class="st0" d="M4,10.1v19.1c0,1.6,1.1,2.9,2.4,2.9c6,0.2,27,0.6,32.7,0.5c1,0,1.8-0.9,1.8-2.1c0.1-4.4,0.3-15.1-0.4-20.1
	c-0.1-1-0.9-1.8-1.8-1.9C33.7,8.4,11.5,7.8,5.8,8C4.8,8,4,8.9,4,10.1z"/>
<path class="st1" d="M5,10v18.2c0,0.9,0.6,1.7,1.4,1.7l31.8,0.5c0.8,0,1.4-0.7,1.4-1.6l0.1-18c0-0.7-0.4-1.2-1-1.2L6.2,8.7
	C5.5,8.7,5,9.2,5,10z"/>
<path class="st2" d="M40,31C40,31,40,31,40,31L5,30.3c0,0,0,0,0-0.1c0,0,0-0.1,0-0.1L40,30.9C40,30.9,40,30.9,40,31
	C40,31,40,31,40,31z"/>
<path class="st0" d="M31.2,40.7H15.4c-0.4,0-0.8-0.3-0.7-0.6l0.2-0.8c0.1-0.2,0.3-0.4,0.6-0.4l15.2-0.5c0.3,0,0.6,0.2,0.7,0.4
	l0.4,1.3C32,40.4,31.7,40.7,31.2,40.7z"/>
<path class="st2" d="M23.9,39C23.9,39,23.9,39,23.9,39c-0.1-0.1,0-0.1,0-0.1l0.7,0h0c0,0,0.1,0,0.1,0.1c0,0,0,0.1-0.1,0.1L23.9,39
	C23.9,39,23.9,39,23.9,39z"/>
<path class="st2" d="M15.3,40.2C15.3,40.2,15.3,40.2,15.3,40.2C15.3,40.2,15.3,40.2,15.3,40.2l0-0.6c0.1-0.3,0.3-0.5,0.6-0.6
	l6.9-0.1c0,0,0.1,0,0.1,0.1c0,0,0,0.1-0.1,0.1L16,39.2c-0.3,0-0.5,0.2-0.5,0.5L15.3,40.2C15.4,40.2,15.4,40.2,15.3,40.2z"/>
<path class="st3" d="M30.3,16.1h4.1c0.3,0,0.5,0.2,0.5,0.5v2.8c0,0.3-0.2,0.5-0.5,0.5h-4.1c-0.3,0-0.5-0.2-0.5-0.5v-2.8
	C29.9,16.3,30.1,16.1,30.3,16.1z"/>
<path class="st0" d="M11,12.2L34.5,12c0.5,0,0.8,0.3,0.8,0.7l-0.1,14.7c0,0.4-0.4,0.7-0.8,0.7c-4.2-0.1-23-0.6-23.9-0.5
	c-0.8,0-0.4-11.7-0.3-14.7C10.2,12.5,10.6,12.2,11,12.2z"/>
<path class="st4" d="M34.4,27.4L34.4,27.4c-3.4-0.1-20.3-0.5-23.4-0.5l0,0l0,0c-0.3-1.3-0.3-6.7,0-13.7c0-0.1,0.1-0.1,0.1-0.1
	l23.4-0.2c0.1,0,0.1,0,0.1,0c0,0,0,0.1,0,0.1l-0.1,14.2C34.5,27.3,34.4,27.4,34.4,27.4z M11,26.8c3.2,0,20,0.4,23.4,0.5l0,0
	c0,0,0,0,0,0L34.5,13c0,0,0,0,0,0c0,0,0,0,0,0L11,13.2c0,0,0,0,0,0C10.7,20.1,10.7,25.4,11,26.8z"/>
<path class="st1" d="M13.9,25.6h15.4c0.5,0,0.8-0.5,0.5-0.9l-6.1-10.3c-0.3-0.4-0.9-0.4-1.1,0.1l-2.9,6.4c-0.2,0.4-0.7,0.5-1,0.2
	L17.5,20c-0.3-0.3-0.7-0.2-0.9,0.1l-3.2,4.6C13.1,25.1,13.4,25.6,13.9,25.6z"/>
<circle class="st1" cx="30" cy="16.1" r="2.2"/>
</svg>
