<?xml version="1.0" encoding="utf-8"?>
<!-- Generator: Adobe Illustrator 26.0.1, SVG Export Plug-In . SVG Version: 6.00 Build 0)  -->
<svg version="1.1" id="Layer_1" xmlns="http://www.w3.org/2000/svg" xmlns:xlink="http://www.w3.org/1999/xlink" x="0px" y="0px"
	 viewBox="0 0 45 45" style="enable-background:new 0 0 45 45;" xml:space="preserve">
<style type="text/css">
	.st0{fill:#424242;}
	.st1{fill:#FFFFFF;}
	.st2{fill:#212121;}
	.st3{fill:#FAFAFA;}
	.st4{fill:#565656;}
	.st5{fill:#E53935;}
	.st6{opacity:0.11;fill:#212121;}
	.st7{fill:#EF5350;}
	.st8{fill:#616161;}
	.st9{fill:#BDBDBD;}
	.st10{opacity:0.2;fill:#212121;}
	.st11{fill:#8D6E63;}
</style>
<path class="st0" d="M41.4,11.6H2.5c-0.6,0-1.2,0.5-1.2,1.2v22.6c0,0.6,0.5,1.2,1.2,1.2h38.9c0.6,0,1.2-0.5,1.2-1.2V12.8
	C42.6,12.1,42.1,11.6,41.4,11.6z"/>
<rect x="3.4" y="13.6" class="st1" width="37.1" height="20.8"/>
<path class="st2" d="M22.3,12.6c0,0.2-0.2,0.4-0.4,0.4c-0.2,0-0.4-0.2-0.4-0.4c0-0.2,0.2-0.4,0.4-0.4C22.2,12.2,22.3,12.4,22.3,12.6
	z"/>
<path class="st3" d="M22,34.9c-0.3,0-0.6,0.3-0.6,0.6c0,0.3,0.3,0.6,0.6,0.6c0.3,0,0.6-0.3,0.6-0.6C22.6,35.2,22.3,34.9,22,34.9z"/>
<polygon class="st0" points="25.4,40.3 18.6,40.3 19.4,36.6 24.5,36.6 "/>
<path class="st0" d="M29,40.3H14.9c-0.2,0-0.3,0.1-0.3,0.3c0,0.2,0.1,0.3,0.3,0.3H29c0.2,0,0.3-0.1,0.3-0.3
	C29.4,40.5,29.2,40.3,29,40.3z"/>
<polygon class="st4" points="24.7,37.3 24.5,36.6 19.4,36.6 19.3,36.9 "/>
<polygon class="st0" points="15.3,27.6 7.4,34.5 5.7,34.5 3.4,31.9 3.4,24.3 8.5,19.9 "/>
<polygon class="st1" points="11.9,34.5 8.5,34.5 3.4,28.8 3.4,24.9 "/>
<polygon class="st5" points="15.3,27.6 33.5,20.2 18.2,2.7 8.5,19.9 "/>
<polygon class="st6" points="33.5,20.2 18.2,2.7 18,3.1 31.5,21 "/>
<path class="st7" d="M18.3,1.7c-0.4,0.4-0.4,1-0.1,1.4l15,17.1c0.4,0.4,1,0.4,1.4,0.1c0.4-0.4,0.4-1,0.1-1.4l-15-17.1
	C19.4,1.4,18.7,1.3,18.3,1.7z"/>
<g>
	<path class="st8" d="M25.8,8.7l2.8,3.2c0.3-0.8,0.2-1.8-0.4-2.5C27.6,8.7,26.6,8.5,25.8,8.7z"/>
</g>
<path class="st9" d="M11.1,25.8c-0.1,0.1-0.1,0.3,0,0.4l2,2.3c0.1,0.1,0.3,0.1,0.4,0c0.1-0.1,0.1-0.3,0-0.4l-2-2.3
	C11.5,25.7,11.3,25.7,11.1,25.8z"/>
<path class="st9" d="M9.8,27c-0.1,0.1-0.1,0.3,0,0.4l2,2.3c0.1,0.1,0.3,0.1,0.4,0c0.1-0.1,0.1-0.3,0-0.4l-2-2.3
	C10.1,26.9,9.9,26.8,9.8,27z"/>
<path class="st9" d="M8.4,28.1c-0.1,0.1-0.1,0.3,0,0.4l2,2.3c0.1,0.1,0.3,0.1,0.4,0c0.1-0.1,0.1-0.3,0-0.4l-2-2.3
	C8.8,28,8.6,28,8.4,28.1z"/>
<path class="st9" d="M8,21.8c0.1,0.1,0.1,0.3,0,0.4c-0.1,0.1-0.3,0.1-0.4,0c-0.1-0.1-0.1-0.3,0-0.4C7.7,21.6,7.9,21.7,8,21.8z"/>
<path class="st9" d="M7.2,22.6c0.1,0.1,0.1,0.3,0,0.4c-0.1,0.1-0.3,0.1-0.4,0c-0.1-0.1-0.1-0.3,0-0.4C6.8,22.4,7,22.4,7.2,22.6z"/>
<polygon class="st6" points="8,34 7.4,34.5 7,34.5 3.4,29.4 3.4,28.8 "/>
<ellipse transform="matrix(9.898377e-02 -0.9951 0.9951 9.898377e-02 1.4483 57.0862)" class="st7" cx="32.2" cy="27.7" rx="5.5" ry="5.5"/>
<ellipse transform="matrix(0.3863 -0.9224 0.9224 0.3863 -5.8005 46.7682)" class="st3" cx="32.2" cy="27.7" rx="3.7" ry="3.7"/>
<path class="st7" d="M33.9,27.7c0,0.8-0.7,1.5-1.5,1.5c-0.8,0-1.5-0.7-1.5-1.5c0-0.8,0.7-1.5,1.5-1.5C33.2,26.2,33.9,26.9,33.9,27.7
	z"/>
<path class="st10" d="M39,30.5c-0.1,0.4-0.3,0.7-0.5,1.1l-0.1,0l-0.5-0.7L32.4,28c-0.1-0.1-0.2-0.2-0.2-0.3c0-0.1,0.1-0.1,0.2-0.1
	l5.5,2.7l0.5-0.2L39,30.5z"/>
<g>
	<path class="st0" d="M37.6,27.9h-5.1c-0.1,0-0.1-0.1-0.1-0.1l0,0c0-0.1,0.1-0.1,0.1-0.1h5.1V27.9z"/>
	<polygon class="st11" points="38,27.2 37.1,27.2 36.7,27.6 37.6,27.6 	"/>
	<polygon class="st11" points="38,28.3 37.1,28.3 36.7,27.9 37.6,27.9 	"/>
</g>
</svg>
