<?xml version="1.0" encoding="utf-8"?>
<!-- Generator: Adobe Illustrator 26.0.1, SVG Export Plug-In . SVG Version: 6.00 Build 0)  -->
<svg version="1.1" id="Layer_1" xmlns="http://www.w3.org/2000/svg" xmlns:xlink="http://www.w3.org/1999/xlink" x="0px" y="0px"
	 viewBox="0 0 45 45" style="enable-background:new 0 0 45 45;" xml:space="preserve">
<style type="text/css">
	.st0{fill:url(#SVGID_1_);}
	.st1{fill:url(#SVGID_00000085214018708527895460000008742880029742325637_);}
</style>
<linearGradient id="SVGID_1_" gradientUnits="userSpaceOnUse" x1="11.0369" y1="2.0571" x2="34.8983" y2="43.3861">
	<stop  offset="0" style="stop-color:#D62609"/>
	<stop  offset="1" style="stop-color:#F44E38"/>
</linearGradient>
<path class="st0" d="M32,0.8H13.9c-0.7,0-1.3,0.3-1.8,0.8c-0.5,0.5-0.8,1.1-0.8,1.8v38.7c0,0.7,0.3,1.3,0.8,1.8
	c0.5,0.5,1.1,0.8,1.8,0.8H32c0.7,0,1.3-0.3,1.8-0.8c0.5-0.5,0.8-1.1,0.8-1.8V3.4c0-0.7-0.3-1.3-0.8-1.8C33.3,1.1,32.7,0.8,32,0.8
	L32,0.8z M21.4,3h3.1C24.8,3.1,25,3.4,25,3.7c0,0.3-0.2,0.6-0.5,0.7h-3.1c-0.2,0.1-0.4,0-0.6-0.1c-0.2-0.1-0.3-0.3-0.3-0.5
	c0-0.2,0.1-0.4,0.3-0.5C21,3,21.2,3,21.4,3L21.4,3z M23.7,42.4h-1.4c-0.3-0.1-0.5-0.4-0.5-0.7s0.2-0.6,0.5-0.7h1.4
	c0.3,0.1,0.5,0.4,0.5,0.7S24,42.3,23.7,42.4z M33.3,38.5l-20.6,0V7h20.6V38.5z"/>
<linearGradient id="SVGID_00000151525699244894833560000000090120830017465249_" gradientUnits="userSpaceOnUse" x1="22.9689" y1="13.7492" x2="22.9689" y2="31.6983">
	<stop  offset="0" style="stop-color:#D62609"/>
	<stop  offset="1" style="stop-color:#F44E38"/>
</linearGradient>
<path style="fill:url(#SVGID_00000151525699244894833560000000090120830017465249_);" d="M14.8,24.4l1.4,0.3
	c0.1,0.5,0.3,0.9,0.6,1.4L16,27.3c-0.2,0.4-0.2,0.9,0.2,1.2l1,1c0.3,0.3,0.8,0.4,1.2,0.1l1.2-0.8c0.4,0.2,0.9,0.4,1.4,0.6l0.3,1.4
	c0.1,0.5,0.5,0.8,1,0.8h1.4c0.5,0,0.9-0.3,1-0.8l0.3-1.4c0.5-0.1,0.9-0.3,1.4-0.6l1.2,0.8c0.4,0.2,0.9,0.2,1.2-0.1l1-1.1
	c0.3-0.3,0.4-0.8,0.1-1.2l-0.8-1.2c0.2-0.4,0.4-0.9,0.6-1.4l1.4-0.3c0.4-0.1,0.8-0.5,0.8-1V22c0-0.5-0.3-0.9-0.7-1l-1.4-0.3
	c-0.1-0.5-0.3-0.9-0.6-1.4l0.7-1.2c0.2-0.4,0.2-0.9-0.1-1.2l-1-1c-0.3-0.3-0.8-0.4-1.2-0.1l-1.2,0.8c-0.4-0.2-0.9-0.4-1.4-0.6
	l-0.3-1.4h0c-0.1-0.5-0.5-0.8-1-0.7h-1.4c-0.5,0-0.9,0.3-1,0.8L21,15.9c-0.5,0.1-0.9,0.3-1.4,0.6l-1.2-0.8c-0.4-0.2-0.9-0.2-1.2,0.1
	l-1.1,1c-0.3,0.3-0.4,0.8-0.1,1.2l0.8,1.2c-0.2,0.4-0.4,0.9-0.6,1.4L14.8,21c-0.5,0.1-0.8,0.5-0.8,1v1.4
	C14,23.9,14.3,24.3,14.8,24.4L14.8,24.4z M23,18.5c1.1,0,2.2,0.4,3,1.2c0.8,0.8,1.2,1.9,1.2,3c0,1.1-0.5,2.2-1.3,3
	c-0.8,0.8-1.9,1.2-3,1.2c-1.1,0-2.2-0.5-3-1.3c-0.8-0.8-1.2-1.9-1.2-3c0-1.1,0.5-2.2,1.3-3C20.8,18.9,21.9,18.5,23,18.5z"/>
</svg>
